<?xml version="1.0" encoding="utf-8"?>
<!-- Generator: Adobe Illustrator 28.0.0, SVG Export Plug-In . SVG Version: 6.00 Build 0)  -->
<svg version="1.1" id="Layer_1" xmlns="http://www.w3.org/2000/svg" xmlns:xlink="http://www.w3.org/1999/xlink" x="0px" y="0px"
	 viewBox="0 0 245 245" style="enable-background:new 0 0 245 245;" xml:space="preserve">
<style type="text/css">
	.st0{fill:url(#SVGID_1_);}
	.st1{fill:#5285F7;fill-opacity:0.72;}
	.st2{fill:url(#SVGID_00000160871484092730605490000002696428274072797849_);fill-opacity:0.2;}
	.st3{fill:url(#SVGID_00000064349750934522782990000003275769852075312791_);fill-opacity:0.2;}
	.st4{clip-path:url(#SVGID_00000106868303825723961480000009261291724442140580_);}
	.st5{fill:#FFFFFF;}
</style>
<g>
	
		<radialGradient id="SVGID_1_" cx="-172.25" cy="545.432" r="3.7618" gradientTransform="matrix(22 76.5 53.6526 -15.4295 -25395.1152 21540.4785)" gradientUnits="userSpaceOnUse">
		<stop  offset="0" style="stop-color:#61CDFF"/>
		<stop  offset="1" style="stop-color:#305BF3"/>
	</radialGradient>
	<circle class="st0" cx="122.5" cy="122.5" r="118.5"/>
	<path class="st1" d="M115.8,128.8c-50.9,44-95.8,11.8-111.8-9.8C4,75.7,73.4-22.6,154.4,10.8c64.8,26.7,79.7,83.2,79.1,108.1
		C215.5,103.9,166.7,84.7,115.8,128.8z"/>
	
		<linearGradient id="SVGID_00000132048357915394494760000008302169091287838105_" gradientUnits="userSpaceOnUse" x1="126.7303" y1="80.1288" x2="126.7303" y2="8.8429" gradientTransform="matrix(1 0 0 -1 0 245.8898)">
		<stop  offset="0" style="stop-color:#59B3FD"/>
		<stop  offset="1" style="stop-color:#59B3FD;stop-opacity:0"/>
	</linearGradient>
	<path style="fill:url(#SVGID_00000132048357915394494760000008302169091287838105_);fill-opacity:0.2;" d="M211.8,189.7
		c-25.6,42.1-78.4,48.9-101.6,47c-18.1,0.6-43.9-12.9-56.4-22.6c-11.9-6.3-27.5-28.2,20.7-43.3C122.7,155.9,186.1,177.2,211.8,189.7
		z"/>
	
		<linearGradient id="SVGID_00000101101656608009522950000015902471035253570195_" gradientUnits="userSpaceOnUse" x1="120.6191" y1="172.2929" x2="120.6191" y2="208.0299" gradientTransform="matrix(1 0 0 -1 0 245.8898)">
		<stop  offset="0" style="stop-color:#E7F5FC;stop-opacity:0"/>
		<stop  offset="1" style="stop-color:#39FEFE"/>
	</linearGradient>
	
		<ellipse style="fill:url(#SVGID_00000101101656608009522950000015902471035253570195_);fill-opacity:0.2;" cx="120.6" cy="52.9" rx="67.7" ry="45.1"/>
	<g>
		<defs>
			<rect id="SVGID_00000139287110005019344390000006766848304152546976_" x="26.6" y="30.3" width="195.6" height="184.3"/>
		</defs>
		<clipPath id="SVGID_00000067196818083526429930000012357976402917055924_">
			<use xlink:href="#SVGID_00000139287110005019344390000006766848304152546976_"  style="overflow:visible;"/>
		</clipPath>
		<g style="clip-path:url(#SVGID_00000067196818083526429930000012357976402917055924_);">
			<g>
				<path class="st5" d="M172.5,92.2c0.1,0.7,0.1,1.4,0.1,2.2c0,17-8.5,32.2-21.6,41.4c-3,2.1-6.2,4-9.6,5.4c0,0,0,0,0,0v30.2H101
					v-20.2v-10c-3.4-1.5-6.6-3.3-9.6-5.5c-7-4.9-12.7-11.7-16.5-19.4c-0.4-0.8-0.8-1.6-1.2-2.5c-2.5-6-3.8-12.5-3.8-19.4
					c0-28,23-50.8,51.3-50.8c28.3,0,41.9,14.6,48.6,34.8l6.8-8.9c-9.6-20.8-30.9-35.3-55.4-35.3c-24.5,0-60.9,27-60.9,60.3
					c0,33.2,12.5,42.1,31.1,52.6v34H151V147c18.6-10.3,31.2-30,31.2-52.6c0-22.5-0.5-8.9-1.5-13.1L172.5,92.2L172.5,92.2z"/>
			</g>
			<g>
				<path class="st5" d="M151.1,188.3H91.5v12.4h59.6V188.3z"/>
			</g>
			<g>
				<path class="st5" d="M194.6,69.6l-1-9.5l0.2-0.3l-0.2-0.2l-0.4-3.6l-3.6,0.7l-0.3-0.2l-0.2,0.3l-9.5,1.7l1,5.5l3.6-0.7
					l-19.9,26.5c-1.3-0.7-2.7-1.1-4.3-1.1c-1.5,0-4,0.8-5.7,2L144.2,79c0.8-1.4,1.3-2.9,1.3-4.6c0-5.4-4.4-9.8-9.9-9.8
					s-9.9,4.4-9.9,9.8c0,5.4,1.5,5.7,3.7,7.5L118,107.3c-0.3,0-0.6-0.2-0.9-0.2c-1.7,0-3.2,0.5-4.6,1.3l-9.8-9.2
					c0.6-1.3,1-2.6,1-4.1c0-5.4-4.4-9.8-9.9-9.8c-5.5,0-9.9,4.4-9.9,9.8c0,5.4,0.9,4.2,2.2,5.8l-9.7,13.4l4.6,3.2l9.7-13.3
					c1,0.4,2.1,0.7,3.2,0.7c1.9,0,3.6-0.7,5.1-1.6l9.7,9c-0.8,1.4-1.3,2.9-1.3,4.6c0,5.4,4.4,9.8,9.9,9.8c5.5,0,9.9-4.4,9.9-9.8
					s-1.5-5.7-3.8-7.6L134.6,84c0.4,0,0.7,0.2,1,0.2c1.7,0,3.2-0.5,4.6-1.2l10.7,12.2c-0.4,1.1-0.7,2.2-0.7,3.4
					c0,5.4,4.4,9.8,9.9,9.8c5.5,0,9.9-4.4,9.9-9.8c0-5.4-0.7-3.5-1.5-4.9l20.3-27l0.4,3.6L194.6,69.6L194.6,69.6z M156.9,95.7
					l0.3-0.3c0.8-0.7,1.7-1.1,2.8-1.1c2.4,0,4.3,1.9,4.3,4.3c0,2.3-1.9,4.3-4.3,4.3s-4.3-1.9-4.3-4.3
					C155.8,96.2,156.2,96.4,156.9,95.7z M139.9,74.5c0,2.3-1.9,4.3-4.3,4.3c-2.4,0-4.3-1.9-4.3-4.3c0-2.4,1.9-4.3,4.3-4.3
					C137.9,70.2,139.9,72.1,139.9,74.5z M121.4,117c0,2.3-1.9,4.2-4.3,4.2c-2.4,0-4.3-1.9-4.3-4.2c0-2.3,1.9-4.3,4.3-4.3
					C119.5,112.7,121.4,114.6,121.4,117z M98.1,95.1c0,2.3-1.9,4.3-4.3,4.3c-2.4,0-4.3-1.9-4.3-4.3c0-2.4,1.9-4.3,4.3-4.3
					C96.2,90.9,98.1,92.8,98.1,95.1z"/>
			</g>
		</g>
	</g>
</g>
</svg>
