<?xml version="1.0" encoding="utf-8"?>
<!-- Generator: Adobe Illustrator 28.0.0, SVG Export Plug-In . SVG Version: 6.00 Build 0)  -->
<svg version="1.1" id="Layer_1" xmlns="http://www.w3.org/2000/svg" xmlns:xlink="http://www.w3.org/1999/xlink" x="0px" y="0px"
	 viewBox="0 0 100 100" style="enable-background:new 0 0 100 100;" xml:space="preserve">
<style type="text/css">
	.st0{fill:#1FA2FF;}
	.st1{fill:url(#SVGID_1_);fill-opacity:0.2;}
	.st2{clip-path:url(#SVGID_00000003786265575886412770000011936575080039743394_);}
	.st3{fill:#FFFFFF;}
</style>
<circle class="st0" cx="50" cy="50" r="48.5"/>
<linearGradient id="SVGID_1_" gradientUnits="userSpaceOnUse" x1="-21.3189" y1="160.1897" x2="-21.3189" y2="141.2397" gradientTransform="matrix(1.5385 0 0 -1.5385 84.5439 314.1382)">
	<stop  offset="0" style="stop-color:#59B3FD"/>
	<stop  offset="1" style="stop-color:#59B3FD;stop-opacity:0"/>
</linearGradient>
<path class="st1" d="M86.6,77.5C76.1,94.7,54.5,97.5,45,96.7c-7.4,0.2-17.9-5.3-23.1-9.2c-4.9-2.6-11.2-11.5,8.5-17.7
	C50.1,63.7,76,72.4,86.6,77.5z"/>
<g>
	<defs>
		<rect id="SVGID_00000108283056004017925960000009152069823398174141_" x="10.8" y="12.3" width="80" height="75.4"/>
	</defs>
	<clipPath id="SVGID_00000059281657341207729940000008309075630941241772_">
		<use xlink:href="#SVGID_00000108283056004017925960000009152069823398174141_"  style="overflow:visible;"/>
	</clipPath>
	<g style="clip-path:url(#SVGID_00000059281657341207729940000008309075630941241772_);">
		<g>
			<path class="st3" d="M70.5,37.6c0,0.3,0,0.6,0,0.9c0,7-3.5,13.2-8.8,16.9c-1.2,0.9-2.5,1.6-3.9,2.2c0,0,0,0,0,0V70H41.2v-8.3
				v-4.1c-1.4-0.6-2.7-1.4-3.9-2.3c-2.8-2-5.2-4.8-6.8-7.9c-0.2-0.3-0.3-0.7-0.5-1c-1-2.4-1.6-5.1-1.6-7.9c0-11.5,9.4-20.8,21-20.8
				c11.6,0,17.1,6,19.9,14.2l2.8-3.6c-3.9-8.5-12.6-14.5-22.7-14.5c-10,0-24.9,11.1-24.9,24.6c0,13.6,5.1,17.2,12.7,21.5v13.9h24.3
				V60c7.6-4.2,12.7-12.3,12.7-21.5c0-9.2-0.2-3.6-0.6-5.3L70.5,37.6L70.5,37.6z"/>
		</g>
		<g>
			<path class="st3" d="M61.7,76.9H37.3V82h24.4V76.9z"/>
		</g>
		<g>
			<path class="st3" d="M79.5,28.4l-0.4-3.9l0.1-0.1l-0.1-0.1l-0.2-1.5l-1.5,0.3L77.3,23l-0.1,0.1l-3.9,0.7l0.4,2.2l1.5-0.3
				l-8.1,10.8c-0.5-0.3-1.1-0.4-1.7-0.4c-0.6,0-1.7,0.3-2.3,0.8l-4.2-4.8c0.3-0.6,0.6-1.2,0.6-1.9c0-2.2-1.8-4-4-4c-2.2,0-4,1.8-4,4
				c0,2.2,0.6,2.3,1.5,3.1l-4.6,10.4c-0.1,0-0.2-0.1-0.4-0.1c-0.7,0-1.3,0.2-1.9,0.5l-4-3.7c0.2-0.5,0.4-1.1,0.4-1.7
				c0-2.2-1.8-4-4-4c-2.2,0-4,1.8-4,4c0,2.2,0.4,1.7,0.9,2.4l-4,5.5L33,48l4-5.4c0.4,0.1,0.8,0.3,1.3,0.3c0.8,0,1.5-0.3,2.1-0.7
				l4,3.7c-0.3,0.6-0.6,1.2-0.6,1.9c0,2.2,1.8,4,4,4c2.2,0,4-1.8,4-4c0-2.2-0.6-2.3-1.6-3.1L55,34.3c0.1,0,0.3,0.1,0.4,0.1
				c0.7,0,1.3-0.2,1.9-0.5l4.4,5c-0.2,0.4-0.3,0.9-0.3,1.4c0,2.2,1.8,4,4,4c2.2,0,4-1.8,4-4c0-2.2-0.3-1.4-0.6-2l8.3-11.1l0.2,1.5
				L79.5,28.4L79.5,28.4z M64.1,39l0.1-0.1c0.3-0.3,0.7-0.5,1.2-0.5c1,0,1.8,0.8,1.8,1.7c0,1-0.8,1.7-1.8,1.7s-1.8-0.8-1.8-1.7
				C63.6,39.2,63.8,39.3,64.1,39z M57.1,30.4c0,1-0.8,1.7-1.7,1.7c-1,0-1.8-0.8-1.8-1.7c0-1,0.8-1.7,1.8-1.7
				C56.3,28.6,57.1,29.4,57.1,30.4z M49.6,47.7c0,1-0.8,1.7-1.8,1.7s-1.8-0.8-1.8-1.7c0-1,0.8-1.7,1.8-1.7
				C48.8,46,49.6,46.8,49.6,47.7z M40,38.8c0,1-0.8,1.7-1.8,1.7c-1,0-1.8-0.8-1.8-1.7c0-1,0.8-1.7,1.8-1.7
				C39.3,37.1,40,37.8,40,38.8z"/>
		</g>
	</g>
</g>
</svg>
