<svg width="245" height="245" viewBox="0 0 245 245" fill="none" xmlns="http://www.w3.org/2000/svg">
<g filter="url(#filter0_d_1_3)">
<circle cx="122.5" cy="105.5" r="31.5" fill="url(#paint0_radial_1_3)"/>
<path d="M120.729 107.163C114.976 112.139 109.513 113.451 104.806 112.873C94.1436 111.564 90.8676 98.1798 97.0207 89.3742C104.173 79.1381 116.921 70.0071 130.98 75.8087C132.119 76.279 133.201 76.7838 134.227 77.3186C146.46 83.694 131.161 98.1381 120.729 107.163Z" fill="#5285F7" fill-opacity="0.72"/>
<path d="M109.749 118.376C111.75 117.75 113.852 117.361 115.998 117.162C132.681 115.619 135.948 137.23 119.249 135.876C115.817 135.981 111.329 134.178 107.831 132.206C105.352 130.808 102.455 129.465 101.335 126.849C100.264 124.348 101.432 120.975 109.749 118.376Z" fill="url(#paint1_linear_1_3)" fill-opacity="0.2"/>
<ellipse cx="122" cy="87" rx="18" ry="12" fill="url(#paint2_linear_1_3)" fill-opacity="0.2"/>
</g>
<path d="M115.938 111.479H104.834C104.154 111.479 103.503 111.209 103.022 110.728C102.541 110.248 102.271 109.596 102.271 108.917V103.792C102.271 103.112 102.541 102.46 103.022 101.98C103.503 101.499 104.154 101.229 104.834 101.229H115.938C116.618 101.229 117.27 101.499 117.75 101.98C118.231 102.46 118.501 103.112 118.501 103.792V108.917C118.501 109.596 118.231 110.248 117.75 110.728C117.27 111.209 116.618 111.479 115.938 111.479ZM104.834 102.937C104.607 102.937 104.39 103.027 104.23 103.188C104.07 103.348 103.98 103.565 103.98 103.792V108.917C103.98 109.143 104.07 109.36 104.23 109.52C104.39 109.681 104.607 109.771 104.834 109.771H115.938C116.165 109.771 116.382 109.681 116.542 109.52C116.702 109.36 116.792 109.143 116.792 108.917V103.792C116.792 103.565 116.702 103.348 116.542 103.188C116.382 103.027 116.165 102.937 115.938 102.937H104.834Z" fill="white"/>
<path d="M119.355 98.6664H110.814C110.645 98.6656 110.48 98.6148 110.34 98.5206C110.201 98.4264 110.092 98.2928 110.028 98.1368C109.962 97.9813 109.944 97.8098 109.976 97.6441C110.008 97.4784 110.089 97.3259 110.207 97.2058L118.749 88.6641C118.869 88.5456 119.021 88.4653 119.187 88.4334C119.353 88.4015 119.524 88.4193 119.68 88.4848C119.836 88.5488 119.969 88.6577 120.064 88.7975C120.158 88.9373 120.209 89.102 120.209 89.2706V97.8123C120.209 98.0388 120.119 98.2561 119.959 98.4162C119.799 98.5764 119.582 98.6664 119.355 98.6664ZM112.872 96.9581H118.501V91.3291L112.872 96.9581Z" fill="white"/>
<path d="M106.782 104.039C106.971 104.035 107.158 104.069 107.333 104.14C107.507 104.21 107.666 104.315 107.799 104.449C107.94 104.575 108.054 104.728 108.132 104.901C108.21 105.073 108.251 105.26 108.251 105.449C108.253 105.635 108.217 105.82 108.145 105.992C108.073 106.164 107.967 106.319 107.833 106.448C107.699 106.579 107.54 106.683 107.365 106.751C107.19 106.82 107.004 106.854 106.816 106.85H106.048V108.225H105.193V104.039H106.782ZM106.782 106.081C106.864 106.084 106.946 106.069 107.021 106.037C107.097 106.004 107.164 105.955 107.218 105.893C107.277 105.835 107.323 105.766 107.354 105.69C107.385 105.613 107.399 105.531 107.397 105.449C107.4 105.364 107.386 105.279 107.355 105.2C107.324 105.12 107.278 105.048 107.218 104.988C107.162 104.928 107.095 104.881 107.02 104.85C106.944 104.819 106.863 104.805 106.782 104.808H106.048V106.081H106.782Z" fill="white"/>
<path d="M110.412 104.039C110.68 104.034 110.947 104.086 111.194 104.19C111.441 104.294 111.663 104.45 111.847 104.646C112.219 105.051 112.426 105.582 112.426 106.132C112.426 106.683 112.219 107.213 111.847 107.618C111.665 107.816 111.443 107.973 111.195 108.077C110.947 108.182 110.68 108.232 110.412 108.225H108.746V104.039H110.412ZM110.412 107.456C110.572 107.458 110.731 107.426 110.878 107.363C111.025 107.3 111.157 107.206 111.266 107.089C111.487 106.826 111.608 106.493 111.608 106.149C111.608 105.805 111.487 105.473 111.266 105.21C111.155 105.095 111.023 105.004 110.876 104.942C110.729 104.88 110.571 104.849 110.412 104.851H109.558V107.456H110.412Z" fill="white"/>
<path d="M115.511 104.833H113.802V105.824H115.434V106.61H113.837V108.224H112.982V104.039H115.511V104.833Z" fill="white"/>
<path d="M132.167 121.729H126.555C126.329 121.729 126.112 121.639 125.951 121.479C125.791 121.319 125.701 121.101 125.701 120.875C125.701 120.648 125.791 120.431 125.951 120.271C126.112 120.111 126.329 120.021 126.555 120.021H132.167C132.394 120.021 132.611 119.931 132.771 119.771C132.932 119.61 133.021 119.393 133.021 119.167V90.979C133.021 90.7525 132.932 90.5352 132.771 90.375C132.611 90.2148 132.394 90.1249 132.167 90.1249H119.705L111.667 98.1626V102.083C111.667 102.31 111.577 102.527 111.417 102.687C111.257 102.847 111.04 102.937 110.813 102.937C110.587 102.937 110.369 102.847 110.209 102.687C110.049 102.527 109.959 102.31 109.959 102.083V97.8124C109.958 97.6999 109.98 97.5885 110.022 97.4844C110.065 97.3804 110.128 97.2857 110.207 97.2059L118.748 88.6642C118.828 88.5851 118.923 88.5224 119.027 88.4799C119.131 88.4374 119.242 88.4159 119.355 88.4165H132.167C132.847 88.4165 133.499 88.6865 133.979 89.1671C134.46 89.6476 134.73 90.2994 134.73 90.979V119.167C134.73 119.846 134.46 120.498 133.979 120.978C133.499 121.459 132.847 121.729 132.167 121.729Z" fill="white"/>
<path d="M124.113 121.729H112.521C111.842 121.729 111.19 121.459 110.71 120.978C110.229 120.498 109.959 119.846 109.959 119.166V110.625C109.959 110.398 110.049 110.181 110.209 110.021C110.369 109.86 110.587 109.771 110.813 109.771C111.04 109.771 111.257 109.86 111.417 110.021C111.577 110.181 111.667 110.398 111.667 110.625V119.166C111.667 119.393 111.757 119.61 111.917 119.77C112.078 119.931 112.295 120.021 112.521 120.021H124.113C124.339 120.021 124.556 120.11 124.717 120.271C124.877 120.431 124.967 120.648 124.967 120.875C124.967 121.101 124.877 121.318 124.717 121.479C124.556 121.639 124.339 121.729 124.113 121.729Z" fill="white"/>
<path d="M125.334 123.438C125.198 123.437 125.065 123.404 124.945 123.342C124.824 123.279 124.721 123.189 124.642 123.079L120.371 117.1C120.28 116.972 120.226 116.822 120.215 116.666C120.204 116.51 120.236 116.354 120.307 116.214C120.378 116.075 120.487 115.958 120.62 115.876C120.753 115.794 120.907 115.751 121.063 115.75H121.917V111.479C121.917 111.253 122.007 111.035 122.167 110.875C122.328 110.715 122.545 110.625 122.771 110.625H127.896C128.123 110.625 128.34 110.715 128.5 110.875C128.661 111.035 128.751 111.253 128.751 111.479V115.75H129.605C129.761 115.751 129.915 115.794 130.048 115.876C130.181 115.958 130.29 116.075 130.361 116.214C130.432 116.354 130.464 116.51 130.453 116.666C130.441 116.822 130.387 116.972 130.297 117.1L126.026 123.079C125.947 123.189 125.843 123.279 125.723 123.342C125.603 123.404 125.469 123.437 125.334 123.438ZM122.72 117.458L125.334 121.114L127.948 117.458H127.896C127.67 117.458 127.453 117.368 127.292 117.208C127.132 117.048 127.042 116.831 127.042 116.604V112.333H123.626V116.604C123.626 116.831 123.536 117.048 123.375 117.208C123.215 117.368 122.998 117.458 122.771 117.458H122.72Z" fill="white"/>
<defs>
<filter id="filter0_d_1_3" x="0" y="0" width="245" height="245" filterUnits="userSpaceOnUse" color-interpolation-filters="sRGB">
<feFlood flood-opacity="0" result="BackgroundImageFix"/>
<feColorMatrix in="SourceAlpha" type="matrix" values="0 0 0 0 0 0 0 0 0 0 0 0 0 0 0 0 0 0 127 0" result="hardAlpha"/>
<feOffset dy="17"/>
<feGaussianBlur stdDeviation="45.5"/>
<feComposite in2="hardAlpha" operator="out"/>
<feColorMatrix type="matrix" values="0 0 0 0 0.282353 0 0 0 0 0.490196 0 0 0 0 0.968627 0 0 0 0.6 0"/>
<feBlend mode="normal" in2="BackgroundImageFix" result="effect1_dropShadow_1_3"/>
<feBlend mode="normal" in="SourceGraphic" in2="effect1_dropShadow_1_3" result="shape"/>
</filter>
<radialGradient id="paint0_radial_1_3" cx="0" cy="0" r="1" gradientUnits="userSpaceOnUse" gradientTransform="translate(111 59) rotate(73.9557) scale(79.6006 55.8272)">
<stop stop-color="#61CDFF"/>
<stop offset="1" stop-color="#305BF3"/>
</radialGradient>
<linearGradient id="paint1_linear_1_3" x1="123.624" y1="117" x2="123.624" y2="135.95" gradientUnits="userSpaceOnUse">
<stop stop-color="#59B3FD"/>
<stop offset="1" stop-color="#59B3FD" stop-opacity="0"/>
</linearGradient>
<linearGradient id="paint2_linear_1_3" x1="122" y1="92.5" x2="122" y2="83" gradientUnits="userSpaceOnUse">
<stop stop-color="#E7F5FC" stop-opacity="0"/>
<stop offset="1" stop-color="#39FEFE"/>
</linearGradient>
</defs>
</svg>
