<svg width="120" height="134" viewBox="0 0 120 134" fill="none" xmlns="http://www.w3.org/2000/svg">
<path d="M103.365 130.175L102.743 130.806L53.5419 82.1023L53.1422 81.7026L52.6448 81.2141L52.2539 80.8232L23.7585 52.6209L22.8613 51.7327H24.1227L25.0198 52.6209L52.2539 79.5797L53.1422 80.4591L53.9061 81.2141L54.8032 82.1023L103.365 130.175Z" fill="#3AB9DC"/>
<path d="M102.759 133.319L18.543 49.9561H24.8496L105.877 130.157L102.759 133.319Z" fill="#3AB9DC"/>
<path d="M118.788 120H59.9708L0 59.5657V59.394H29.5062H59.0124L60.0506 60.4511L60.938 61.3456L118.788 120Z" fill="#3AB8DB"/>
<path d="M120 29.697C120 46.0772 106.742 59.3939 90.4532 59.3939H59.3424L0 0H90.4532C106.742 0 120 13.3257 120 29.697Z" fill="#1FD176"/>
</svg>
