<?xml version="1.0" encoding="utf-8"?>
<!-- Generator: Adobe Illustrator 28.0.0, SVG Export Plug-In . SVG Version: 6.00 Build 0)  -->
<svg version="1.1" id="Layer_1" xmlns="http://www.w3.org/2000/svg" xmlns:xlink="http://www.w3.org/1999/xlink" x="0px" y="0px"
	 viewBox="0 0 20 20" style="enable-background:new 0 0 20 20;" xml:space="preserve">
<style type="text/css">
	.st0{fill:#FFFFFF;}
</style>
<path class="st0" d="M1.2,6.3h3.7v12.5H1.2V6.3z M3,4.9L3,4.9C1.9,4.9,1.2,4,1.2,3c0-1,0.7-1.8,1.8-1.8C4.2,1.2,4.8,2,4.9,3
	C4.9,4,4.2,4.9,3,4.9z M18.8,18.8h-3.7v-6.7c0-1.6-0.9-2.7-2.3-2.7c-1.1,0-1.7,0.7-2,1.5c-0.1,0.3-0.1,1-0.1,1.3v6.6H7.1V6.3h3.7
	v1.9c0.5-0.8,1.4-1.9,3.5-1.9c2.6,0,4.6,1.7,4.6,5.3L18.8,18.8z"/>
</svg>
