<svg width="236" height="90" viewBox="0 0 236 90" fill="none" xmlns="http://www.w3.org/2000/svg">
<path d="M93.5605 39.4151V15.5405H103.867C105.642 15.5405 107.189 15.8643 108.52 16.5058C109.851 17.1534 110.882 18.0767 111.619 19.2938C112.357 20.5049 112.729 21.9618 112.729 23.6526C112.729 25.3434 112.351 26.8063 111.589 27.9755C110.828 29.1446 109.773 30.032 108.406 30.6315C107.039 31.2311 105.45 31.5309 103.633 31.5309H97.4757V26.4945H102.326C103.088 26.4945 103.741 26.3986 104.281 26.2068C104.82 26.0149 105.234 25.7091 105.528 25.2894C105.822 24.8697 105.966 24.3241 105.966 23.6466C105.966 22.9691 105.822 22.4055 105.528 21.9738C105.234 21.5422 104.82 21.2244 104.281 21.0205C103.741 20.8167 103.088 20.7148 102.326 20.7148H100.042V39.4151H93.5605ZM107.548 28.4551L113.52 39.4151H106.481L100.653 28.4551H107.554H107.548Z" fill="white"/>
<path d="M128.239 39.4151H121.242L129.12 15.5405H137.982L145.86 39.4151H138.863L133.641 22.1177H133.455L128.233 39.4151H128.239ZM126.932 29.996H140.08V34.8465H126.932V29.996Z" fill="white"/>
<path d="M154.805 39.4151V35.8237L166.088 20.7627H154.853V15.5405H174.344V19.1319L163.061 34.1929H174.296V39.4151H154.805Z" fill="white"/>
<path d="M206.092 27.4779C206.092 30.1339 205.577 32.3763 204.539 34.199C203.508 36.0216 202.111 37.4006 200.354 38.3359C198.598 39.2713 196.637 39.7389 194.479 39.7389C192.32 39.7389 190.336 39.2653 188.585 38.324C186.834 37.3826 185.443 35.9977 184.412 34.175C183.381 32.3523 182.865 30.1219 182.865 27.4779C182.865 24.8338 183.381 22.5794 184.412 20.7568C185.443 18.9341 186.834 17.5551 188.585 16.6198C190.336 15.6845 192.302 15.2168 194.479 15.2168C196.655 15.2168 198.598 15.6845 200.354 16.6198C202.111 17.5551 203.508 18.9341 204.539 20.7568C205.571 22.5794 206.092 24.8218 206.092 27.4779ZM199.425 27.4779C199.425 26.0509 199.239 24.8398 198.862 23.8565C198.484 22.8732 197.932 22.1298 197.195 21.6201C196.463 21.1105 195.558 20.8587 194.485 20.8587C193.412 20.8587 192.506 21.1105 191.775 21.6201C191.043 22.1298 190.486 22.8732 190.108 23.8565C189.73 24.8398 189.544 26.0449 189.544 27.4779C189.544 28.9108 189.73 30.1159 190.108 31.0992C190.486 32.0825 191.043 32.826 191.775 33.3356C192.506 33.8452 193.412 34.097 194.485 34.097C195.558 34.097 196.457 33.8452 197.195 33.3356C197.932 32.826 198.484 32.0825 198.862 31.0992C199.239 30.1159 199.425 28.9108 199.425 27.4779Z" fill="white"/>
<path d="M215.639 39.4151V15.5405H225.945C227.72 15.5405 229.267 15.8643 230.598 16.5058C231.929 17.1534 232.96 18.0767 233.698 19.2938C234.435 20.5049 234.807 21.9618 234.807 23.6526C234.807 25.3434 234.429 26.8063 233.668 27.9755C232.906 29.1446 231.851 30.032 230.484 30.6315C229.123 31.2311 227.528 31.5309 225.711 31.5309H219.554V26.4945H224.404C225.166 26.4945 225.819 26.3986 226.359 26.2068C226.898 26.0149 227.312 25.7091 227.606 25.2894C227.9 24.8697 228.044 24.3241 228.044 23.6466C228.044 22.9691 227.9 22.4055 227.606 21.9738C227.312 21.5422 226.898 21.2244 226.359 21.0205C225.819 20.8167 225.166 20.7148 224.404 20.7148H222.12V39.4151H215.639ZM229.626 28.4551L235.598 39.4151H228.559L222.731 28.4551H229.632H229.626Z" fill="white"/>
<path d="M94.4121 47.5693H98.8789L101.955 55.0579H102.11L105.186 47.5693H109.653V60.7957H106.14V53.1513H106.038L103.094 60.6938H100.977L98.0335 53.0973H97.9315V60.7957H94.4181V47.5693H94.4121Z" fill="white"/>
<path d="M123.209 60.7957H119.336L123.701 47.5693H128.611L132.976 60.7957H129.103L126.207 51.2147H126.105L123.209 60.7957ZM122.49 55.5795H129.774V58.2655H122.49V55.5795Z" fill="white"/>
<path d="M142.658 60.7957V47.5693H148.366C149.349 47.5693 150.207 47.7492 150.944 48.103C151.682 48.4627 152.251 48.9723 152.665 49.6438C153.073 50.3153 153.276 51.1188 153.276 52.0601C153.276 53.0014 153.067 53.8048 152.647 54.4583C152.227 55.1058 151.64 55.5975 150.884 55.9332C150.129 56.263 149.247 56.4309 148.24 56.4309H144.829V53.6429H147.515C147.934 53.6429 148.294 53.589 148.594 53.487C148.894 53.3791 149.121 53.2112 149.283 52.9774C149.445 52.7436 149.523 52.4438 149.523 52.0661C149.523 51.6883 149.445 51.3766 149.283 51.1427C149.121 50.9029 148.894 50.729 148.594 50.6151C148.294 50.5012 147.934 50.4412 147.515 50.4412H146.25V60.8017H142.658V60.7957ZM150.405 54.7281L153.708 60.7957H149.805L146.579 54.7281H150.405Z" fill="white"/>
<path d="M163.217 60.7957V47.5693H166.808V52.9174H166.988L170.963 47.5693H175.148L170.681 53.457L175.25 60.7897H170.963L167.995 55.8313L166.808 57.3782V60.7897H163.217V60.7957Z" fill="white"/>
<path d="M184.627 60.7957V47.5693H194.16V50.4652H188.218V52.7376H193.668V55.6335H188.218V57.9058H194.136V60.8017H184.633L184.627 60.7957Z" fill="white"/>
<path d="M204 50.4652V47.5693H215.494V50.4652H211.519V60.7957H207.981V50.4652H204.006H204Z" fill="white"/>
<path d="M232.383 51.7064C232.347 51.2747 232.191 50.9389 231.903 50.6991C231.615 50.4593 231.183 50.3394 230.602 50.3394C230.23 50.3394 229.93 50.3813 229.696 50.4713C229.463 50.5612 229.289 50.6811 229.175 50.831C229.061 50.9809 229.007 51.1548 229.001 51.3466C228.995 51.5085 229.019 51.6464 229.091 51.7783C229.163 51.9102 229.265 52.0182 229.409 52.1201C229.553 52.222 229.744 52.3119 229.972 52.3959C230.2 52.4798 230.47 52.5518 230.788 52.6177L231.873 52.8515C232.604 53.0074 233.234 53.2113 233.75 53.4631C234.271 53.7149 234.697 54.0147 235.027 54.3565C235.356 54.6982 235.602 55.0819 235.758 55.5076C235.914 55.9333 235.998 56.401 235.998 56.9046C235.998 57.774 235.776 58.5114 235.344 59.111C234.913 59.7105 234.301 60.1722 233.504 60.484C232.706 60.7958 231.747 60.9576 230.626 60.9576C229.505 60.9576 228.473 60.7898 227.622 60.448C226.765 60.1063 226.105 59.5846 225.631 58.8772C225.158 58.1697 224.924 57.2643 224.918 56.1551H228.329C228.353 56.5628 228.455 56.8986 228.635 57.1744C228.815 57.4502 229.073 57.66 229.403 57.7979C229.732 57.9418 230.122 58.0138 230.578 58.0138C230.962 58.0138 231.279 57.9658 231.543 57.8699C231.801 57.774 231.999 57.6421 232.131 57.4742C232.263 57.3063 232.335 57.1144 232.335 56.8986C232.335 56.6947 232.263 56.5209 232.137 56.365C232.011 56.2091 231.801 56.0772 231.513 55.9513C231.225 55.8314 230.836 55.7115 230.344 55.6035L229.025 55.3217C227.856 55.0699 226.932 54.6442 226.261 54.0447C225.589 53.4451 225.254 52.6357 225.26 51.5985C225.26 50.7591 225.482 50.0216 225.931 49.3921C226.381 48.7625 227.016 48.2709 227.826 47.9171C228.635 47.5634 229.559 47.3895 230.608 47.3895C231.657 47.3895 232.598 47.5694 233.378 47.9231C234.157 48.2829 234.757 48.7805 235.182 49.428C235.608 50.0756 235.818 50.831 235.824 51.7004H232.389L232.383 51.7064Z" fill="white"/>
<path d="M69.772 87.866L69.3523 88.2917L36.1425 55.4176L35.8727 55.1478L35.5369 54.8181L35.2731 54.5543L16.0392 35.5181L15.4336 34.9186H16.285L16.8905 35.5181L35.2731 53.7149L35.8727 54.3084L36.3883 54.8181L36.9939 55.4176L69.772 87.866Z" fill="#3AB9DC"/>
<path d="M69.3641 89.9885L12.5195 33.7195H16.7764L71.4686 87.854L69.3641 89.9885Z" fill="#3AB9DC"/>
<path d="M80.2575 80.6893H40.5185L0 40.5845V40.4706H19.9355H39.8709L40.5724 41.1721L41.172 41.7656L80.2575 80.6893Z" fill="#3AB8DB"/>
<path d="M81.0431 19.9355C81.0431 30.9315 72.0976 39.8709 61.1077 39.8709H40.117L0.078125 0H61.1077C72.0976 0 81.0431 8.94548 81.0431 19.9355Z" fill="#1FD176"/>
</svg>
