<?xml version="1.0" encoding="utf-8"?>
<!-- Generator: Adobe Illustrator 28.0.0, SVG Export Plug-In . SVG Version: 6.00 Build 0)  -->
<svg version="1.1" id="Layer_1" xmlns="http://www.w3.org/2000/svg" xmlns:xlink="http://www.w3.org/1999/xlink" x="0px" y="0px"
	 viewBox="0 0 245 245" style="enable-background:new 0 0 245 245;" xml:space="preserve">
<style type="text/css">
	.st0{fill:url(#SVGID_1_);}
	.st1{fill:#5285F7;fill-opacity:0.72;}
	.st2{fill:url(#SVGID_00000088107010191191054570000005112498112650245029_);fill-opacity:0.2;}
	.st3{fill:url(#SVGID_00000096741153347140558580000011355561379819145146_);fill-opacity:0.2;}
	.st4{fill:#FFFFFF;}
</style>
<g>
	
		<radialGradient id="SVGID_1_" cx="-172.1089" cy="545.4156" r="3.5679" gradientTransform="matrix(22 76.5 53.6526 -15.4295 -25395.1152 21540.4785)" gradientUnits="userSpaceOnUse">
		<stop  offset="0" style="stop-color:#61CDFF"/>
		<stop  offset="1" style="stop-color:#305BF3"/>
	</radialGradient>
	<circle class="st0" cx="122.5" cy="124.5" r="112.4"/>
	<path class="st1" d="M116.2,130.5c-48.3,41.8-90.8,11.2-106.1-9.3c0-41,65.8-134.2,142.6-102.5c61.4,25.4,75.6,78.9,75,102.5
		C210.7,106.9,164.5,88.7,116.2,130.5z"/>
	
		<linearGradient id="SVGID_00000120560757363523371220000017177628507877656710_" gradientUnits="userSpaceOnUse" x1="126.5123" y1="80.3196" x2="126.5123" y2="12.7073" gradientTransform="matrix(1 0 0 -1 0 245.8898)">
		<stop  offset="0" style="stop-color:#59B3FD"/>
		<stop  offset="1" style="stop-color:#59B3FD;stop-opacity:0"/>
	</linearGradient>
	<path style="fill:url(#SVGID_00000120560757363523371220000017177628507877656710_);fill-opacity:0.2;" d="M207.2,188.3
		c-24.3,40-74.3,46.4-96.3,44.6c-17.1,0.5-41.6-12.3-53.5-21.4c-11.3-5.9-26-26.8,19.6-41C122.7,156.2,182.9,176.4,207.2,188.3z"/>
	
		<linearGradient id="SVGID_00000098909823726566640540000005147769892036240788_" gradientUnits="userSpaceOnUse" x1="120.716" y1="167.7343" x2="120.716" y2="201.6297" gradientTransform="matrix(1 0 0 -1 0 245.8898)">
		<stop  offset="0" style="stop-color:#E7F5FC;stop-opacity:0"/>
		<stop  offset="1" style="stop-color:#39FEFE"/>
	</linearGradient>
	
		<ellipse style="fill:url(#SVGID_00000098909823726566640540000005147769892036240788_);fill-opacity:0.2;" cx="120.7" cy="58.5" rx="64.2" ry="42.8"/>
</g>
<path class="st4" d="M93.2,169.1h-18c-2.6,0-4.8-1.7-4.8-3.8v-29.2c0-2.1,2.2-3.8,4.8-3.8h18c2.6,0,4.8,1.7,4.8,3.8v29.2
	C98,167.4,95.9,169.1,93.2,169.1z"/>
<path class="st4" d="M132.4,169.1h-16.2c-3.1,0-5.6-2-5.6-4.5v-42.2c0-2.4,2.5-4.5,5.6-4.5h16.2c3.1,0,5.6,2,5.6,4.5v42.2
	C138,167.1,135.5,169.1,132.4,169.1z"/>
<path class="st4" d="M171.8,169.1H157c-3.5,0-6.3-2.3-6.3-5V109c0-2.8,2.9-5,6.3-5h14.8c3.5,0,6.3,2.3,6.3,5v55.1
	C178.1,166.9,175.3,169.1,171.8,169.1z"/>
<path class="st4" d="M174,62.1c-5.8,0.2-10.3,4.1-10,8.7l-26.7,20.9l-22.8-15.8l-41.7,33.2c-5.4,0.5-9.4,4.2-9.2,8.6
	c0.2,4.6,5.2,8.2,10.9,8c5.8-0.2,10.3-4.1,10-8.7c0-0.4-0.1-0.7-0.2-1.1l31.4-23.9l22,15.3l36.5-28.5c0.2,0,0.4,0,0.6,0
	c5.8-0.2,10.3-4.1,10-8.7C184.7,65.5,179.8,61.9,174,62.1z"/>
</svg>
