<?xml version="1.0" encoding="utf-8"?>
<!-- Generator: Adobe Illustrator 28.0.0, SVG Export Plug-In . SVG Version: 6.00 Build 0)  -->
<svg version="1.1" id="Layer_1" xmlns="http://www.w3.org/2000/svg" xmlns:xlink="http://www.w3.org/1999/xlink" x="0px" y="0px"
	 viewBox="0 0 245 245" style="enable-background:new 0 0 245 245;" xml:space="preserve">
<style type="text/css">
	.st0{fill:url(#SVGID_1_);}
	.st1{fill:#5285F7;fill-opacity:0.72;}
	.st2{fill:url(#SVGID_00000072961155003014627230000016368175373199916691_);fill-opacity:0.2;}
	.st3{fill:url(#SVGID_00000116925947449622939070000006069444130939077258_);fill-opacity:0.2;}
	.st4{fill:#FFFFFF;}
</style>
<g>
	
		<radialGradient id="SVGID_1_" cx="-172.1891" cy="545.4367" r="3.6632" gradientTransform="matrix(22 76.5 53.6526 -15.4295 -25395.1152 21540.4785)" gradientUnits="userSpaceOnUse">
		<stop  offset="0" style="stop-color:#61CDFF"/>
		<stop  offset="1" style="stop-color:#305BF3"/>
	</radialGradient>
	<circle class="st0" cx="123" cy="122.5" r="115.4"/>
	<path class="st1" d="M116.5,128.6C66.9,171.5,23.2,140.1,7.6,119C7.6,76.9,75.2-18.8,154,13.7c63.1,26,77.6,81,77,105.3
		C213.5,104.3,166,85.7,116.5,128.6z"/>
	
		<linearGradient id="SVGID_00000054950367735706099230000015778500493458067329_" gradientUnits="userSpaceOnUse" x1="127.0773" y1="81.2629" x2="127.0773" y2="11.8458" gradientTransform="matrix(1 0 0 -1 0 245.8898)">
		<stop  offset="0" style="stop-color:#59B3FD"/>
		<stop  offset="1" style="stop-color:#59B3FD;stop-opacity:0"/>
	</linearGradient>
	<path style="fill:url(#SVGID_00000054950367735706099230000015778500493458067329_);fill-opacity:0.2;" d="M210,188
		c-24.9,41-76.3,47.6-98.9,45.8c-17.6,0.5-42.7-12.6-54.9-22c-11.6-6.1-26.7-27.5,20.1-42.1C123.1,155,184.9,175.8,210,188z"/>
	
		<linearGradient id="SVGID_00000145770589804426019860000011631584114629404049_" gradientUnits="userSpaceOnUse" x1="121.1263" y1="171.0109" x2="121.1263" y2="205.811" gradientTransform="matrix(1 0 0 -1 0 245.8898)">
		<stop  offset="0" style="stop-color:#E7F5FC;stop-opacity:0"/>
		<stop  offset="1" style="stop-color:#39FEFE"/>
	</linearGradient>
	
		<ellipse style="fill:url(#SVGID_00000145770589804426019860000011631584114629404049_);fill-opacity:0.2;" cx="121.1" cy="54.7" rx="65.9" ry="44"/>
</g>
<g>
	<g>
		<path class="st4" d="M149.6,161.1c-0.5,0.8-1.1,1.5-2,2c-0.8,0.5-1.8,0.7-2.7,0.7H102c-1,0-1.9-0.3-2.8-0.7c-0.8-0.5-1.5-1.2-2-2
			c-0.5-0.8-0.7-1.7-0.7-2.6c0-0.9,0.2-1.8,0.7-2.6l21.4-31.3c0.5-0.7,1.2-1.3,1.9-1.7c0.8-0.4,1.6-0.6,2.5-0.6
			c0.9,0,1.7,0.2,2.5,0.6c0.8,0.4,1.4,1,1.9,1.7l21.4,31.3c0.6,0.7,0.9,1.6,1,2.5C150.1,159.4,150,160.3,149.6,161.1z"/>
	</g>
	<g>
		<path class="st4" d="M166.3,143h-10.7v-10.4h10.7V90.8H80.6v41.8h10.7V143H80.6c-2.8,0-5.6-1.1-7.6-3.1c-2-2-3.1-4.6-3.1-7.4V90.8
			c0-2.8,1.1-5.4,3.1-7.4c2-2,4.7-3.1,7.6-3.1h85.7c2.8,0,5.6,1.1,7.6,3.1c2,2,3.1,4.6,3.1,7.4v41.8c0,2.8-1.1,5.4-3.1,7.4
			C171.8,141.9,169.1,143,166.3,143z"/>
	</g>
</g>
</svg>
