<?xml version="1.0" encoding="utf-8"?>
<!-- Generator: Adobe Illustrator 28.0.0, SVG Export Plug-In . SVG Version: 6.00 Build 0)  -->
<svg version="1.1" id="Layer_1" xmlns="http://www.w3.org/2000/svg" xmlns:xlink="http://www.w3.org/1999/xlink" x="0px" y="0px"
	 viewBox="0 0 247 309" style="enable-background:new 0 0 247 309;" xml:space="preserve">
<style type="text/css">
	.st0{fill:url(#SVGID_1_);}
</style>
<linearGradient id="SVGID_1_" gradientUnits="userSpaceOnUse" x1="123.0281" y1="358.9435" x2="124.3251" y2="-33.2414" gradientTransform="matrix(1 0 0 -1 0 309.8898)">
	<stop  offset="0" style="stop-color:#FAFAFA;stop-opacity:0.7"/>
	<stop  offset="1" style="stop-color:#4674A5"/>
</linearGradient>
<path class="st0" d="M100.3,200.9h46.3l-8.9-49.8c5.1-2.6,9.2-6.3,12.2-11.2c3-4.9,4.4-10.3,4.4-16.2c0-8.5-3-15.8-9.1-21.8
	c-6-6.1-13.3-9.1-21.8-9.1s-15.8,3-21.8,9.1c-6,6.1-9.1,13.3-9.1,21.8c0,5.9,1.5,11.3,4.4,16.2c3,4.9,7,8.6,12.2,11.2L100.3,200.9z
	 M123.5,309c-35.8-9-65.3-29.5-88.6-61.6S0,179.7,0,140.6V46.3L123.5,0L247,46.3v94.2c0,39.1-11.6,74.7-34.9,106.8
	S159.3,300,123.5,309z M123.5,276.6c26.8-8.5,48.9-25.5,66.4-51c17.5-25.5,26.2-53.8,26.2-85v-73l-92.6-34.8L30.9,67.6v73
	c0,31.2,8.7,59.5,26.2,85C74.6,251.1,96.7,268.1,123.5,276.6z"/>
</svg>
