<svg width="15" height="13" viewBox="0 0 15 13" fill="none" xmlns="http://www.w3.org/2000/svg">
<path d="M14.189 0.279041C14.0243 0.140683 13.825 0.049781 13.6126 0.016088C13.4001 -0.0176051 13.1825 0.00718259 12.9831 0.0877914L0.812142 4.95935C0.634724 5.03305 0.483118 5.15766 0.376464 5.31745C0.269811 5.47724 0.212891 5.66505 0.212891 5.85717C0.212891 6.04928 0.269811 6.23709 0.376464 6.39688C0.483118 6.55667 0.634724 6.68128 0.812142 6.75498L1.59839 7.07904C1.72803 7.13388 1.87413 7.13503 2.00461 7.08224C2.1351 7.02945 2.2393 6.92703 2.29433 6.79748C2.32133 6.73296 2.33532 6.66375 2.33551 6.59382C2.3357 6.52388 2.32207 6.45459 2.29542 6.38994C2.26876 6.32528 2.22961 6.26652 2.18019 6.21703C2.13078 6.16754 2.07207 6.12829 2.00745 6.10154L1.42308 5.86248L13.3815 1.08123C13.3999 1.06996 13.421 1.06399 13.4426 1.06399C13.4642 1.06399 13.4853 1.06996 13.5037 1.08123C13.521 1.09595 13.5341 1.11505 13.5416 1.13653C13.5491 1.15802 13.5507 1.18111 13.5462 1.20342L11.3628 11.3928C11.3556 11.4291 11.3391 11.4629 11.3149 11.4908C11.2906 11.5188 11.2595 11.5399 11.2246 11.5522C11.1904 11.5658 11.1531 11.57 11.1167 11.5644C11.0803 11.5588 11.046 11.5435 11.0175 11.5203L6.76745 8.20529L10.9271 4.0031C11.016 3.91091 11.0686 3.78973 11.0752 3.66185C11.0818 3.53398 11.042 3.40802 10.9631 3.30716C10.8842 3.2063 10.7716 3.13732 10.6459 3.11292C10.5202 3.08851 10.3899 3.11033 10.279 3.17435L4.18027 6.78685C4.11253 6.81747 4.05197 6.86196 4.00251 6.91744C3.95304 6.97293 3.91577 7.03818 3.8931 7.10897C3.87044 7.17977 3.86288 7.25453 3.87092 7.32843C3.87896 7.40233 3.90242 7.47371 3.93979 7.53798C3.97715 7.60224 4.02758 7.65795 4.08782 7.70149C4.14806 7.74504 4.21677 7.77547 4.28951 7.79079C4.36225 7.80612 4.43739 7.80601 4.51008 7.79048C4.58278 7.77494 4.6514 7.74432 4.71152 7.7006L7.27745 6.18654L6.02902 7.45623C5.91481 7.56354 5.82575 7.69478 5.76822 7.84056C5.7107 7.98633 5.68614 8.14303 5.69629 8.29941C5.70645 8.45579 5.75107 8.60799 5.82696 8.7451C5.90285 8.88222 6.00814 9.00084 6.13527 9.09248L10.3853 12.3597C10.609 12.5323 10.8836 12.6257 11.1662 12.6253C11.3167 12.6242 11.4658 12.5972 11.6071 12.5456C11.8101 12.4728 11.9909 12.349 12.1323 12.1862C12.2737 12.0234 12.3709 11.8271 12.4146 11.6159L14.5821 1.43717C14.6281 1.22663 14.6159 1.00752 14.5466 0.803451C14.4773 0.599379 14.3537 0.418068 14.189 0.279041Z" fill="white"/>
</svg>
