<?xml version="1.0" encoding="utf-8"?>
<!-- Generator: Adobe Illustrator 28.0.0, SVG Export Plug-In . SVG Version: 6.00 Build 0)  -->
<svg version="1.1" id="Layer_1" xmlns="http://www.w3.org/2000/svg" xmlns:xlink="http://www.w3.org/1999/xlink" x="0px" y="0px"
	 viewBox="0 0 1684 251" style="enable-background:new 0 0 1684 251;" xml:space="preserve">
<style type="text/css">
	.st0{opacity:0.56;fill:url(#SVGID_1_);enable-background:new    ;}
	.st1{fill:none;stroke:#6FBAFC;stroke-width:2.5;}
	.st2{fill:none;stroke:#D06776;stroke-width:2.5;}
	.st3{fill:none;stroke:url(#SVGID_00000022545987755985361460000016459302092929655696_);stroke-width:2.5;stroke-opacity:0.3;}
	.st4{fill:none;stroke:url(#SVGID_00000052080253053056564150000003143919456874268314_);stroke-width:2.5;stroke-opacity:0.3;}
	.st5{fill:none;stroke:url(#SVGID_00000095300346237388826590000003226806150434632847_);stroke-width:2.5;}
	.st6{fill:none;stroke:url(#SVGID_00000116934869460040882780000000559623049006131900_);stroke-width:2.5;}
</style>
<linearGradient id="SVGID_1_" gradientUnits="userSpaceOnUse" x1="1275.101" y1="219.581" x2="1275.101" y2="10.4476" gradientTransform="matrix(-1 0 0 -1 1645.3291 252)">
	<stop  offset="0" style="stop-color:#3AB8DB"/>
	<stop  offset="0.516" style="stop-color:#1EE981"/>
	<stop  offset="1" style="stop-color:#0A0C10"/>
</linearGradient>
<rect x="324.7" y="32.4" class="st0" width="91.1" height="209.1"/>
<circle class="st1" cx="371.3" cy="120.4" r="14.2"/>
<circle class="st2" cx="373.3" cy="176.3" r="14.2"/>
<linearGradient id="SVGID_00000008855340337209413210000010279116179292519562_" gradientUnits="userSpaceOnUse" x1="1287.62" y1="139.88" x2="1683.3409" y2="139.88" gradientTransform="matrix(-1 0 0 1 1645.3291 0)">
	<stop  offset="0" style="stop-color:#9C9C9C"/>
	<stop  offset="0.3242" style="stop-color:#9E9E9E;stop-opacity:0.6758"/>
	<stop  offset="0.5066" style="stop-color:#A7A7A7;stop-opacity:0.4934"/>
	<stop  offset="0.6538" style="stop-color:#B4B4B4;stop-opacity:0.3462"/>
	<stop  offset="0.7823" style="stop-color:#C8C8C8;stop-opacity:0.2177"/>
	<stop  offset="0.8973" style="stop-color:#E1E1E1;stop-opacity:0.1027"/>
	<stop  offset="1" style="stop-color:#FFFFFF;stop-opacity:0"/>
</linearGradient>
<path style="fill:none;stroke:url(#SVGID_00000008855340337209413210000010279116179292519562_);stroke-width:2.5;stroke-opacity:0.3;" d="
	M-37.7,144.1c35.2,9.7,121.3,23.2,184.3,0c62.9-23.2,168.3-22.5,211-20.1"/>
<linearGradient id="SVGID_00000103985613507243578190000015531805716796642489_" gradientUnits="userSpaceOnUse" x1="1286.5884" y1="202.5405" x2="1683.2445" y2="202.5405" gradientTransform="matrix(-1 0 0 1 1645.3291 0)">
	<stop  offset="0" style="stop-color:#9C9C9C"/>
	<stop  offset="0.3242" style="stop-color:#9E9E9E;stop-opacity:0.6758"/>
	<stop  offset="0.5066" style="stop-color:#A7A7A7;stop-opacity:0.4934"/>
	<stop  offset="0.6538" style="stop-color:#B4B4B4;stop-opacity:0.3462"/>
	<stop  offset="0.7823" style="stop-color:#C8C8C8;stop-opacity:0.2177"/>
	<stop  offset="0.8973" style="stop-color:#E1E1E1;stop-opacity:0.1027"/>
	<stop  offset="1" style="stop-color:#FFFFFF;stop-opacity:0"/>
</linearGradient>
<path style="fill:none;stroke:url(#SVGID_00000103985613507243578190000015531805716796642489_);stroke-width:2.5;stroke-opacity:0.3;" d="
	M-37.7,194.2c35.2,7,121.2,44.8,184,27.9c62.9-16.9,169.6-45.2,212.3-43.5"/>
<g>
	
		<image style="overflow:visible;opacity:0.7;" width="1333" height="242" xlink:href="69D3EB5C.png"  transform="matrix(1 0 0 1 352 0)">
	</image>
	<g>
		<g>
			
				<linearGradient id="SVGID_00000151536183881708124410000002300756598288640431_" gradientUnits="userSpaceOnUse" x1="-2.8303" y1="120.9637" x2="1257.2029" y2="120.9637" gradientTransform="matrix(-1 0 0 1 1645.3291 0)">
				<stop  offset="0" style="stop-color:#FFFFFF;stop-opacity:0"/>
				<stop  offset="3.566319e-02" style="stop-color:#F9ECEE;stop-opacity:3.566319e-02"/>
				<stop  offset="0.1138" style="stop-color:#EEC9CF;stop-opacity:0.1138"/>
				<stop  offset="0.1999" style="stop-color:#E5ABB4;stop-opacity:0.1999"/>
				<stop  offset="0.2942" style="stop-color:#DD939E;stop-opacity:0.2942"/>
				<stop  offset="0.4001" style="stop-color:#D7808D;stop-opacity:0.4001"/>
				<stop  offset="0.5241" style="stop-color:#D37381;stop-opacity:0.5241"/>
				<stop  offset="0.6832" style="stop-color:#D16B7A;stop-opacity:0.6832"/>
				<stop  offset="1" style="stop-color:#D06978"/>
			</linearGradient>
			<path style="fill:none;stroke:url(#SVGID_00000151536183881708124410000002300756598288640431_);stroke-width:2.5;" d="
				M388.3,173.9c30.8,5,82.5-74.7,96.9-74.7c14.3,0,30.7,13.4,51.2-8.4c20.5-21.8,51.2-43.6,129.1-52
				c77.9-8.4,170.1,53.6,256.2,108.9c86.1,55.3,139.4-8.4,215.2-35.2c75.8-26.8,180.8-20.8,281.2,44.6
				c100.4,65.4,225.8,42.7,229.9,42.7"/>
		</g>
	</g>
</g>
<g>
	
		<image style="overflow:visible;opacity:0.7;" width="1371" height="230" xlink:href="69D3EB5B.png"  transform="matrix(1 0 0 1 349 0)">
	</image>
	<g>
		<g>
			
				<linearGradient id="SVGID_00000035497325098984448250000002627226349660798090_" gradientUnits="userSpaceOnUse" x1="-38.0222" y1="115.1538" x2="1259.9005" y2="115.1538" gradientTransform="matrix(-1 0 0 1 1645.3291 0)">
				<stop  offset="0" style="stop-color:#FFFFFF;stop-opacity:0"/>
				<stop  offset="1.960838e-02" style="stop-color:#F5FAFF;stop-opacity:1.960838e-02"/>
				<stop  offset="0.1034" style="stop-color:#D2E9FE;stop-opacity:0.1034"/>
				<stop  offset="0.195" style="stop-color:#B3DBFD;stop-opacity:0.195"/>
				<stop  offset="0.2947" style="stop-color:#9ACFFD;stop-opacity:0.2947"/>
				<stop  offset="0.4058" style="stop-color:#87C5FC;stop-opacity:0.4058"/>
				<stop  offset="0.5343" style="stop-color:#79BFFC;stop-opacity:0.5343"/>
				<stop  offset="0.6964" style="stop-color:#71BBFC;stop-opacity:0.6964"/>
				<stop  offset="1" style="stop-color:#6FBAFC"/>
			</linearGradient>
			<path style="fill:none;stroke:url(#SVGID_00000035497325098984448250000002627226349660798090_);stroke-width:2.5;" d="
				M385.7,118.4c11.4-2.9,43.9-14.6,83.1-38.3c49-29.6,80-67.6,173.8,40.3c93.8,107.9,240.3,72,280.9,33.7
				c48.8-46,85.8-52.9,126.3-33.7c40.5,19.1,189.4,28.3,256.5-36.5c70.7-64.2,106.9-62.3,224.2,14.3c93.8,61.2,136.1-25.4,152.4-30"
				/>
		</g>
	</g>
</g>
</svg>
