<?xml version="1.0" encoding="utf-8"?>
<!-- Generator: Adobe Illustrator 28.0.0, SVG Export Plug-In . SVG Version: 6.00 Build 0)  -->
<svg version="1.1" id="Layer_1" xmlns="http://www.w3.org/2000/svg" xmlns:xlink="http://www.w3.org/1999/xlink" x="0px" y="0px"
	 viewBox="0 0 1684 251" style="enable-background:new 0 0 1684 251;" xml:space="preserve">
<style type="text/css">
	.st0{opacity:0.56;fill:url(#SVGID_1_);enable-background:new    ;}
	.st1{fill:none;stroke:#6FBAFC;stroke-width:2.5;}
	.st2{fill:none;stroke:#D06776;stroke-width:2.5;}
	.st3{fill:none;stroke:url(#SVGID_00000048468645340587569260000004751460782145000085_);stroke-width:2.5;stroke-opacity:0.3;}
	.st4{fill:none;stroke:url(#SVGID_00000157285770980732335540000009229301859755061688_);stroke-width:2.5;stroke-opacity:0.3;}
	.st5{fill:none;stroke:url(#SVGID_00000006696899063429866470000004406176917425426816_);stroke-width:2.5;}
	.st6{fill:none;stroke:url(#SVGID_00000067218498687652577170000004545811179464809391_);stroke-width:2.5;}
</style>
<linearGradient id="SVGID_1_" gradientUnits="userSpaceOnUse" x1="1275.101" y1="219.581" x2="1275.101" y2="10.4476" gradientTransform="matrix(1 0 0 -1 0 252)">
	<stop  offset="0" style="stop-color:#3AB8DB"/>
	<stop  offset="0.516" style="stop-color:#1EE981"/>
	<stop  offset="1" style="stop-color:#0A0C10"/>
</linearGradient>
<rect x="1229.5" y="32.4" class="st0" width="91.1" height="209.1"/>
<circle class="st1" cx="1274.1" cy="120.4" r="14.2"/>
<circle class="st2" cx="1272" cy="176.3" r="14.2"/>
<linearGradient id="SVGID_00000124149345939609405160000002214722463776435088_" gradientUnits="userSpaceOnUse" x1="1287.62" y1="139.88" x2="1683.3409" y2="139.88">
	<stop  offset="0" style="stop-color:#9C9C9C"/>
	<stop  offset="0.3242" style="stop-color:#9E9E9E;stop-opacity:0.6758"/>
	<stop  offset="0.5066" style="stop-color:#A7A7A7;stop-opacity:0.4934"/>
	<stop  offset="0.6538" style="stop-color:#B4B4B4;stop-opacity:0.3462"/>
	<stop  offset="0.7823" style="stop-color:#C8C8C8;stop-opacity:0.2177"/>
	<stop  offset="0.8973" style="stop-color:#E1E1E1;stop-opacity:0.1027"/>
	<stop  offset="1" style="stop-color:#FFFFFF;stop-opacity:0"/>
</linearGradient>
<path style="fill:none;stroke:url(#SVGID_00000124149345939609405160000002214722463776435088_);stroke-width:2.5;stroke-opacity:0.3;" d="
	M1287.7,124c42.8-2.4,148.1-3.1,211,20.1c62.9,23.2,149.1,9.7,184.3,0"/>
<linearGradient id="SVGID_00000054261254854408224230000005885542406663208843_" gradientUnits="userSpaceOnUse" x1="1286.5884" y1="202.5405" x2="1683.2445" y2="202.5405">
	<stop  offset="0" style="stop-color:#9C9C9C"/>
	<stop  offset="0.3242" style="stop-color:#9E9E9E;stop-opacity:0.6758"/>
	<stop  offset="0.5066" style="stop-color:#A7A7A7;stop-opacity:0.4934"/>
	<stop  offset="0.6538" style="stop-color:#B4B4B4;stop-opacity:0.3462"/>
	<stop  offset="0.7823" style="stop-color:#C8C8C8;stop-opacity:0.2177"/>
	<stop  offset="0.8973" style="stop-color:#E1E1E1;stop-opacity:0.1027"/>
	<stop  offset="1" style="stop-color:#FFFFFF;stop-opacity:0"/>
</linearGradient>
<path style="fill:none;stroke:url(#SVGID_00000054261254854408224230000005885542406663208843_);stroke-width:2.5;stroke-opacity:0.3;" d="
	M1286.6,178.7c42.7-1.8,149.5,26.6,212.3,43.5s148.9-20.9,184-27.9"/>
<g>
	
		<image style="overflow:visible;opacity:0.7;" width="1333" height="242" xlink:href="83DD1541.png"  transform="matrix(1 0 0 1 -39 0)">
	</image>
	<g>
		<g>
			
				<linearGradient id="SVGID_00000034050115823170939920000013412833122916975287_" gradientUnits="userSpaceOnUse" x1="-2.8303" y1="120.9637" x2="1257.2029" y2="120.9637">
				<stop  offset="0" style="stop-color:#FFFFFF;stop-opacity:0"/>
				<stop  offset="3.566319e-02" style="stop-color:#F9ECEE;stop-opacity:3.566319e-02"/>
				<stop  offset="0.1138" style="stop-color:#EEC9CF;stop-opacity:0.1138"/>
				<stop  offset="0.1999" style="stop-color:#E5ABB4;stop-opacity:0.1999"/>
				<stop  offset="0.2942" style="stop-color:#DD939E;stop-opacity:0.2942"/>
				<stop  offset="0.4001" style="stop-color:#D7808D;stop-opacity:0.4001"/>
				<stop  offset="0.5241" style="stop-color:#D37381;stop-opacity:0.5241"/>
				<stop  offset="0.6832" style="stop-color:#D16B7A;stop-opacity:0.6832"/>
				<stop  offset="1" style="stop-color:#D06978"/>
			</linearGradient>
			<path style="fill:none;stroke:url(#SVGID_00000034050115823170939920000013412833122916975287_);stroke-width:2.5;" d="
				M-2.8,199.9c4.1,0,129.5,22.7,229.9-42.7c100.4-65.4,205.4-71.4,281.2-44.6c75.8,26.8,129.1,90.5,215.2,35.2
				C809.6,92.6,901.9,30.6,979.8,38.9c77.9,8.4,108.6,30.2,129.1,52c20.5,21.8,36.9,8.4,51.2,8.4c14.3,0,66.1,79.7,96.9,74.7"/>
		</g>
	</g>
</g>
<g>
	
		<image style="overflow:visible;opacity:0.7;" width="1371" height="230" xlink:href="83DD1543.png"  transform="matrix(1 0 0 1 -75 0)">
	</image>
	<g>
		<g>
			
				<linearGradient id="SVGID_00000019676344052779987000000003905326332551993516_" gradientUnits="userSpaceOnUse" x1="-38.0222" y1="115.1538" x2="1259.9005" y2="115.1538">
				<stop  offset="0" style="stop-color:#FFFFFF;stop-opacity:0"/>
				<stop  offset="1.960838e-02" style="stop-color:#F5FAFF;stop-opacity:1.960838e-02"/>
				<stop  offset="0.1034" style="stop-color:#D2E9FE;stop-opacity:0.1034"/>
				<stop  offset="0.195" style="stop-color:#B3DBFD;stop-opacity:0.195"/>
				<stop  offset="0.2947" style="stop-color:#9ACFFD;stop-opacity:0.2947"/>
				<stop  offset="0.4058" style="stop-color:#87C5FC;stop-opacity:0.4058"/>
				<stop  offset="0.5343" style="stop-color:#79BFFC;stop-opacity:0.5343"/>
				<stop  offset="0.6964" style="stop-color:#71BBFC;stop-opacity:0.6964"/>
				<stop  offset="1" style="stop-color:#6FBAFC"/>
			</linearGradient>
			<path style="fill:none;stroke:url(#SVGID_00000019676344052779987000000003905326332551993516_);stroke-width:2.5;" d="
				M-37.7,68.3c16.3,4.6,58.6,91.3,152.4,30C232,21.7,268.2,19.8,338.9,84c67.1,64.8,216,55.6,256.5,36.5
				c40.5-19.1,77.5-12.2,126.3,33.7c40.6,38.3,187.1,74.1,280.9-33.7c93.8-107.9,124.8-69.9,173.8-40.3
				c39.2,23.7,71.8,35.4,83.1,38.3"/>
		</g>
	</g>
</g>
</svg>
