<svg width="37" height="38" viewBox="0 0 37 38" fill="none" xmlns="http://www.w3.org/2000/svg">
<path d="M21.416 22.4317C21.3296 22.1971 21.3297 22.1971 21.3298 22.197L21.3299 22.197L21.3304 22.1968L21.3314 22.1964L21.3345 22.1953L21.3445 22.1918C21.3529 22.1889 21.3646 22.185 21.3793 22.1802C21.4088 22.1707 21.4508 22.1579 21.5031 22.1439C21.6076 22.1159 21.7549 22.0824 21.9287 22.06C22.2723 22.0156 22.7407 22.0115 23.1882 22.1983C23.1882 22.1983 23.1882 22.1983 23.1883 22.1983L23.092 22.429C23.6903 22.678 23.8667 23.2912 23.8095 23.4299L21.416 22.4317ZM21.416 22.4317C21.1885 22.5352 21.1885 22.5353 21.1885 22.5354L21.1886 22.5355L21.1888 22.5359L21.1892 22.5369L21.1906 22.5399L21.1952 22.5495C21.199 22.5575 21.2044 22.5686 21.2114 22.5824C21.2254 22.6101 21.2458 22.6489 21.2727 22.696C21.3262 22.79 21.406 22.9182 21.5123 23.0576C21.7225 23.3331 22.049 23.6689 22.4968 23.8557L21.416 22.4317ZM21.416 22.4317L21.3296 22.1971L21.077 22.2901L21.1885 22.5352L21.416 22.4317ZM21.502 22.6664L21.5023 22.6663L21.5022 22.6664L21.502 22.6664Z" stroke="#1EE981" stroke-width="0.5"/>
<path d="M24.5428 28.5463L24.5423 28.5466C24.4858 28.5835 24.424 28.5993 24.3781 28.6071C24.328 28.6157 24.2743 28.6183 24.2201 28.6166C24.1115 28.6132 23.9853 28.5917 23.8544 28.5483C23.5921 28.4612 23.2936 28.28 23.0799 27.9533C22.8138 27.5477 22.7317 27.0866 22.7122 26.7407C22.7023 26.5658 22.7082 26.4149 22.7165 26.307C22.7207 26.253 22.7256 26.2094 22.7295 26.1787C22.7315 26.1633 22.7332 26.1511 22.7345 26.1423L22.7361 26.1318L22.7367 26.1286L22.7368 26.1275L22.7369 26.127L22.7369 26.1269C22.737 26.1268 22.737 26.1267 22.9834 26.1686M24.5428 28.5463L24.5824 26.9691C24.3163 26.5629 23.9259 26.3036 23.6164 26.1478C23.4598 26.069 23.319 26.0142 23.2168 25.9789C23.1655 25.9612 23.1236 25.9483 23.0938 25.9397C23.0789 25.9353 23.067 25.9321 23.0585 25.9298L23.0482 25.9271L23.045 25.9263L23.0439 25.926L23.0435 25.9259L23.0433 25.9259C23.0432 25.9258 23.0432 25.9258 22.9834 26.1686M24.5428 28.5463C24.5993 28.5092 24.6385 28.4587 24.664 28.4199M24.5428 28.5463L24.664 28.4199M22.9834 26.1686L22.737 26.1267L22.782 25.8616L23.0432 25.9258L22.9834 26.1686ZM24.664 28.4199C24.6918 28.3774 24.7157 28.3292 24.7357 28.2788M24.664 28.4199L24.7357 28.2788M24.7357 28.2788C24.7758 28.178 24.8063 28.0537 24.8187 27.9165M24.7357 28.2788L24.8187 27.9165M24.8187 27.9165C24.8435 27.6414 24.7965 27.2955 24.5824 26.9691L24.8187 27.9165ZM22.9232 26.4112L22.9236 26.4113L22.9235 26.4113L22.9233 26.4112C22.9233 26.4112 22.9232 26.4112 22.9232 26.4112L22.9232 26.4112ZM23.23 26.21L23.23 26.21L23.23 26.21Z" stroke="#1EE981" stroke-width="0.5"/>
<mask id="path-3-outside-1_1078_1047" maskUnits="userSpaceOnUse" x="8.92969" y="17.9471" width="19" height="18" fill="black">
<rect fill="white" x="8.92969" y="17.9471" width="19" height="18"/>
<path d="M24.9579 25.9734C24.8313 24.5902 24.2915 23.2993 23.4549 22.2445C23.4798 22.2587 23.502 22.2681 23.5195 22.2708C23.6676 22.2896 24.2155 21.9619 24.301 21.3184C24.414 20.4784 23.8648 19.7003 23.8648 19.7003C23.8648 19.7003 23.1298 20.3054 23.0167 21.1461C22.9763 21.4463 23.0524 21.7041 23.1588 21.8986C22.8 21.5015 22.3955 21.1454 21.9539 20.8378C22.0886 20.8802 22.2023 20.8856 22.2467 20.862C22.3578 20.8042 22.5718 20.3175 22.3221 19.8383C21.995 19.2117 21.2465 18.9471 21.2465 18.9471C21.2465 18.9471 21.0365 19.7131 21.3637 20.3384C21.4088 20.4252 21.4646 20.4952 21.5238 20.5585C21.3684 20.4656 21.2088 20.3788 21.046 20.2987C20.9928 20.1069 20.7794 19.7737 20.3648 19.6566C19.6843 19.4654 18.9776 19.8275 18.9776 19.8275C18.9776 19.8275 19.3915 20.506 20.072 20.6965C20.4833 20.8122 20.8366 20.6433 20.984 20.508C21.2021 20.617 21.4148 20.7355 21.6181 20.8668C21.5737 20.8627 21.5299 20.86 21.4821 20.8627C20.7774 20.9139 20.2369 21.4954 20.2369 21.4954C20.2369 21.4954 20.8555 21.9915 21.5609 21.9403C22.0078 21.9087 22.2885 21.6018 22.3665 21.4274C23.5249 22.4202 24.3427 23.7886 24.6415 25.3118C24.5863 25.1368 24.4867 24.9517 24.3185 24.7921C23.7046 24.2079 22.7515 24.1958 22.7515 24.1958C22.7515 24.1958 22.8101 25.1469 23.4246 25.7318C23.8944 26.1787 24.5271 26.0919 24.6308 25.9835C24.6691 25.9424 24.7008 25.828 24.7008 25.6772C24.7432 25.9808 24.7708 26.2891 24.7708 26.6027C24.7708 27.9462 24.3891 29.1974 23.7255 30.2535C23.8278 29.9755 23.8736 29.5252 23.6286 29.083C23.1487 28.2181 22.0919 27.8735 22.0919 27.8735C22.0919 27.8735 21.8254 28.9524 22.306 29.8173C22.6627 30.4588 23.3587 30.5927 23.5404 30.5234C22.4338 32.1078 20.6704 33.1955 18.6027 33.382L18.5536 33.3853C18.534 33.3867 18.5152 33.3894 18.4957 33.3907C18.4762 33.3894 18.4573 33.3867 18.4378 33.3853L18.3873 33.3833C16.3196 33.1969 14.5555 32.1085 13.4496 30.5247C13.6313 30.5947 14.328 30.4601 14.684 29.8187C15.1639 28.9538 14.8981 27.8748 14.8981 27.8748C14.8981 27.8748 13.8413 28.2195 13.3614 29.0844C13.1164 29.5266 13.1622 29.9769 13.2645 30.2548C12.6009 29.2001 12.2192 27.9475 12.2192 26.6041C12.2192 26.2904 12.2475 25.9808 12.2899 25.6759C12.2899 25.8287 12.3215 25.9438 12.3599 25.9848C12.4636 26.0932 13.0963 26.18 13.5661 25.7331C14.1806 25.1482 14.2391 24.1971 14.2391 24.1971C14.2391 24.1971 13.2861 24.2093 12.6722 24.7935C12.5033 24.9544 12.4037 25.1395 12.3485 25.3151C12.6473 23.7899 13.4651 22.4216 14.6241 21.4288C14.7029 21.6031 14.9829 21.91 15.4298 21.9417C16.1345 21.9928 16.7544 21.4968 16.7544 21.4968C16.7544 21.4968 16.2133 20.9152 15.5086 20.8641C15.4608 20.8614 15.417 20.8641 15.3726 20.8681C15.5765 20.7369 15.7886 20.6184 16.0066 20.5094C16.1547 20.6446 16.5074 20.8136 16.9187 20.6978C17.5991 20.5073 18.0131 19.8289 18.0131 19.8289C18.0131 19.8289 17.3063 19.4668 16.6265 19.6579C16.2113 19.775 15.9986 20.1082 15.9454 20.3C15.7818 20.3801 15.623 20.467 15.4668 20.5598C15.5261 20.4966 15.5813 20.4266 15.627 20.3397C15.9541 19.7138 15.7441 18.9485 15.7441 18.9485C15.7441 18.9485 14.9963 19.2137 14.6686 19.8396C14.4182 20.3189 14.6329 20.8055 14.7439 20.8634C14.7884 20.887 14.9021 20.8816 15.0367 20.8392C14.5959 21.1468 14.1913 21.5021 13.8326 21.8999C13.9389 21.7047 14.015 21.4476 13.9746 21.1474C13.8615 20.3068 13.1265 19.7017 13.1265 19.7017C13.1265 19.7017 12.5766 20.4797 12.6897 21.3197C12.7759 21.9632 13.3231 22.291 13.4712 22.2721C13.4887 22.2695 13.5109 22.2594 13.5351 22.2466C12.6985 23.2999 12.16 24.5902 12.0328 25.972C12.0328 25.6934 11.9507 25.3407 11.6835 25.0324C11.0353 24.2853 9.9301 24.1662 9.9301 24.1662C9.9301 24.1662 9.8924 25.2761 10.5406 26.0239C11.036 26.596 11.7804 26.5664 11.913 26.4506C11.9581 26.4122 12.0025 26.2965 12.0227 26.143C12.0126 26.2971 12.0025 26.4499 12.0025 26.6061C12.0025 27.9886 12.3929 29.2775 13.0747 30.3639C12.9381 30.2939 12.7819 30.2387 12.6042 30.2151C11.6236 30.0879 10.7189 30.7327 10.7189 30.7327C10.7189 30.7327 11.4284 31.5882 12.4097 31.7154C13.072 31.8016 13.5667 31.4092 13.6892 31.1965C14.0487 31.6158 14.4565 31.9914 14.9062 32.3138C14.7298 32.2714 14.5319 32.2539 14.3159 32.2929C13.3419 32.4686 12.6749 33.357 12.6749 33.357C12.6749 33.357 13.6105 33.9574 14.5838 33.7818C15.3275 33.6485 15.6829 32.9922 15.6519 32.8206C15.6492 32.8065 15.6378 32.7876 15.6277 32.7701C16.2765 33.1242 16.99 33.3799 17.7506 33.5159C17.1899 33.6626 16.7188 33.9271 16.3479 34.3115C16.3062 34.3539 16.3075 34.4219 16.3499 34.4643C16.3708 34.4838 16.9213 34.4892 16.9355 34.4616C17.2431 33.8746 18.1564 33.6734 18.4937 33.6182C18.8309 33.6734 19.7449 33.8746 20.0518 34.4616C20.066 34.4892 20.6165 34.4838 20.6374 34.4643C20.6798 34.4219 20.6818 34.3545 20.6394 34.3115C20.2686 33.9278 19.7974 33.6626 19.2374 33.5159C19.9973 33.3799 20.7108 33.1242 21.3596 32.7701C21.3502 32.7876 21.3381 32.8071 21.3354 32.8206C21.3051 32.9922 21.6598 33.6478 22.4036 33.7818C23.3775 33.9574 24.3124 33.357 24.3124 33.357C24.3124 33.357 23.6461 32.4686 22.6714 32.2929C22.4554 32.2539 22.2575 32.2714 22.0818 32.3138C22.5308 31.9914 22.9393 31.6158 23.2988 31.1965C23.4213 31.4085 23.916 31.8009 24.5783 31.7154C25.5596 31.5882 26.269 30.7327 26.269 30.7327C26.269 30.7327 25.3644 30.0879 24.3838 30.2151C24.2054 30.2387 24.0492 30.2932 23.9133 30.3639C24.5944 29.2775 24.9855 27.9886 24.9855 26.6061C24.9855 26.4499 24.9754 26.2951 24.9653 26.1417C24.9855 26.2958 25.0299 26.4129 25.075 26.4513C25.2069 26.567 25.9513 26.5967 26.4474 26.0245C27.0956 25.2774 27.0579 24.1669 27.0579 24.1669C27.0579 24.1669 25.9527 24.286 25.3045 25.0331C25.038 25.3407 24.9572 25.6941 24.9579 25.9734Z"/>
</mask>
<path d="M24.9579 25.9734C24.8313 24.5902 24.2915 23.2993 23.4549 22.2445C23.4798 22.2587 23.502 22.2681 23.5195 22.2708C23.6676 22.2896 24.2155 21.9619 24.301 21.3184C24.414 20.4784 23.8648 19.7003 23.8648 19.7003C23.8648 19.7003 23.1298 20.3054 23.0167 21.1461C22.9763 21.4463 23.0524 21.7041 23.1588 21.8986C22.8 21.5015 22.3955 21.1454 21.9539 20.8378C22.0886 20.8802 22.2023 20.8856 22.2467 20.862C22.3578 20.8042 22.5718 20.3175 22.3221 19.8383C21.995 19.2117 21.2465 18.9471 21.2465 18.9471C21.2465 18.9471 21.0365 19.7131 21.3637 20.3384C21.4088 20.4252 21.4646 20.4952 21.5238 20.5585C21.3684 20.4656 21.2088 20.3788 21.046 20.2987C20.9928 20.1069 20.7794 19.7737 20.3648 19.6566C19.6843 19.4654 18.9776 19.8275 18.9776 19.8275C18.9776 19.8275 19.3915 20.506 20.072 20.6965C20.4833 20.8122 20.8366 20.6433 20.984 20.508C21.2021 20.617 21.4148 20.7355 21.6181 20.8668C21.5737 20.8627 21.5299 20.86 21.4821 20.8627C20.7774 20.9139 20.2369 21.4954 20.2369 21.4954C20.2369 21.4954 20.8555 21.9915 21.5609 21.9403C22.0078 21.9087 22.2885 21.6018 22.3665 21.4274C23.5249 22.4202 24.3427 23.7886 24.6415 25.3118C24.5863 25.1368 24.4867 24.9517 24.3185 24.7921C23.7046 24.2079 22.7515 24.1958 22.7515 24.1958C22.7515 24.1958 22.8101 25.1469 23.4246 25.7318C23.8944 26.1787 24.5271 26.0919 24.6308 25.9835C24.6691 25.9424 24.7008 25.828 24.7008 25.6772C24.7432 25.9808 24.7708 26.2891 24.7708 26.6027C24.7708 27.9462 24.3891 29.1974 23.7255 30.2535C23.8278 29.9755 23.8736 29.5252 23.6286 29.083C23.1487 28.2181 22.0919 27.8735 22.0919 27.8735C22.0919 27.8735 21.8254 28.9524 22.306 29.8173C22.6627 30.4588 23.3587 30.5927 23.5404 30.5234C22.4338 32.1078 20.6704 33.1955 18.6027 33.382L18.5536 33.3853C18.534 33.3867 18.5152 33.3894 18.4957 33.3907C18.4762 33.3894 18.4573 33.3867 18.4378 33.3853L18.3873 33.3833C16.3196 33.1969 14.5555 32.1085 13.4496 30.5247C13.6313 30.5947 14.328 30.4601 14.684 29.8187C15.1639 28.9538 14.8981 27.8748 14.8981 27.8748C14.8981 27.8748 13.8413 28.2195 13.3614 29.0844C13.1164 29.5266 13.1622 29.9769 13.2645 30.2548C12.6009 29.2001 12.2192 27.9475 12.2192 26.6041C12.2192 26.2904 12.2475 25.9808 12.2899 25.6759C12.2899 25.8287 12.3215 25.9438 12.3599 25.9848C12.4636 26.0932 13.0963 26.18 13.5661 25.7331C14.1806 25.1482 14.2391 24.1971 14.2391 24.1971C14.2391 24.1971 13.2861 24.2093 12.6722 24.7935C12.5033 24.9544 12.4037 25.1395 12.3485 25.3151C12.6473 23.7899 13.4651 22.4216 14.6241 21.4288C14.7029 21.6031 14.9829 21.91 15.4298 21.9417C16.1345 21.9928 16.7544 21.4968 16.7544 21.4968C16.7544 21.4968 16.2133 20.9152 15.5086 20.8641C15.4608 20.8614 15.417 20.8641 15.3726 20.8681C15.5765 20.7369 15.7886 20.6184 16.0066 20.5094C16.1547 20.6446 16.5074 20.8136 16.9187 20.6978C17.5991 20.5073 18.0131 19.8289 18.0131 19.8289C18.0131 19.8289 17.3063 19.4668 16.6265 19.6579C16.2113 19.775 15.9986 20.1082 15.9454 20.3C15.7818 20.3801 15.623 20.467 15.4668 20.5598C15.5261 20.4966 15.5813 20.4266 15.627 20.3397C15.9541 19.7138 15.7441 18.9485 15.7441 18.9485C15.7441 18.9485 14.9963 19.2137 14.6686 19.8396C14.4182 20.3189 14.6329 20.8055 14.7439 20.8634C14.7884 20.887 14.9021 20.8816 15.0367 20.8392C14.5959 21.1468 14.1913 21.5021 13.8326 21.8999C13.9389 21.7047 14.015 21.4476 13.9746 21.1474C13.8615 20.3068 13.1265 19.7017 13.1265 19.7017C13.1265 19.7017 12.5766 20.4797 12.6897 21.3197C12.7759 21.9632 13.3231 22.291 13.4712 22.2721C13.4887 22.2695 13.5109 22.2594 13.5351 22.2466C12.6985 23.2999 12.16 24.5902 12.0328 25.972C12.0328 25.6934 11.9507 25.3407 11.6835 25.0324C11.0353 24.2853 9.9301 24.1662 9.9301 24.1662C9.9301 24.1662 9.8924 25.2761 10.5406 26.0239C11.036 26.596 11.7804 26.5664 11.913 26.4506C11.9581 26.4122 12.0025 26.2965 12.0227 26.143C12.0126 26.2971 12.0025 26.4499 12.0025 26.6061C12.0025 27.9886 12.3929 29.2775 13.0747 30.3639C12.9381 30.2939 12.7819 30.2387 12.6042 30.2151C11.6236 30.0879 10.7189 30.7327 10.7189 30.7327C10.7189 30.7327 11.4284 31.5882 12.4097 31.7154C13.072 31.8016 13.5667 31.4092 13.6892 31.1965C14.0487 31.6158 14.4565 31.9914 14.9062 32.3138C14.7298 32.2714 14.5319 32.2539 14.3159 32.2929C13.3419 32.4686 12.6749 33.357 12.6749 33.357C12.6749 33.357 13.6105 33.9574 14.5838 33.7818C15.3275 33.6485 15.6829 32.9922 15.6519 32.8206C15.6492 32.8065 15.6378 32.7876 15.6277 32.7701C16.2765 33.1242 16.99 33.3799 17.7506 33.5159C17.1899 33.6626 16.7188 33.9271 16.3479 34.3115C16.3062 34.3539 16.3075 34.4219 16.3499 34.4643C16.3708 34.4838 16.9213 34.4892 16.9355 34.4616C17.2431 33.8746 18.1564 33.6734 18.4937 33.6182C18.8309 33.6734 19.7449 33.8746 20.0518 34.4616C20.066 34.4892 20.6165 34.4838 20.6374 34.4643C20.6798 34.4219 20.6818 34.3545 20.6394 34.3115C20.2686 33.9278 19.7974 33.6626 19.2374 33.5159C19.9973 33.3799 20.7108 33.1242 21.3596 32.7701C21.3502 32.7876 21.3381 32.8071 21.3354 32.8206C21.3051 32.9922 21.6598 33.6478 22.4036 33.7818C23.3775 33.9574 24.3124 33.357 24.3124 33.357C24.3124 33.357 23.6461 32.4686 22.6714 32.2929C22.4554 32.2539 22.2575 32.2714 22.0818 32.3138C22.5308 31.9914 22.9393 31.6158 23.2988 31.1965C23.4213 31.4085 23.916 31.8009 24.5783 31.7154C25.5596 31.5882 26.269 30.7327 26.269 30.7327C26.269 30.7327 25.3644 30.0879 24.3838 30.2151C24.2054 30.2387 24.0492 30.2932 23.9133 30.3639C24.5944 29.2775 24.9855 27.9886 24.9855 26.6061C24.9855 26.4499 24.9754 26.2951 24.9653 26.1417C24.9855 26.2958 25.0299 26.4129 25.075 26.4513C25.2069 26.567 25.9513 26.5967 26.4474 26.0245C27.0956 25.2774 27.0579 24.1669 27.0579 24.1669C27.0579 24.1669 25.9527 24.286 25.3045 25.0331C25.038 25.3407 24.9572 25.6941 24.9579 25.9734Z" stroke="#1EE981" mask="url(#path-3-outside-1_1078_1047)"/>
<path d="M25.3091 27.3977L25.3093 27.3975C25.7881 27.1158 26.3217 27.0465 26.7221 27.043C26.9242 27.0413 27.0978 27.0563 27.2215 27.0718C27.2835 27.0796 27.3333 27.0876 27.3683 27.0937C27.3858 27.0968 27.3997 27.0994 27.4095 27.1014L27.4212 27.1038L27.4248 27.1045L27.4259 27.1048L27.4264 27.1049L27.4266 27.1049C27.4267 27.1049 27.4267 27.1049 27.3732 27.3492M25.3091 27.3977L24.5515 29.0124C24.5874 29.0735 24.6388 29.1182 24.6806 29.1486C24.7259 29.1815 24.7783 29.2108 24.834 29.2361C24.9455 29.2869 25.0848 29.3283 25.2404 29.3498C25.5523 29.3929 25.9483 29.3579 26.3311 29.1321L26.3313 29.132C26.8099 28.8492 27.129 28.4157 27.3259 28.0671C27.4253 27.891 27.4963 27.7319 27.5425 27.6161C27.5657 27.5581 27.5829 27.5107 27.5944 27.4771C27.6002 27.4603 27.6046 27.4469 27.6076 27.4373L27.6112 27.4259L27.6123 27.4225L27.6126 27.4213L27.6127 27.4209L27.6128 27.4207C27.6128 27.4206 27.6128 27.4205 27.3732 27.3492M25.3091 27.3977C24.9262 27.6236 24.7041 27.9536 24.5909 28.2474M25.3091 27.3977L24.5909 28.2474M27.3732 27.3492L27.4267 27.1049L27.6897 27.1625L27.6128 27.4205L27.3732 27.3492ZM24.5909 28.2474C24.5345 28.3939 24.5033 28.5358 24.4936 28.6578M24.5909 28.2474L24.4936 28.6578M24.4936 28.6578C24.4887 28.7186 24.4889 28.7784 24.4956 28.8338M24.4936 28.6578L24.4956 28.8338M24.4956 28.8338C24.5018 28.8848 24.5157 28.9513 24.5515 29.0123L24.4956 28.8338Z" stroke="#1EE981" stroke-width="0.5"/>
<path d="M20.6353 29.3596C20.3951 29.2903 20.395 29.2904 20.395 29.2905L20.395 29.2906L20.3948 29.2911L20.3945 29.2922L20.3935 29.2957L20.3904 29.3073C20.3878 29.317 20.3843 29.3306 20.38 29.3479C20.3716 29.3824 20.3604 29.4316 20.3486 29.493C20.325 29.6155 20.2986 29.7879 20.2871 29.9899C20.2644 30.3898 20.2987 30.9272 20.5486 31.4234L20.5487 31.4236C20.7489 31.82 21.0633 32.063 21.3489 32.1951C21.4914 32.261 21.631 32.3014 21.7521 32.319C21.8125 32.3278 21.8723 32.3315 21.9281 32.3283C21.9796 32.3254 22.0469 32.3158 22.1101 32.2839C22.1733 32.252 22.2211 32.2036 22.2541 32.164C22.2898 32.121 22.3224 32.0707 22.3512 32.0169C22.4091 31.909 22.4596 31.7728 22.4913 31.6191C22.5548 31.3109 22.5462 30.9136 22.346 30.5172C22.0957 30.0206 21.684 29.6736 21.3489 29.4541C21.1796 29.3433 21.0254 29.262 20.9129 29.2082C20.8565 29.1813 20.8102 29.1611 20.7774 29.1473C20.761 29.1405 20.7479 29.1352 20.7386 29.1315L20.7274 29.1272L20.724 29.1259L20.7229 29.1255L20.7225 29.1253L20.7223 29.1253C20.7222 29.1252 20.7222 29.1252 20.6353 29.3596ZM20.6353 29.3596L20.3951 29.2903L20.4697 29.0316L20.7222 29.1252L20.6353 29.3596ZM20.548 29.5939L20.5482 29.594L20.5481 29.5939L20.548 29.5939ZM20.548 29.5939C20.5479 29.5939 20.5479 29.5939 20.548 29.5939L20.548 29.5939Z" stroke="#1EE981" stroke-width="0.5"/>
<path d="M25.7793 21.3137C25.6741 21.0869 25.6741 21.0869 25.674 21.087L25.6738 21.0871L25.6734 21.0872L25.6723 21.0878L25.669 21.0893L25.6583 21.0945C25.6492 21.0989 25.6366 21.1052 25.6208 21.1133C25.5891 21.1296 25.5446 21.1534 25.4905 21.1848C25.3825 21.2473 25.2351 21.3405 25.075 21.4644C24.7581 21.7097 24.375 22.0883 24.1647 22.603L24.3961 22.6976L24.1648 22.6028C23.9963 23.0142 24.0188 23.4111 24.1065 23.7134C24.1502 23.8642 24.2114 23.996 24.2776 24.0989C24.3107 24.1503 24.3472 24.1978 24.3863 24.2379C24.4223 24.2748 24.4739 24.3193 24.5395 24.346L24.6337 24.1144L24.5387 24.3456C24.6043 24.3726 24.6724 24.377 24.724 24.3759C24.78 24.3746 24.8394 24.3662 24.899 24.3526C25.0184 24.3255 25.1544 24.2742 25.2912 24.1971C25.5655 24.0427 25.8596 23.7754 26.0281 23.3645L26.0282 23.3643C26.2385 22.8499 26.2303 22.3115 26.1761 21.9146C26.1487 21.7141 26.1088 21.5444 26.0756 21.4241C26.059 21.3638 26.044 21.3157 26.0328 21.2819C26.0272 21.265 26.0226 21.2516 26.0193 21.2422L26.0152 21.2309L26.014 21.2275L26.0135 21.2264L26.0134 21.226L26.0133 21.2258C26.0133 21.2257 26.0133 21.2256 25.7793 21.3137ZM25.7793 21.3137L25.6741 21.0869L25.9184 20.9737L26.0133 21.2256L25.7793 21.3137Z" stroke="#1EE981" stroke-width="0.5"/>
<path d="M15.5775 22.4316C15.8051 22.5352 15.805 22.5352 15.805 22.5353L15.8049 22.5355L15.8047 22.5359L15.8043 22.5369L15.8029 22.5398L15.7983 22.5494C15.7945 22.5574 15.7891 22.5685 15.7821 22.5824C15.7681 22.61 15.7477 22.6488 15.7209 22.6959C15.6673 22.7899 15.5875 22.9182 15.4812 23.0575C15.271 23.333 14.9444 23.6689 14.4966 23.8557L15.5775 22.4316ZM15.5775 22.4316C15.664 22.1971 15.664 22.1971 15.6639 22.197L15.6637 22.197L15.6633 22.1968L15.6623 22.1964L15.6592 22.1953L15.6492 22.1918C15.6408 22.1889 15.6291 22.1849 15.6143 22.1802C15.5848 22.1706 15.5429 22.1578 15.4905 22.1438C15.386 22.1157 15.2387 22.0822 15.0649 22.0597C14.7213 22.0152 14.2529 22.0111 13.8053 22.1982C13.4446 22.3482 13.2117 22.608 13.078 22.8497C13.0113 22.9703 12.9669 23.0903 12.9436 23.1962C12.932 23.2491 12.9247 23.3024 12.9239 23.3531C12.9232 23.3995 12.9273 23.463 12.9529 23.5252L12.9531 23.5255C12.9791 23.5882 13.0215 23.6362 13.055 23.6683C13.0916 23.7035 13.1346 23.7359 13.1804 23.7649C13.2721 23.8229 13.3886 23.8759 13.5213 23.9134C13.7872 23.9885 14.1361 24.0061 14.4965 23.8557L15.5775 22.4316ZM15.5775 22.4316L15.8051 22.5352L15.9165 22.2902L15.664 22.1971L15.5775 22.4316Z" stroke="#1EE981" stroke-width="0.5"/>
<path d="M14.0115 26.1693C13.952 25.9264 13.9519 25.9265 13.9518 25.9265L13.9517 25.9265L13.9512 25.9266L13.9501 25.9269L13.947 25.9277L13.9367 25.9304C13.9281 25.9327 13.9162 25.9359 13.9013 25.9403C13.8715 25.9489 13.8296 25.9618 13.7784 25.9794C13.6761 26.0146 13.5353 26.0693 13.3787 26.1481C13.0691 26.3037 12.6787 26.5628 12.4126 26.969C12.1982 27.2955 12.1512 27.6414 12.1759 27.9165C12.1883 28.0537 12.2188 28.178 12.2589 28.2787C12.2788 28.329 12.3026 28.3771 12.3303 28.4196C12.3556 28.4584 12.3947 28.5088 12.451 28.5459L12.452 28.5466C12.5085 28.5835 12.5703 28.5993 12.6161 28.6071C12.6662 28.6157 12.7199 28.6183 12.7741 28.6167C12.8826 28.6132 13.0088 28.5917 13.1396 28.5484C13.4018 28.4614 13.7003 28.2804 13.9143 27.9541L13.9144 27.954C14.1804 27.5482 14.2627 27.0871 14.2824 26.7413C14.2924 26.5664 14.2866 26.4155 14.2784 26.3078C14.2742 26.2537 14.2694 26.2102 14.2655 26.1794C14.2635 26.1641 14.2618 26.1519 14.2605 26.1431L14.2589 26.1326L14.2583 26.1294L14.2582 26.1283L14.2581 26.1279L14.2581 26.1277C14.258 26.1276 14.258 26.1275 14.0115 26.1693ZM14.0115 26.1693L13.952 25.9264L14.2131 25.8624L14.258 26.1275L14.0115 26.1693Z" stroke="#1EE981" stroke-width="0.5"/>
<path d="M12.4424 29.0131L12.4422 29.0134C12.4062 29.074 12.355 29.1184 12.3132 29.1486C12.2679 29.1814 12.2156 29.2106 12.16 29.2359C12.0485 29.2865 11.9093 29.328 11.7537 29.3495C11.4419 29.3926 11.046 29.3576 10.6631 29.1313L12.4424 29.0131ZM12.4424 29.0131C12.4785 28.952 12.4926 28.8853 12.4989 28.8342C12.5057 28.7787 12.5059 28.7188 12.501 28.6579C12.4914 28.536 12.4602 28.3941 12.4037 28.2476C12.2906 27.9539 12.0686 27.624 11.6862 27.3978L11.6856 27.3975M12.4424 29.0131L11.6856 27.3975M11.6856 27.3975C11.2066 27.1158 10.6729 27.0464 10.2725 27.0427M11.6856 27.3975L10.2725 27.0427M9.62109 27.3485L9.56776 27.1042L9.30459 27.1617L9.3815 27.4198L9.62109 27.3485ZM9.62109 27.3485C9.56776 27.1042 9.56784 27.1042 9.56792 27.1042M9.62109 27.3485L9.56792 27.1042M9.62109 27.3485C9.3815 27.4198 9.38152 27.4199 9.38155 27.42M9.62109 27.3485L9.38155 27.42M9.67405 27.5928L9.6743 27.5927L9.67419 27.5928L9.67405 27.5928ZM9.67405 27.5928C9.67398 27.5928 9.67398 27.5928 9.67405 27.5928L9.67405 27.5928ZM10.2725 27.0427C10.0703 27.0409 9.89666 27.0558 9.77295 27.0712M10.2725 27.0427L9.77295 27.0712M9.77295 27.0712C9.71097 27.079 9.66117 27.0869 9.62617 27.093M9.77295 27.0712L9.62617 27.093M9.62617 27.093C9.60866 27.0961 9.59482 27.0987 9.58498 27.1007M9.62617 27.093L9.58498 27.1007M9.58498 27.1007L9.57326 27.1031M9.58498 27.1007L9.57326 27.1031M9.57326 27.1031L9.56972 27.1038M9.57326 27.1031L9.56972 27.1038M9.56972 27.1038L9.56854 27.1041M9.56972 27.1038L9.56854 27.1041M9.56854 27.1041L9.5681 27.1041M9.56854 27.1041L9.5681 27.1041M9.5681 27.1041L9.56792 27.1042M9.5681 27.1041L9.56792 27.1042M9.38155 27.42L9.3816 27.4202M9.38155 27.42L9.3816 27.4202M9.3816 27.4202L9.38173 27.4206M9.3816 27.4202L9.38173 27.4206M9.38173 27.4206L9.38208 27.4218M9.38173 27.4206L9.38208 27.4218M9.38208 27.4218L9.38314 27.4252M9.38208 27.4218L9.38314 27.4252M9.38314 27.4252L9.38673 27.4366M9.38314 27.4252L9.38673 27.4366M9.38673 27.4366C9.38978 27.4462 9.39416 27.4596 9.39994 27.4764M9.38673 27.4366L9.39994 27.4764M9.39994 27.4764C9.41149 27.51 9.42862 27.5574 9.45181 27.6154M9.39994 27.4764L9.45181 27.6154M9.45181 27.6154C9.49809 27.7312 9.569 27.8903 9.66843 28.0664M9.45181 27.6154L9.66843 28.0664M9.66843 28.0664C9.86531 28.415 10.1844 28.8485 10.663 29.1313L9.66843 28.0664Z" stroke="#1EE981" stroke-width="0.5"/>
<path d="M16.446 31.4234L16.4459 31.4236C16.2458 31.82 15.9314 32.063 15.6458 32.1951C15.5034 32.261 15.3639 32.3013 15.2429 32.319C15.1825 32.3278 15.1228 32.3315 15.067 32.3283C15.0156 32.3254 14.9481 32.3158 14.8848 32.2837L14.9978 32.0607L14.8852 32.2839C14.822 32.252 14.7742 32.2036 14.7413 32.164C14.7056 32.121 14.673 32.0707 14.6441 32.0169C14.5863 31.9091 14.5357 31.7729 14.504 31.6192C14.4404 31.3112 14.4488 30.9141 14.6487 30.5178L16.446 31.4234ZM16.446 31.4234C16.6963 30.9269 16.7306 30.3897 16.7078 29.9899M16.446 31.4234L16.7078 29.9899M16.3594 29.3603L16.5996 29.2908L16.5247 29.0324L16.2725 29.1259L16.3594 29.3603ZM16.3594 29.3603C16.5996 29.2908 16.5996 29.2908 16.5996 29.2909M16.3594 29.3603L16.5996 29.2909M16.3594 29.3603C16.2725 29.1259 16.2724 29.1259 16.2723 29.1259M16.3594 29.3603L16.2723 29.1259M16.7078 29.9899C16.6963 29.788 16.6698 29.6158 16.6462 29.4933M16.7078 29.9899L16.6462 29.4933M16.6462 29.4933C16.6343 29.432 16.6231 29.3828 16.6146 29.3483M16.6462 29.4933L16.6146 29.3483M16.6146 29.3483C16.6104 29.331 16.6068 29.3174 16.6042 29.3077M16.6146 29.3483L16.6042 29.3077M16.6042 29.3077L16.6011 29.2962M16.6042 29.3077L16.6011 29.2962M16.6011 29.2962L16.6001 29.2927M16.6011 29.2962L16.6001 29.2927M16.6001 29.2927L16.5998 29.2915M16.6001 29.2927L16.5998 29.2915M16.5998 29.2915L16.5996 29.2911M16.5998 29.2915L16.5996 29.2911M16.5996 29.2911L16.5996 29.2909M16.5996 29.2911L16.5996 29.2909M16.2723 29.1259L16.2722 29.126M16.2723 29.1259L16.2722 29.126M16.2722 29.126L16.2718 29.1262M16.2722 29.126L16.2718 29.1262M16.2718 29.1262L16.2706 29.1266M16.2718 29.1262L16.2706 29.1266M16.2706 29.1266L16.2672 29.1279M16.2706 29.1266L16.2672 29.1279M16.2672 29.1279L16.2561 29.1322M16.2672 29.1279L16.2561 29.1322M16.2561 29.1322C16.2467 29.1359 16.2337 29.1411 16.2172 29.148M16.2561 29.1322L16.2172 29.148M16.2172 29.148C16.1844 29.1617 16.1382 29.182 16.0818 29.2089M16.2172 29.148L16.0818 29.2089M16.0818 29.2089C15.9693 29.2627 15.815 29.344 15.6458 29.4548M16.0818 29.2089L15.6458 29.4548M15.6458 29.4548C15.3107 29.6742 14.8991 30.0213 14.6487 30.5178L15.6458 29.4548Z" stroke="#1EE981" stroke-width="0.5"/>
<path d="M12.4555 24.3461L12.4546 24.3465C12.3891 24.3732 12.3212 24.3775 12.2697 24.3763C12.2138 24.375 12.1546 24.3665 12.095 24.3529C11.9758 24.3258 11.8399 24.2745 11.703 24.1975C11.4287 24.0433 11.1343 23.7761 10.9658 23.3651L10.9657 23.3649C10.7554 22.8506 10.7636 22.3121 10.8178 21.9152C10.8452 21.7147 10.885 21.545 10.9182 21.4247C10.9348 21.3644 10.9499 21.3163 10.9611 21.2825C10.9666 21.2656 10.9712 21.2523 10.9746 21.2428L10.9786 21.2315L10.9799 21.2281L10.9803 21.227L10.9805 21.2266L10.9805 21.2264C10.9806 21.2263 10.9806 21.2263 11.2146 21.3143M12.4555 24.3461L12.8292 22.6036C12.6189 22.0889 12.2357 21.7103 11.9188 21.465C11.7588 21.3412 11.6114 21.248 11.5034 21.1854C11.4492 21.1541 11.4047 21.1302 11.3731 21.1139C11.3573 21.1058 11.3446 21.0995 11.3356 21.0951L11.3248 21.0899L11.3215 21.0884L11.3204 21.0879L11.32 21.0877L11.3199 21.0876C11.3198 21.0876 11.3197 21.0875 11.2146 21.3143M12.4555 24.3461C12.5206 24.3192 12.5719 24.2748 12.6077 24.2379M12.4555 24.3461L12.6077 24.2379M11.2146 21.3143L10.9806 21.2263L11.0755 20.9743L11.3197 21.0875L11.2146 21.3143ZM11.1091 21.541L11.1093 21.5411L11.1092 21.541L11.1091 21.541ZM11.1091 21.541C11.109 21.541 11.109 21.5409 11.109 21.541L11.109 21.541L11.1091 21.541ZM12.6077 24.2379C12.6467 24.1979 12.683 24.1504 12.716 24.0991M12.6077 24.2379L12.716 24.0991M12.716 24.0991C12.7821 23.9962 12.8432 23.8645 12.8869 23.7138M12.716 24.0991L12.8869 23.7138M12.8869 23.7138C12.9745 23.4116 12.9973 23.015 12.8292 22.6036L12.8869 23.7138Z" stroke="#1EE981" stroke-width="0.5"/>
<path d="M18.4997 15.385C12.4231 15.385 7.48047 20.3283 7.48047 26.4042C7.48047 32.4802 12.4231 37.4235 18.4997 37.4235C24.5763 37.4235 29.5189 32.4802 29.5189 26.4042C29.5189 20.3283 24.5763 15.385 18.4997 15.385ZM18.4997 36.2504C13.0708 36.2504 8.65355 31.8332 8.65355 26.4042C8.65355 20.9753 13.0708 16.5581 18.4997 16.5581C23.9286 16.5581 28.3459 20.9753 28.3459 26.4042C28.3459 31.8332 23.9286 36.2504 18.4997 36.2504Z" stroke="#1EE981" stroke-width="0.5"/>
<path d="M36.1843 7.7263L36.3104 7.58875L36.2144 7.42875L32.1759 0.697975L32.1031 0.576599H31.9615H5.03913H5.03846H4.89691L4.82409 0.697975L0.785627 7.42875L0.75 7.48812V7.55737V7.55804V7.6553L0.81572 7.72698L10.4744 18.2627L10.6458 18.4496L10.8302 18.2756C10.8399 18.2664 10.8495 18.2573 10.8592 18.2482C11.0173 18.099 11.1689 17.9559 11.3285 17.8225L11.5292 17.6547L11.3525 17.4618L2.14663 7.41066L5.19364 2.36179L16.9763 15.2163L17.0627 15.3105L17.1896 15.2957C17.4622 15.2638 17.7422 15.2479 18.0286 15.2359L18.4994 15.2161L18.9714 15.2359C19.2585 15.2479 19.5378 15.2638 19.8104 15.2957L19.9373 15.3105L20.0237 15.2163L31.8064 2.36241L34.8543 7.44119L25.659 17.4718L25.4826 17.6643L25.6825 17.8322C25.8482 17.9713 26.0057 18.1203 26.1695 18.2753L26.354 18.4499L26.5256 18.2626L36.1843 7.7263ZM11.7769 7.80737H25.2225L18.7976 14.8172L18.5 15.1419L18.2024 14.8172L11.7769 7.80737ZM30.776 1.74968L26.298 6.63429H10.702L6.22464 1.74968H30.776Z" stroke="#1EE981" stroke-width="0.5"/>
</svg>
