<?xml version="1.0" encoding="utf-8"?>
<!-- Generator: Adobe Illustrator 28.0.0, SVG Export Plug-In . SVG Version: 6.00 Build 0)  -->
<svg version="1.1" id="Layer_1" xmlns="http://www.w3.org/2000/svg" xmlns:xlink="http://www.w3.org/1999/xlink" x="0px" y="0px"
	 viewBox="0 0 168 66" style="enable-background:new 0 0 168 66;" xml:space="preserve">
<style type="text/css">
	.st0{fill:#FAFAFA;fill-opacity:0.3;}
	.st1{fill:none;stroke:#1EE981;stroke-width:0.5;}
	.st2{fill:#FFFFFF;filter:url(#Adobe_OpacityMaskFilter);}
	.st3{mask:url(#path-4-outside-1_1078_1043_00000147903791920874855810000010645995680271505084_);fill:none;stroke:#1EE981;}
	.st4{fill:#FFFFFF;}
</style>
<g>
	<g>
		<path shape-rendering="crispEdges" class="st0" d="M10,0h148c5.5,0,10,4.5,10,10v46c0,5.5-4.5,10-10,10H10C4.5,66,0,61.5,0,56V10
			C0,4.5,4.5,0,10,0z"/>
	</g>
	<path class="st1" d="M36.4,36.4c-0.1-0.2-0.1-0.2-0.1-0.2h0l0,0l0,0l0,0l0,0c0,0,0,0,0,0c0,0,0.1,0,0.1,0c0.1,0,0.3-0.1,0.4-0.1
		c0.3,0,0.8,0,1.3,0.1c0.4,0.2,0.6,0.4,0.7,0.7C39,37,39,37.1,39,37.2c0,0.1,0,0.1,0,0.2c0,0,0,0.1,0,0.2l0,0l0,0
		c0,0.1-0.1,0.1-0.1,0.1c0,0-0.1,0.1-0.1,0.1c-0.1,0.1-0.2,0.1-0.3,0.1c-0.3,0.1-0.6,0.1-1-0.1 M36.4,36.4c-0.2,0.1-0.2,0.1-0.2,0.1
		l0,0l0,0l0,0l0,0l0,0c0,0,0,0,0,0c0,0,0,0.1,0.1,0.1c0.1,0.1,0.1,0.2,0.2,0.4c0.2,0.3,0.5,0.6,1,0.8 M36.4,36.4l-0.1-0.2l-0.3,0.1
		l0.1,0.2L36.4,36.4z M37.5,37.9l0.1-0.2 M37.5,37.9C37.5,37.9,37.5,37.9,37.5,37.9l0.1-0.2 M37.6,37.6c0.6,0.2,1.2-0.1,1.2-0.2
		 M37.6,37.6c-0.5-0.2-0.9-0.7-1.1-1l2.3,0.8 M38.8,37.4c0.1-0.1-0.1-0.8-0.7-1L38.8,37.4z M36.5,36.7L36.5,36.7L36.5,36.7
		L36.5,36.7z"/>
	<path class="st1" d="M39.5,42.5L39.5,42.5c-0.1,0-0.1,0.1-0.2,0.1c-0.1,0-0.1,0-0.2,0c-0.1,0-0.2,0-0.4-0.1
		c-0.3-0.1-0.6-0.3-0.8-0.6c-0.3-0.4-0.3-0.9-0.4-1.2c0-0.2,0-0.3,0-0.4c0-0.1,0-0.1,0-0.1c0,0,0,0,0,0l0,0l0,0l0,0l0,0v0
		c0,0,0,0,0.2,0 M39.5,42.5l0-1.6c-0.3-0.4-0.7-0.7-1-0.8c-0.2-0.1-0.3-0.1-0.4-0.2c-0.1,0-0.1,0-0.1,0c0,0,0,0,0,0l0,0l0,0l0,0l0,0
		h0c0,0,0,0-0.1,0.2 M39.5,42.5c0.1,0,0.1-0.1,0.1-0.1 M39.5,42.5l0.1-0.1 M38,40.2l-0.2,0l0-0.3l0.3,0.1L38,40.2z M39.7,42.4
		c0,0,0.1-0.1,0.1-0.1 M39.7,42.4l0.1-0.1 M39.7,42.3c0-0.1,0.1-0.2,0.1-0.4 M39.7,42.3l0.1-0.4 M39.8,41.9c0-0.3,0-0.6-0.2-0.9
		L39.8,41.9z M37.9,40.4L37.9,40.4L37.9,40.4L37.9,40.4L37.9,40.4L37.9,40.4z"/>
	<defs>
		<filter id="Adobe_OpacityMaskFilter" filterUnits="userSpaceOnUse" x="24.4" y="32.3" width="18.1" height="16.7">
			<feColorMatrix  type="matrix" values="1 0 0 0 0  0 1 0 0 0  0 0 1 0 0  0 0 0 1 0"/>
		</filter>
	</defs>
	
		<mask maskUnits="userSpaceOnUse" x="24.4" y="32.3" width="18.1" height="16.7" id="path-4-outside-1_1078_1043_00000147903791920874855810000010645995680271505084_">
		<rect x="23.9" y="31.9" class="st2" width="19" height="18"/>
		<path d="M40,40c-0.1-1.4-0.7-2.7-1.5-3.7c0,0,0,0,0.1,0c0.1,0,0.7-0.3,0.8-1c0.1-0.8-0.4-1.6-0.4-1.6s-0.7,0.6-0.8,1.4
			c0,0.3,0,0.6,0.1,0.8c-0.4-0.4-0.8-0.8-1.2-1.1c0.1,0,0.2,0,0.3,0c0.1-0.1,0.3-0.5,0.1-1c-0.3-0.6-1.1-0.9-1.1-0.9
			s-0.2,0.8,0.1,1.4c0,0.1,0.1,0.2,0.2,0.2c-0.2-0.1-0.3-0.2-0.5-0.3c-0.1-0.2-0.3-0.5-0.7-0.6c-0.7-0.2-1.4,0.2-1.4,0.2
			s0.4,0.7,1.1,0.9c0.4,0.1,0.8-0.1,0.9-0.2c0.2,0.1,0.4,0.2,0.6,0.4c0,0-0.1,0-0.1,0c-0.7,0.1-1.2,0.6-1.2,0.6s0.6,0.5,1.3,0.4
			c0.4,0,0.7-0.3,0.8-0.5c1.2,1,2,2.4,2.3,3.9c-0.1-0.2-0.2-0.4-0.3-0.5c-0.6-0.6-1.6-0.6-1.6-0.6s0.1,1,0.7,1.5
			c0.5,0.4,1.1,0.4,1.2,0.3c0,0,0.1-0.2,0.1-0.3c0,0.3,0.1,0.6,0.1,0.9c0,1.3-0.4,2.6-1,3.7c0.1-0.3,0.1-0.7-0.1-1.2
			c-0.5-0.9-1.5-1.2-1.5-1.2s-0.3,1.1,0.2,1.9c0.4,0.6,1.1,0.8,1.2,0.7c-1.1,1.6-2.9,2.7-4.9,2.9l0,0c0,0,0,0-0.1,0c0,0,0,0-0.1,0
			l-0.1,0c-2.1-0.2-3.8-1.3-4.9-2.9c0.2,0.1,0.9-0.1,1.2-0.7c0.5-0.9,0.2-1.9,0.2-1.9s-1.1,0.3-1.5,1.2c-0.2,0.4-0.2,0.9-0.1,1.2
			c-0.7-1.1-1-2.3-1-3.7c0-0.3,0-0.6,0.1-0.9c0,0.2,0,0.3,0.1,0.3c0.1,0.1,0.7,0.2,1.2-0.3c0.6-0.6,0.7-1.5,0.7-1.5s-1,0-1.6,0.6
			c-0.2,0.2-0.3,0.3-0.3,0.5c0.3-1.5,1.1-2.9,2.3-3.9c0.1,0.2,0.4,0.5,0.8,0.5c0.7,0.1,1.3-0.4,1.3-0.4s-0.5-0.6-1.2-0.6
			c0,0-0.1,0-0.1,0c0.2-0.1,0.4-0.2,0.6-0.4c0.1,0.1,0.5,0.3,0.9,0.2c0.7-0.2,1.1-0.9,1.1-0.9s-0.7-0.4-1.4-0.2
			c-0.4,0.1-0.6,0.5-0.7,0.6c-0.2,0.1-0.3,0.2-0.5,0.3c0.1-0.1,0.1-0.1,0.2-0.2c0.3-0.6,0.1-1.4,0.1-1.4s-0.7,0.3-1.1,0.9
			c-0.3,0.5,0,1,0.1,1c0,0,0.2,0,0.3,0c-0.4,0.3-0.8,0.7-1.2,1.1c0.1-0.2,0.2-0.5,0.1-0.8c-0.1-0.8-0.8-1.4-0.8-1.4
			s-0.5,0.8-0.4,1.6c0.1,0.6,0.6,1,0.8,1c0,0,0,0,0.1,0c-0.8,1.1-1.4,2.3-1.5,3.7c0-0.3-0.1-0.6-0.3-0.9c-0.6-0.7-1.8-0.9-1.8-0.9
			s0,1.1,0.6,1.9c0.5,0.6,1.2,0.5,1.4,0.4c0,0,0.1-0.2,0.1-0.3c0,0.2,0,0.3,0,0.5c0,1.4,0.4,2.7,1.1,3.8c-0.1-0.1-0.3-0.1-0.5-0.1
			c-1-0.1-1.9,0.5-1.9,0.5s0.7,0.9,1.7,1c0.7,0.1,1.2-0.3,1.3-0.5c0.4,0.4,0.8,0.8,1.2,1.1c-0.2,0-0.4-0.1-0.6,0
			c-1,0.2-1.6,1.1-1.6,1.1s0.9,0.6,1.9,0.4c0.7-0.1,1.1-0.8,1.1-1c0,0,0,0,0-0.1c0.6,0.4,1.4,0.6,2.1,0.7c-0.6,0.1-1,0.4-1.4,0.8
			c0,0,0,0.1,0,0.2c0,0,0.6,0,0.6,0c0.3-0.6,1.2-0.8,1.6-0.8c0.3,0.1,1.3,0.3,1.6,0.8c0,0,0.6,0,0.6,0c0,0,0-0.1,0-0.2
			c-0.4-0.4-0.8-0.6-1.4-0.8c0.8-0.1,1.5-0.4,2.1-0.7c0,0,0,0,0,0.1c0,0.2,0.3,0.8,1.1,1c1,0.2,1.9-0.4,1.9-0.4s-0.7-0.9-1.6-1.1
			c-0.2,0-0.4,0-0.6,0c0.4-0.3,0.9-0.7,1.2-1.1c0.1,0.2,0.6,0.6,1.3,0.5c1-0.1,1.7-1,1.7-1s-0.9-0.6-1.9-0.5c-0.2,0-0.3,0.1-0.5,0.1
			c0.7-1.1,1.1-2.4,1.1-3.8c0-0.2,0-0.3,0-0.5c0,0.2,0.1,0.3,0.1,0.3c0.1,0.1,0.9,0.1,1.4-0.4c0.6-0.7,0.6-1.9,0.6-1.9
			S41,38.3,40.3,39C40,39.3,40,39.7,40,40z"/>
	</mask>
	<path class="st3" d="M40,40c-0.1-1.4-0.7-2.7-1.5-3.7c0,0,0,0,0.1,0c0.1,0,0.7-0.3,0.8-1c0.1-0.8-0.4-1.6-0.4-1.6s-0.7,0.6-0.8,1.4
		c0,0.3,0,0.6,0.1,0.8c-0.4-0.4-0.8-0.8-1.2-1.1c0.1,0,0.2,0,0.3,0c0.1-0.1,0.3-0.5,0.1-1c-0.3-0.6-1.1-0.9-1.1-0.9
		s-0.2,0.8,0.1,1.4c0,0.1,0.1,0.2,0.2,0.2c-0.2-0.1-0.3-0.2-0.5-0.3c-0.1-0.2-0.3-0.5-0.7-0.6c-0.7-0.2-1.4,0.2-1.4,0.2
		s0.4,0.7,1.1,0.9c0.4,0.1,0.8-0.1,0.9-0.2c0.2,0.1,0.4,0.2,0.6,0.4c0,0-0.1,0-0.1,0c-0.7,0.1-1.2,0.6-1.2,0.6s0.6,0.5,1.3,0.4
		c0.4,0,0.7-0.3,0.8-0.5c1.2,1,2,2.4,2.3,3.9c-0.1-0.2-0.2-0.4-0.3-0.5c-0.6-0.6-1.6-0.6-1.6-0.6s0.1,1,0.7,1.5
		c0.5,0.4,1.1,0.4,1.2,0.3c0,0,0.1-0.2,0.1-0.3c0,0.3,0.1,0.6,0.1,0.9c0,1.3-0.4,2.6-1,3.7c0.1-0.3,0.1-0.7-0.1-1.2
		c-0.5-0.9-1.5-1.2-1.5-1.2s-0.3,1.1,0.2,1.9c0.4,0.6,1.1,0.8,1.2,0.7c-1.1,1.6-2.9,2.7-4.9,2.9l0,0c0,0,0,0-0.1,0c0,0,0,0-0.1,0
		l-0.1,0c-2.1-0.2-3.8-1.3-4.9-2.9c0.2,0.1,0.9-0.1,1.2-0.7c0.5-0.9,0.2-1.9,0.2-1.9s-1.1,0.3-1.5,1.2c-0.2,0.4-0.2,0.9-0.1,1.2
		c-0.7-1.1-1-2.3-1-3.7c0-0.3,0-0.6,0.1-0.9c0,0.2,0,0.3,0.1,0.3c0.1,0.1,0.7,0.2,1.2-0.3c0.6-0.6,0.7-1.5,0.7-1.5s-1,0-1.6,0.6
		c-0.2,0.2-0.3,0.3-0.3,0.5c0.3-1.5,1.1-2.9,2.3-3.9c0.1,0.2,0.4,0.5,0.8,0.5c0.7,0.1,1.3-0.4,1.3-0.4s-0.5-0.6-1.2-0.6
		c0,0-0.1,0-0.1,0c0.2-0.1,0.4-0.2,0.6-0.4c0.1,0.1,0.5,0.3,0.9,0.2c0.7-0.2,1.1-0.9,1.1-0.9s-0.7-0.4-1.4-0.2
		c-0.4,0.1-0.6,0.5-0.7,0.6c-0.2,0.1-0.3,0.2-0.5,0.3c0.1-0.1,0.1-0.1,0.2-0.2c0.3-0.6,0.1-1.4,0.1-1.4s-0.7,0.3-1.1,0.9
		c-0.3,0.5,0,1,0.1,1c0,0,0.2,0,0.3,0c-0.4,0.3-0.8,0.7-1.2,1.1c0.1-0.2,0.2-0.5,0.1-0.8c-0.1-0.8-0.8-1.4-0.8-1.4s-0.5,0.8-0.4,1.6
		c0.1,0.6,0.6,1,0.8,1c0,0,0,0,0.1,0c-0.8,1.1-1.4,2.3-1.5,3.7c0-0.3-0.1-0.6-0.3-0.9c-0.6-0.7-1.8-0.9-1.8-0.9s0,1.1,0.6,1.9
		c0.5,0.6,1.2,0.5,1.4,0.4c0,0,0.1-0.2,0.1-0.3c0,0.2,0,0.3,0,0.5c0,1.4,0.4,2.7,1.1,3.8c-0.1-0.1-0.3-0.1-0.5-0.1
		c-1-0.1-1.9,0.5-1.9,0.5s0.7,0.9,1.7,1c0.7,0.1,1.2-0.3,1.3-0.5c0.4,0.4,0.8,0.8,1.2,1.1c-0.2,0-0.4-0.1-0.6,0
		c-1,0.2-1.6,1.1-1.6,1.1s0.9,0.6,1.9,0.4c0.7-0.1,1.1-0.8,1.1-1c0,0,0,0,0-0.1c0.6,0.4,1.4,0.6,2.1,0.7c-0.6,0.1-1,0.4-1.4,0.8
		c0,0,0,0.1,0,0.2c0,0,0.6,0,0.6,0c0.3-0.6,1.2-0.8,1.6-0.8c0.3,0.1,1.3,0.3,1.6,0.8c0,0,0.6,0,0.6,0c0,0,0-0.1,0-0.2
		c-0.4-0.4-0.8-0.6-1.4-0.8c0.8-0.1,1.5-0.4,2.1-0.7c0,0,0,0,0,0.1c0,0.2,0.3,0.8,1.1,1c1,0.2,1.9-0.4,1.9-0.4s-0.7-0.9-1.6-1.1
		c-0.2,0-0.4,0-0.6,0c0.4-0.3,0.9-0.7,1.2-1.1c0.1,0.2,0.6,0.6,1.3,0.5c1-0.1,1.7-1,1.7-1s-0.9-0.6-1.9-0.5c-0.2,0-0.3,0.1-0.5,0.1
		c0.7-1.1,1.1-2.4,1.1-3.8c0-0.2,0-0.3,0-0.5c0,0.2,0.1,0.3,0.1,0.3c0.1,0.1,0.9,0.1,1.4-0.4c0.6-0.7,0.6-1.9,0.6-1.9
		S41,38.3,40.3,39C40,39.3,40,39.7,40,40z"/>
	<path class="st1" d="M40.3,41.4L40.3,41.4c0.5-0.3,1-0.4,1.4-0.4c0.2,0,0.4,0,0.5,0c0.1,0,0.1,0,0.1,0c0,0,0,0,0,0l0,0l0,0l0,0l0,0
		h0c0,0,0,0-0.1,0.2 M40.3,41.4L39.6,43c0,0.1,0.1,0.1,0.1,0.1c0,0,0.1,0.1,0.2,0.1c0.1,0.1,0.3,0.1,0.4,0.1c0.3,0,0.7,0,1.1-0.2
		l0,0c0.5-0.3,0.8-0.7,1-1.1c0.1-0.2,0.2-0.3,0.2-0.5c0-0.1,0-0.1,0.1-0.1c0,0,0,0,0,0l0,0l0,0l0,0l0,0l0,0c0,0,0,0-0.2-0.1
		 M40.3,41.4c-0.4,0.2-0.6,0.6-0.7,0.8 M40.3,41.4l-0.7,0.8 M42.4,41.3l0.1-0.2l0.3,0.1l-0.1,0.3L42.4,41.3z M39.6,42.2
		c-0.1,0.1-0.1,0.3-0.1,0.4 M39.6,42.2l-0.1,0.4 M39.5,42.7c0,0.1,0,0.1,0,0.2 M39.5,42.7l0,0.2 M39.5,42.8c0,0.1,0,0.1,0.1,0.2
		L39.5,42.8z"/>
	<path class="st1" d="M35.6,43.4c-0.2-0.1-0.2-0.1-0.2-0.1v0l0,0l0,0l0,0l0,0c0,0,0,0,0,0c0,0,0,0.1,0,0.1c0,0.1-0.1,0.3-0.1,0.5
		c0,0.4,0,0.9,0.3,1.4l0,0c0.2,0.4,0.5,0.6,0.8,0.8c0.1,0.1,0.3,0.1,0.4,0.1c0.1,0,0.1,0,0.2,0c0.1,0,0.1,0,0.2,0
		c0.1,0,0.1-0.1,0.1-0.1c0,0,0.1-0.1,0.1-0.1c0.1-0.1,0.1-0.2,0.1-0.4c0.1-0.3,0.1-0.7-0.1-1.1c-0.3-0.5-0.7-0.8-1-1.1
		c-0.2-0.1-0.3-0.2-0.4-0.2c-0.1,0-0.1,0-0.1-0.1c0,0,0,0,0,0l0,0l0,0l0,0l0,0h0C35.7,43.1,35.7,43.1,35.6,43.4z M35.6,43.4
		l-0.2-0.1l0.1-0.3l0.3,0.1L35.6,43.4z M35.5,43.6L35.5,43.6L35.5,43.6L35.5,43.6z M35.5,43.6C35.5,43.6,35.5,43.6,35.5,43.6
		L35.5,43.6z"/>
	<path class="st1" d="M40.8,35.3l0.2-0.1L40.9,35l-0.2,0.1L40.8,35.3z M40.8,35.3c-0.1-0.2-0.1-0.2-0.1-0.2l0,0l0,0l0,0l0,0l0,0
		c0,0,0,0,0,0c0,0-0.1,0-0.1,0.1c-0.1,0.1-0.3,0.2-0.4,0.3c-0.3,0.2-0.7,0.6-0.9,1.1l0.2,0.1l-0.2-0.1C39,37,39,37.4,39.1,37.7
		c0,0.2,0.1,0.3,0.2,0.4c0,0.1,0.1,0.1,0.1,0.1c0,0,0.1,0.1,0.2,0.1l0.1-0.2l-0.1,0.2c0.1,0,0.1,0,0.2,0c0.1,0,0.1,0,0.2,0
		c0.1,0,0.3-0.1,0.4-0.2c0.3-0.2,0.6-0.4,0.7-0.8l0,0c0.2-0.5,0.2-1.1,0.1-1.4c0-0.2-0.1-0.4-0.1-0.5c0-0.1,0-0.1,0-0.1c0,0,0,0,0,0
		l0,0l0,0l0,0l0,0l0,0C41,35.2,41,35.2,40.8,35.3z"/>
	<path class="st1" d="M30.6,36.4c0.2,0.1,0.2,0.1,0.2,0.1l0,0l0,0l0,0l0,0l0,0c0,0,0,0,0,0c0,0,0,0.1-0.1,0.1
		c-0.1,0.1-0.1,0.2-0.2,0.4c-0.2,0.3-0.5,0.6-1,0.8c-0.4,0.2-0.7,0.1-1,0.1c-0.1,0-0.2-0.1-0.3-0.1c0,0-0.1-0.1-0.1-0.1
		c0,0-0.1-0.1-0.1-0.1l0,0c0-0.1,0-0.1,0-0.2c0-0.1,0-0.1,0-0.2c0-0.1,0.1-0.2,0.1-0.3c0.1-0.2,0.4-0.5,0.7-0.7
		c0.4-0.2,0.9-0.2,1.3-0.1c0.2,0,0.3,0.1,0.4,0.1c0.1,0,0.1,0,0.1,0c0,0,0,0,0,0l0,0l0,0l0,0l0,0h0C30.7,36.2,30.7,36.2,30.6,36.4z
		 M30.6,36.4l0.2,0.1l0.1-0.2l-0.3-0.1L30.6,36.4z M30.4,36.3C30.4,36.3,30.4,36.3,30.4,36.3L30.4,36.3z"/>
	<path class="st1" d="M29,40.2c0.2,0,0.2,0,0.2,0v0l0,0l0,0l0,0l0,0c0,0,0,0,0,0c0,0,0,0.1,0,0.1c0,0.1,0,0.3,0,0.4
		c0,0.3-0.1,0.8-0.4,1.2l0,0c-0.2,0.3-0.5,0.5-0.8,0.6c-0.1,0-0.3,0.1-0.4,0.1c-0.1,0-0.1,0-0.2,0c0,0-0.1,0-0.2-0.1l0,0
		c-0.1,0-0.1-0.1-0.1-0.1c0,0-0.1-0.1-0.1-0.1c0-0.1-0.1-0.2-0.1-0.4c0-0.3,0-0.6,0.2-0.9c0.3-0.4,0.7-0.7,1-0.8
		c0.2-0.1,0.3-0.1,0.4-0.2c0.1,0,0.1,0,0.1,0c0,0,0,0,0,0l0,0l0,0l0,0l0,0h0C29,39.9,29,39.9,29,40.2z M29,40.2l0.2,0l0-0.3L29,39.9
		L29,40.2z"/>
	<path class="st1" d="M27.4,43L27.4,43c0,0.1-0.1,0.1-0.1,0.1c0,0-0.1,0.1-0.2,0.1c-0.1,0.1-0.3,0.1-0.4,0.1c-0.3,0-0.7,0-1.1-0.2
		L27.4,43z M27.4,43c0-0.1,0.1-0.1,0.1-0.2c0-0.1,0-0.1,0-0.2c0-0.1,0-0.3-0.1-0.4c-0.1-0.3-0.3-0.6-0.7-0.8l0,0 M27.4,43l-0.8-1.6
		 M26.7,41.4c-0.5-0.3-1-0.4-1.4-0.4 M26.7,41.4L25.3,41 M24.6,41.3l-0.1-0.2l-0.3,0.1l0.1,0.3L24.6,41.3z M24.6,41.3
		c-0.1-0.2-0.1-0.2-0.1-0.2 M24.6,41.3l-0.1-0.2 M24.6,41.3c-0.2,0.1-0.2,0.1-0.2,0.1 M24.6,41.3l-0.2,0.1 M25.3,41
		c-0.2,0-0.4,0-0.5,0 M25.3,41l-0.5,0 M24.8,41.1c-0.1,0-0.1,0-0.1,0 M24.8,41.1l-0.1,0 M24.6,41.1C24.6,41.1,24.6,41.1,24.6,41.1
		 M24.6,41.1L24.6,41.1 M24.6,41.1L24.6,41.1 M24.6,41.1L24.6,41.1 M24.6,41.1L24.6,41.1 M24.6,41.1L24.6,41.1 M24.6,41.1L24.6,41.1
		 M24.6,41.1L24.6,41.1 M24.6,41.1L24.6,41.1 M24.6,41.1L24.6,41.1 M24.6,41.1L24.6,41.1 M24.6,41.1L24.6,41.1 M24.4,41.4L24.4,41.4
		 M24.4,41.4L24.4,41.4 M24.4,41.4L24.4,41.4 M24.4,41.4L24.4,41.4 M24.4,41.4L24.4,41.4 M24.4,41.4L24.4,41.4 M24.4,41.4L24.4,41.4
		 M24.4,41.4L24.4,41.4 M24.4,41.4L24.4,41.4 M24.4,41.4L24.4,41.4 M24.4,41.4C24.4,41.4,24.4,41.5,24.4,41.4 M24.4,41.4L24.4,41.4
		 M24.4,41.5c0,0,0,0.1,0.1,0.1 M24.4,41.5l0.1,0.1 M24.5,41.6c0,0.1,0.1,0.3,0.2,0.5 M24.5,41.6l0.2,0.5 M24.7,42.1
		c0.2,0.3,0.5,0.8,1,1.1L24.7,42.1z M24.7,41.6L24.7,41.6L24.7,41.6L24.7,41.6z"/>
	<path class="st1" d="M31.4,45.4L31.4,45.4c-0.2,0.4-0.5,0.6-0.8,0.8c-0.1,0.1-0.3,0.1-0.4,0.1c-0.1,0-0.1,0-0.2,0
		c-0.1,0-0.1,0-0.2,0 M31.4,45.4l-1.8-0.9c-0.2,0.4-0.2,0.8-0.1,1.1c0,0.2,0.1,0.3,0.1,0.4c0,0.1,0.1,0.1,0.1,0.1
		c0,0,0.1,0.1,0.1,0.1 M31.4,45.4c0.3-0.5,0.3-1,0.3-1.4 M31.4,45.4l0.3-1.4 M29.9,46.3l0.1-0.2L29.9,46.3
		C29.9,46.3,29.9,46.3,29.9,46.3z M31.4,43.4l0.2-0.1L31.5,43l-0.3,0.1L31.4,43.4z M31.4,43.4c0.2-0.1,0.2-0.1,0.2-0.1 M31.4,43.4
		l0.2-0.1 M31.4,43.4c-0.1-0.2-0.1-0.2-0.1-0.2 M31.4,43.4l-0.1-0.2 M31.7,44c0-0.2,0-0.4-0.1-0.5 M31.7,44l-0.1-0.5 M31.6,43.5
		c0-0.1,0-0.1,0-0.1 M31.6,43.5l0-0.1 M31.6,43.3C31.6,43.3,31.6,43.3,31.6,43.3 M31.6,43.3L31.6,43.3 M31.6,43.3L31.6,43.3
		 M31.6,43.3L31.6,43.3 M31.6,43.3L31.6,43.3 M31.6,43.3L31.6,43.3 M31.6,43.3L31.6,43.3 M31.6,43.3L31.6,43.3 M31.6,43.3L31.6,43.3
		 M31.6,43.3L31.6,43.3 M31.6,43.3L31.6,43.3 M31.6,43.3L31.6,43.3 M31.3,43.1L31.3,43.1 M31.3,43.1L31.3,43.1 M31.3,43.1L31.3,43.1
		 M31.3,43.1L31.3,43.1 M31.3,43.1L31.3,43.1 M31.3,43.1L31.3,43.1 M31.3,43.1L31.3,43.1 M31.3,43.1L31.3,43.1 M31.3,43.1L31.3,43.1
		 M31.3,43.1L31.3,43.1 M31.3,43.1C31.2,43.1,31.2,43.1,31.3,43.1 M31.3,43.1L31.3,43.1 M31.2,43.1c0,0-0.1,0-0.1,0.1 M31.2,43.1
		l-0.1,0.1 M31.1,43.2c-0.1,0.1-0.3,0.1-0.4,0.2 M31.1,43.2l-0.4,0.2 M30.6,43.5c-0.3,0.2-0.7,0.6-1,1.1L30.6,43.5z"/>
	<path class="st1" d="M27.5,38.3L27.5,38.3c-0.1,0-0.1,0-0.2,0c-0.1,0-0.1,0-0.2,0c-0.1,0-0.3-0.1-0.4-0.2c-0.3-0.2-0.6-0.4-0.7-0.8
		l0,0c-0.2-0.5-0.2-1.1-0.1-1.4c0-0.2,0.1-0.4,0.1-0.5c0-0.1,0-0.1,0-0.1c0,0,0,0,0,0l0,0l0,0l0,0l0,0v0c0,0,0,0,0.2,0.1 M27.5,38.3
		l0.4-1.7c-0.2-0.5-0.6-0.9-0.9-1.1c-0.2-0.1-0.3-0.2-0.4-0.3c-0.1,0-0.1-0.1-0.1-0.1c0,0,0,0,0,0l0,0l0,0l0,0l0,0l0,0
		c0,0,0,0-0.1,0.2 M27.5,38.3c0.1,0,0.1-0.1,0.2-0.1 M27.5,38.3l0.2-0.1 M26.2,35.3L26,35.2l0.1-0.3l0.2,0.1L26.2,35.3z M26.1,35.5
		L26.1,35.5L26.1,35.5L26.1,35.5z M26.1,35.5C26.1,35.5,26.1,35.5,26.1,35.5L26.1,35.5z M27.6,38.2c0,0,0.1-0.1,0.1-0.1 M27.6,38.2
		l0.1-0.1 M27.7,38.1c0.1-0.1,0.1-0.2,0.2-0.4 M27.7,38.1l0.2-0.4 M27.9,37.7c0.1-0.3,0.1-0.7-0.1-1.1L27.9,37.7z"/>
	<path class="st1" d="M33.5,29.4c-6.1,0-11,4.9-11,11c0,6.1,4.9,11,11,11s11-4.9,11-11C44.5,34.3,39.6,29.4,33.5,29.4z M33.5,50.3
		c-5.4,0-9.8-4.4-9.8-9.8c0-5.4,4.4-9.8,9.8-9.8c5.4,0,9.8,4.4,9.8,9.8C43.3,45.8,38.9,50.3,33.5,50.3z"/>
	<path class="st1" d="M51.2,21.7l0.1-0.1l-0.1-0.2l-4-6.7l-0.1-0.1H47H20h0h-0.1l-0.1,0.1l-4,6.7l0,0.1v0.1v0v0.1l0.1,0.1l9.7,10.5
		l0.2,0.2l0.2-0.2l0,0c0.2-0.1,0.3-0.3,0.5-0.4l0.2-0.2l-0.2-0.2l-9.2-10.1l3-5L32,29.2l0.1,0.1l0.1,0c0.3,0,0.6,0,0.8-0.1l0.5,0
		l0.5,0c0.3,0,0.6,0,0.8,0.1l0.1,0l0.1-0.1l11.8-12.9l3,5.1l-9.2,10l-0.2,0.2l0.2,0.2c0.2,0.1,0.3,0.3,0.5,0.4l0.2,0.2l0.2-0.2
		L51.2,21.7z M26.8,21.8h13.4l-6.4,7l-0.3,0.3l-0.3-0.3L26.8,21.8z M45.8,15.7l-4.5,4.9H25.7l-4.5-4.9H45.8z"/>
	<path class="st4" d="M65.6,29h-2.2l4.1-11.6h2.6L74.2,29h-2.2l-3.1-9.2h-0.1L65.6,29z M65.7,24.4h6.1v1.7h-6.1V24.4z M76.3,29
		l-2.5-8.7H76l1.5,6.1h0.1l1.6-6.1h2.1l1.6,6.1h0.1l1.5-6.1h2.1L84,29h-2.1l-1.6-5.9h-0.1L78.5,29H76.3z M90.4,29.2
		c-0.6,0-1.1-0.1-1.5-0.3c-0.4-0.2-0.8-0.5-1-0.9c-0.3-0.4-0.4-0.9-0.4-1.4c0-0.5,0.1-0.9,0.3-1.2c0.2-0.3,0.4-0.6,0.7-0.8
		c0.3-0.2,0.7-0.3,1.1-0.4c0.4-0.1,0.8-0.2,1.2-0.2c0.5-0.1,0.9-0.1,1.2-0.1c0.3,0,0.5-0.1,0.7-0.2c0.1-0.1,0.2-0.2,0.2-0.4v0
		c0-0.4-0.1-0.8-0.4-1c-0.3-0.2-0.6-0.4-1.1-0.4c-0.5,0-0.9,0.1-1.2,0.3c-0.3,0.2-0.5,0.5-0.6,0.8l-1.9-0.3c0.2-0.5,0.4-1,0.8-1.3
		c0.3-0.4,0.8-0.6,1.3-0.8c0.5-0.2,1.1-0.3,1.7-0.3c0.4,0,0.8,0,1.3,0.1c0.4,0.1,0.8,0.3,1.1,0.5c0.3,0.2,0.6,0.5,0.8,0.9
		c0.2,0.4,0.3,0.9,0.3,1.4V29h-2v-1.2H93c-0.1,0.2-0.3,0.5-0.5,0.7c-0.2,0.2-0.5,0.4-0.8,0.5C91.3,29.1,90.9,29.2,90.4,29.2z
		 M91,27.7c0.4,0,0.8-0.1,1.1-0.2c0.3-0.2,0.5-0.4,0.7-0.7c0.2-0.3,0.2-0.6,0.2-0.9v-1c-0.1,0.1-0.2,0.1-0.3,0.1
		c-0.2,0-0.3,0.1-0.5,0.1c-0.2,0-0.4,0.1-0.6,0.1c-0.2,0-0.3,0-0.5,0.1c-0.3,0-0.6,0.1-0.8,0.2c-0.2,0.1-0.4,0.2-0.6,0.4
		c-0.1,0.2-0.2,0.4-0.2,0.6c0,0.4,0.1,0.7,0.4,0.9C90.2,27.6,90.5,27.7,91,27.7z M97.1,29v-8.7h2v1.5h0.1c0.2-0.5,0.4-0.9,0.8-1.2
		c0.4-0.3,0.8-0.4,1.3-0.4c0.1,0,0.2,0,0.4,0c0.1,0,0.3,0,0.4,0v1.9c-0.1,0-0.2-0.1-0.4-0.1c-0.2,0-0.4,0-0.5,0
		c-0.4,0-0.7,0.1-1,0.2c-0.3,0.2-0.5,0.4-0.7,0.7c-0.2,0.3-0.3,0.6-0.3,1V29H97.1z M106.3,29.2c-0.7,0-1.3-0.2-1.8-0.5
		c-0.5-0.4-1-0.9-1.3-1.5c-0.3-0.7-0.5-1.5-0.5-2.4c0-1,0.2-1.8,0.5-2.5c0.3-0.7,0.8-1.2,1.3-1.5c0.5-0.3,1.2-0.5,1.8-0.5
		c0.5,0,0.9,0.1,1.3,0.3c0.3,0.2,0.6,0.4,0.8,0.6c0.2,0.2,0.3,0.5,0.4,0.7h0.1v-4.4h2.1V29h-2v-1.4h-0.1c-0.1,0.2-0.3,0.4-0.5,0.7
		c-0.2,0.2-0.5,0.4-0.8,0.6C107.3,29.1,106.8,29.2,106.3,29.2z M106.9,27.5c0.4,0,0.8-0.1,1.1-0.4c0.3-0.2,0.5-0.6,0.7-1
		c0.2-0.4,0.2-0.9,0.2-1.5c0-0.6-0.1-1.1-0.2-1.5c-0.2-0.4-0.4-0.7-0.7-1c-0.3-0.2-0.7-0.3-1.1-0.3c-0.5,0-0.8,0.1-1.1,0.4
		c-0.3,0.2-0.5,0.6-0.7,1c-0.2,0.4-0.2,0.9-0.2,1.4c0,0.5,0.1,1,0.2,1.5c0.2,0.4,0.4,0.8,0.7,1C106.1,27.3,106.5,27.5,106.9,27.5z
		 M117,29.2c-0.9,0-1.6-0.2-2.3-0.5c-0.6-0.4-1.1-0.9-1.5-1.6c-0.3-0.7-0.5-1.5-0.5-2.4c0-0.9,0.2-1.7,0.5-2.4
		c0.3-0.7,0.8-1.2,1.4-1.6c0.6-0.4,1.3-0.6,2.2-0.6c0.5,0,1,0.1,1.5,0.3c0.5,0.2,0.9,0.4,1.3,0.8c0.4,0.4,0.7,0.8,0.9,1.4
		c0.2,0.6,0.3,1.2,0.3,2v0.6h-7.2v-1.4h5.2c0-0.4-0.1-0.7-0.3-1.1c-0.2-0.3-0.4-0.6-0.7-0.7c-0.3-0.2-0.6-0.3-1-0.3
		c-0.4,0-0.8,0.1-1.1,0.3c-0.3,0.2-0.6,0.5-0.7,0.8c-0.2,0.3-0.3,0.7-0.3,1.1v1.2c0,0.5,0.1,0.9,0.3,1.3c0.2,0.4,0.4,0.6,0.8,0.8
		c0.3,0.2,0.7,0.3,1.2,0.3c0.3,0,0.6,0,0.8-0.1c0.2-0.1,0.5-0.2,0.6-0.4c0.2-0.2,0.3-0.4,0.4-0.6l1.9,0.2c-0.1,0.5-0.4,1-0.7,1.3
		c-0.3,0.4-0.8,0.7-1.3,0.9C118.3,29.1,117.7,29.2,117,29.2z M125.9,29.2c-0.7,0-1.3-0.2-1.8-0.5c-0.5-0.4-1-0.9-1.3-1.5
		c-0.3-0.7-0.5-1.5-0.5-2.4c0-1,0.2-1.8,0.5-2.5c0.3-0.7,0.8-1.2,1.3-1.5c0.5-0.3,1.2-0.5,1.8-0.5c0.5,0,0.9,0.1,1.3,0.3
		c0.3,0.2,0.6,0.4,0.8,0.6c0.2,0.2,0.3,0.5,0.4,0.7h0.1v-4.4h2.1V29h-2v-1.4h-0.1c-0.1,0.2-0.3,0.4-0.5,0.7
		c-0.2,0.2-0.5,0.4-0.8,0.6C126.8,29.1,126.4,29.2,125.9,29.2z M126.5,27.5c0.4,0,0.8-0.1,1.1-0.4c0.3-0.2,0.5-0.6,0.7-1
		c0.2-0.4,0.2-0.9,0.2-1.5c0-0.6-0.1-1.1-0.2-1.5c-0.2-0.4-0.4-0.7-0.7-1c-0.3-0.2-0.7-0.3-1.1-0.3c-0.5,0-0.8,0.1-1.1,0.4
		c-0.3,0.2-0.5,0.6-0.7,1c-0.2,0.4-0.2,0.9-0.2,1.4c0,0.5,0.1,1,0.2,1.5c0.2,0.4,0.4,0.8,0.7,1C125.6,27.3,126,27.5,126.5,27.5z
		 M64.1,48V36.4h4.5c0.8,0,1.5,0.1,2.1,0.4c0.6,0.3,1,0.6,1.3,1.1c0.3,0.5,0.4,1,0.4,1.5c0,0.5-0.1,0.9-0.3,1.2
		c-0.2,0.3-0.4,0.6-0.7,0.8c-0.3,0.2-0.6,0.4-1,0.4V42c0.4,0,0.8,0.1,1.2,0.4c0.4,0.2,0.7,0.5,0.9,1c0.2,0.4,0.4,0.9,0.4,1.5
		c0,0.6-0.1,1.1-0.4,1.6c-0.3,0.5-0.7,0.9-1.3,1.1c-0.6,0.3-1.3,0.4-2.2,0.4H64.1z M66.3,46.2h2.3c0.8,0,1.3-0.1,1.7-0.4
		c0.3-0.3,0.5-0.7,0.5-1.1c0-0.3-0.1-0.7-0.3-0.9c-0.2-0.3-0.4-0.5-0.7-0.7c-0.3-0.2-0.7-0.2-1.1-0.2h-2.3V46.2z M66.3,41.3h2.1
		c0.4,0,0.7-0.1,1-0.2c0.3-0.1,0.5-0.3,0.7-0.6c0.2-0.2,0.3-0.5,0.3-0.9c0-0.5-0.2-0.8-0.5-1.1c-0.3-0.3-0.8-0.4-1.4-0.4h-2.1V41.3z
		 M78.4,48.2c-0.9,0-1.6-0.2-2.3-0.5c-0.6-0.4-1.1-0.9-1.5-1.6c-0.3-0.7-0.5-1.5-0.5-2.4c0-0.9,0.2-1.7,0.5-2.4
		c0.3-0.7,0.8-1.2,1.4-1.6c0.6-0.4,1.3-0.6,2.2-0.6c0.5,0,1,0.1,1.5,0.3c0.5,0.2,0.9,0.4,1.3,0.8c0.4,0.4,0.7,0.8,0.9,1.4
		c0.2,0.6,0.3,1.2,0.3,2v0.6h-7.2v-1.4h5.2c0-0.4-0.1-0.7-0.3-1.1c-0.2-0.3-0.4-0.6-0.7-0.7c-0.3-0.2-0.6-0.3-1-0.3
		c-0.4,0-0.8,0.1-1.1,0.3c-0.3,0.2-0.6,0.5-0.7,0.8c-0.2,0.3-0.3,0.7-0.3,1.1v1.2c0,0.5,0.1,0.9,0.3,1.3c0.2,0.4,0.4,0.6,0.8,0.8
		c0.3,0.2,0.7,0.3,1.2,0.3c0.3,0,0.6,0,0.8-0.1c0.2-0.1,0.5-0.2,0.6-0.4c0.2-0.2,0.3-0.4,0.4-0.6l1.9,0.2c-0.1,0.5-0.4,1-0.7,1.3
		c-0.3,0.4-0.8,0.7-1.3,0.9C79.7,48.1,79.1,48.2,78.4,48.2z M91,41.6l-1.9,0.2c-0.1-0.2-0.1-0.4-0.3-0.5c-0.1-0.2-0.3-0.3-0.5-0.4
		c-0.2-0.1-0.5-0.2-0.8-0.2c-0.4,0-0.8,0.1-1.1,0.3c-0.3,0.2-0.4,0.4-0.4,0.7c0,0.3,0.1,0.5,0.3,0.6c0.2,0.2,0.5,0.3,1,0.4l1.5,0.3
		c0.8,0.2,1.4,0.5,1.8,0.8c0.4,0.4,0.6,0.9,0.6,1.5c0,0.5-0.2,1-0.5,1.5c-0.3,0.4-0.8,0.7-1.3,1c-0.6,0.2-1.2,0.4-1.9,0.4
		c-1.1,0-1.9-0.2-2.6-0.7c-0.7-0.5-1-1.1-1.2-1.9l2-0.2c0.1,0.4,0.3,0.7,0.6,0.9c0.3,0.2,0.7,0.3,1.2,0.3c0.5,0,0.9-0.1,1.2-0.3
		c0.3-0.2,0.4-0.4,0.4-0.7c0-0.2-0.1-0.5-0.3-0.6c-0.2-0.2-0.5-0.3-0.9-0.4l-1.5-0.3c-0.8-0.2-1.5-0.5-1.9-0.9
		c-0.4-0.4-0.6-0.9-0.6-1.6c0-0.5,0.1-1,0.4-1.4c0.3-0.4,0.7-0.7,1.2-0.9c0.5-0.2,1.1-0.3,1.8-0.3c1,0,1.8,0.2,2.4,0.7
		C90.4,40.2,90.8,40.8,91,41.6z M97.2,39.3v1.6h-5v-1.6H97.2z M93.4,37.2h2.1v8.2c0,0.3,0,0.5,0.1,0.6c0.1,0.1,0.2,0.2,0.3,0.3
		s0.3,0.1,0.5,0.1c0.1,0,0.2,0,0.4,0c0.1,0,0.2,0,0.2-0.1l0.3,1.6c-0.1,0-0.3,0.1-0.5,0.1c-0.2,0-0.4,0.1-0.7,0.1
		c-0.5,0-1-0.1-1.4-0.2c-0.4-0.2-0.7-0.4-1-0.8c-0.2-0.4-0.4-0.8-0.4-1.4V37.2z M103,48V36.4h4.5c0.8,0,1.5,0.1,2.1,0.4
		c0.6,0.3,1,0.6,1.3,1.1c0.3,0.5,0.4,1,0.4,1.5c0,0.5-0.1,0.9-0.3,1.2c-0.2,0.3-0.4,0.6-0.7,0.8c-0.3,0.2-0.6,0.4-1,0.4V42
		c0.4,0,0.8,0.1,1.2,0.4c0.4,0.2,0.7,0.5,0.9,1c0.2,0.4,0.4,0.9,0.4,1.5c0,0.6-0.1,1.1-0.4,1.6c-0.3,0.5-0.7,0.9-1.3,1.1
		c-0.6,0.3-1.3,0.4-2.2,0.4H103z M105.1,46.2h2.3c0.8,0,1.3-0.1,1.7-0.4c0.3-0.3,0.5-0.7,0.5-1.1c0-0.3-0.1-0.7-0.3-0.9
		c-0.2-0.3-0.4-0.5-0.7-0.7c-0.3-0.2-0.7-0.2-1.1-0.2h-2.3V46.2z M105.1,41.3h2.1c0.4,0,0.7-0.1,1-0.2c0.3-0.1,0.5-0.3,0.7-0.6
		c0.2-0.2,0.3-0.5,0.3-0.9c0-0.5-0.2-0.8-0.5-1.1c-0.3-0.3-0.8-0.4-1.4-0.4h-2.1V41.3z M113.4,48v-8.7h2v1.5h0.1
		c0.2-0.5,0.4-0.9,0.8-1.2c0.4-0.3,0.8-0.4,1.3-0.4c0.1,0,0.2,0,0.4,0c0.1,0,0.3,0,0.4,0v1.9c-0.1,0-0.2-0.1-0.4-0.1
		c-0.2,0-0.4,0-0.5,0c-0.4,0-0.7,0.1-1,0.2c-0.3,0.2-0.5,0.4-0.7,0.7c-0.2,0.3-0.3,0.6-0.3,1V48H113.4z M123.2,48.2
		c-0.9,0-1.6-0.2-2.2-0.6s-1.1-0.9-1.5-1.6c-0.3-0.7-0.5-1.5-0.5-2.4c0-0.9,0.2-1.7,0.5-2.4c0.3-0.7,0.8-1.2,1.5-1.6
		s1.4-0.6,2.2-0.6c0.9,0,1.6,0.2,2.2,0.6s1.1,0.9,1.4,1.6c0.3,0.7,0.5,1.5,0.5,2.4c0,0.9-0.2,1.7-0.5,2.4c-0.3,0.7-0.8,1.2-1.4,1.6
		S124,48.2,123.2,48.2z M123.2,46.5c0.5,0,0.8-0.1,1.2-0.4c0.3-0.3,0.5-0.6,0.7-1c0.2-0.4,0.2-0.9,0.2-1.4c0-0.5-0.1-1-0.2-1.4
		c-0.2-0.4-0.4-0.8-0.7-1c-0.3-0.3-0.7-0.4-1.2-0.4c-0.5,0-0.9,0.1-1.2,0.4c-0.3,0.3-0.5,0.6-0.7,1c-0.2,0.4-0.2,0.9-0.2,1.4
		c0,0.5,0.1,1,0.2,1.4c0.2,0.4,0.4,0.8,0.7,1C122.3,46.4,122.7,46.5,123.2,46.5z M131,45.3l0-2.5h0.3l3.1-3.5h2.4l-3.9,4.3h-0.4
		L131,45.3z M129.1,48V36.4h2.1V48H129.1z M134.6,48l-2.8-4l1.4-1.4l3.9,5.4H134.6z M141.7,48.2c-0.9,0-1.6-0.2-2.3-0.5
		c-0.6-0.4-1.1-0.9-1.5-1.6c-0.3-0.7-0.5-1.5-0.5-2.4c0-0.9,0.2-1.7,0.5-2.4c0.3-0.7,0.8-1.2,1.4-1.6c0.6-0.4,1.3-0.6,2.2-0.6
		c0.5,0,1,0.1,1.5,0.3c0.5,0.2,0.9,0.4,1.3,0.8c0.4,0.4,0.7,0.8,0.9,1.4c0.2,0.6,0.3,1.2,0.3,2v0.6h-7.2v-1.4h5.2
		c0-0.4-0.1-0.7-0.3-1.1c-0.2-0.3-0.4-0.6-0.7-0.7c-0.3-0.2-0.6-0.3-1-0.3c-0.4,0-0.8,0.1-1.1,0.3c-0.3,0.2-0.6,0.5-0.7,0.8
		c-0.2,0.3-0.3,0.7-0.3,1.1v1.2c0,0.5,0.1,0.9,0.3,1.3c0.2,0.4,0.4,0.6,0.8,0.8c0.3,0.2,0.7,0.3,1.2,0.3c0.3,0,0.6,0,0.8-0.1
		c0.2-0.1,0.5-0.2,0.6-0.4c0.2-0.2,0.3-0.4,0.4-0.6l1.9,0.2c-0.1,0.5-0.4,1-0.7,1.3c-0.3,0.4-0.8,0.7-1.3,0.9
		C143,48.1,142.4,48.2,141.7,48.2z M147.4,48v-8.7h2v1.5h0.1c0.2-0.5,0.4-0.9,0.8-1.2c0.4-0.3,0.8-0.4,1.3-0.4c0.1,0,0.2,0,0.4,0
		c0.1,0,0.3,0,0.4,0v1.9c-0.1,0-0.2-0.1-0.4-0.1c-0.2,0-0.4,0-0.5,0c-0.4,0-0.7,0.1-1,0.2c-0.3,0.2-0.5,0.4-0.7,0.7
		c-0.2,0.3-0.3,0.6-0.3,1V48H147.4z"/>
</g>
</svg>
