<?xml version="1.0" encoding="utf-8"?>
<!-- Generator: Adobe Illustrator 28.0.0, SVG Export Plug-In . SVG Version: 6.00 Build 0)  -->
<svg version="1.1" id="Layer_1" xmlns="http://www.w3.org/2000/svg" xmlns:xlink="http://www.w3.org/1999/xlink" x="0px" y="0px"
	 viewBox="0 0 63 63" style="enable-background:new 0 0 63 63;" xml:space="preserve">
<style type="text/css">
	.st0{fill:url(#SVGID_1_);}
	.st1{fill:#5285F7;fill-opacity:0.72;}
	.st2{fill:url(#SVGID_00000006705861368220332340000001707537088018954927_);fill-opacity:0.2;}
	.st3{fill:url(#SVGID_00000147207067738726547810000008610070555367296933_);fill-opacity:0.2;}
	.st4{fill:#FFFFFF;}
</style>
<g>
	
		<radialGradient id="SVGID_1_" cx="-264.8129" cy="722.6648" r="1" gradientTransform="matrix(22 76.5 53.6526 -15.4295 -32926.9766 31393.5801)" gradientUnits="userSpaceOnUse">
		<stop  offset="0" style="stop-color:#61CDFF"/>
		<stop  offset="1" style="stop-color:#305BF3"/>
	</radialGradient>
	<circle class="st0" cx="31.5" cy="31.5" r="31.5"/>
	<path class="st1" d="M29.7,33.2c-5.8,5-11.2,6.3-15.9,5.7C3.1,37.6-0.1,24.2,6,15.4C13.2,5.1,25.9-4,40,1.8c1.1,0.5,2.2,1,3.2,1.5
		C55.5,9.7,40.2,24.1,29.7,33.2z"/>
	
		<linearGradient id="SVGID_00000038398019823623019250000000543161566149811376_" gradientUnits="userSpaceOnUse" x1="24.6303" y1="554.8898" x2="24.6303" y2="535.9398" gradientTransform="matrix(1 0 0 -1 0 597.8898)">
		<stop  offset="0" style="stop-color:#59B3FD"/>
		<stop  offset="1" style="stop-color:#59B3FD;stop-opacity:0"/>
	</linearGradient>
	<path style="fill:url(#SVGID_00000038398019823623019250000000543161566149811376_);fill-opacity:0.2;" d="M18.7,44.4
		c2-0.6,4.1-1,6.2-1.2c16.7-1.5,19.9,20.1,3.3,18.7c-3.4,0.1-7.9-1.7-11.4-3.7c-2.5-1.4-5.4-2.7-6.5-5.4C9.3,50.3,10.4,47,18.7,44.4
		z"/>
	
		<linearGradient id="SVGID_00000163762371660079407060000013642674582298744756_" gradientUnits="userSpaceOnUse" x1="31" y1="579.3898" x2="31" y2="588.8898" gradientTransform="matrix(1 0 0 -1 0 597.8898)">
		<stop  offset="0" style="stop-color:#E7F5FC;stop-opacity:0"/>
		<stop  offset="1" style="stop-color:#39FEFE"/>
	</linearGradient>
	
		<ellipse style="fill:url(#SVGID_00000163762371660079407060000013642674582298744756_);fill-opacity:0.2;" cx="31" cy="13" rx="18" ry="12"/>
</g>
<path class="st4" d="M24.9,37.5H13.8c-0.7,0-1.3-0.3-1.8-0.8c-0.5-0.5-0.8-1.1-0.8-1.8v-5.1c0-0.7,0.3-1.3,0.8-1.8
	c0.5-0.5,1.1-0.8,1.8-0.8h11.1c0.7,0,1.3,0.3,1.8,0.8c0.5,0.5,0.8,1.1,0.8,1.8v5.1c0,0.7-0.3,1.3-0.8,1.8
	C26.3,37.2,25.6,37.5,24.9,37.5z M13.8,28.9c-0.2,0-0.4,0.1-0.6,0.3c-0.2,0.2-0.2,0.4-0.2,0.6v5.1c0,0.2,0.1,0.4,0.2,0.6
	c0.2,0.2,0.4,0.3,0.6,0.3h11.1c0.2,0,0.4-0.1,0.6-0.3c0.2-0.2,0.2-0.4,0.2-0.6v-5.1c0-0.2-0.1-0.4-0.2-0.6c-0.2-0.2-0.4-0.3-0.6-0.3
	H13.8z"/>
<path class="st4" d="M28.4,24.7h-8.5c-0.2,0-0.3-0.1-0.5-0.1c-0.1-0.1-0.2-0.2-0.3-0.4C19,24,18.9,23.8,19,23.6
	c0-0.2,0.1-0.3,0.2-0.4l8.5-8.5c0.1-0.1,0.3-0.2,0.4-0.2c0.2,0,0.3,0,0.5,0.1c0.2,0.1,0.3,0.2,0.4,0.3c0.1,0.1,0.1,0.3,0.1,0.5v8.5
	c0,0.2-0.1,0.4-0.2,0.6C28.8,24.6,28.6,24.7,28.4,24.7z M21.9,23h5.6v-5.6L21.9,23z"/>
<path class="st4" d="M15.8,30c0.2,0,0.4,0,0.6,0.1c0.2,0.1,0.3,0.2,0.5,0.3c0.1,0.1,0.3,0.3,0.3,0.5c0.1,0.2,0.1,0.4,0.1,0.5
	c0,0.2,0,0.4-0.1,0.5c-0.1,0.2-0.2,0.3-0.3,0.5c-0.1,0.1-0.3,0.2-0.5,0.3c-0.2,0.1-0.4,0.1-0.5,0.1H15v1.4h-0.9V30H15.8z M15.8,32.1
	c0.1,0,0.2,0,0.2,0c0.1,0,0.1-0.1,0.2-0.1c0.1-0.1,0.1-0.1,0.1-0.2c0-0.1,0-0.2,0-0.2c0-0.1,0-0.2,0-0.2c0-0.1-0.1-0.2-0.1-0.2
	c-0.1-0.1-0.1-0.1-0.2-0.1c-0.1,0-0.2,0-0.2,0H15v1.3H15.8z"/>
<path class="st4" d="M19.4,30c0.3,0,0.5,0,0.8,0.2c0.2,0.1,0.5,0.3,0.7,0.5c0.4,0.4,0.6,0.9,0.6,1.5c0,0.6-0.2,1.1-0.6,1.5
	c-0.2,0.2-0.4,0.4-0.7,0.5c-0.2,0.1-0.5,0.2-0.8,0.1h-1.7V30H19.4z M19.4,33.5c0.2,0,0.3,0,0.5-0.1c0.1-0.1,0.3-0.2,0.4-0.3
	c0.2-0.3,0.3-0.6,0.3-0.9c0-0.3-0.1-0.7-0.3-0.9c-0.1-0.1-0.2-0.2-0.4-0.3c-0.1-0.1-0.3-0.1-0.5-0.1h-0.9v2.6H19.4z"/>
<path class="st4" d="M24.5,30.8h-1.7v1h1.6v0.8h-1.6v1.6H22V30h2.5V30.8z"/>
<path class="st4" d="M41.2,47.7h-5.6c-0.2,0-0.4-0.1-0.6-0.2c-0.2-0.2-0.2-0.4-0.2-0.6c0-0.2,0.1-0.4,0.2-0.6
	c0.2-0.2,0.4-0.2,0.6-0.2h5.6c0.2,0,0.4-0.1,0.6-0.2c0.2-0.2,0.2-0.4,0.2-0.6V17c0-0.2-0.1-0.4-0.2-0.6c-0.2-0.2-0.4-0.3-0.6-0.3
	H28.7l-8,8v3.9c0,0.2-0.1,0.4-0.2,0.6c-0.2,0.2-0.4,0.2-0.6,0.2c-0.2,0-0.4-0.1-0.6-0.2C19,28.5,19,28.3,19,28.1v-4.3
	c0-0.1,0-0.2,0.1-0.3c0-0.1,0.1-0.2,0.2-0.3l8.5-8.5c0.1-0.1,0.2-0.1,0.3-0.2c0.1,0,0.2-0.1,0.3-0.1h12.8c0.7,0,1.3,0.3,1.8,0.8
	c0.5,0.5,0.8,1.1,0.8,1.8v28.2c0,0.7-0.3,1.3-0.8,1.8C42.5,47.5,41.8,47.7,41.2,47.7z"/>
<path class="st4" d="M33.1,47.7H21.5c-0.7,0-1.3-0.3-1.8-0.8c-0.5-0.5-0.8-1.1-0.8-1.8v-8.5c0-0.2,0.1-0.4,0.2-0.6
	c0.2-0.2,0.4-0.2,0.6-0.2c0.2,0,0.4,0.1,0.6,0.2c0.2,0.2,0.2,0.4,0.2,0.6v8.5c0,0.2,0.1,0.4,0.2,0.6c0.2,0.2,0.4,0.3,0.6,0.3h11.6
	c0.2,0,0.4,0.1,0.6,0.2c0.2,0.2,0.2,0.4,0.2,0.6c0,0.2-0.1,0.4-0.2,0.6C33.6,47.6,33.3,47.7,33.1,47.7z"/>
<path class="st4" d="M34.3,49.4c-0.1,0-0.3,0-0.4-0.1c-0.1-0.1-0.2-0.2-0.3-0.3l-4.3-6c-0.1-0.1-0.1-0.3-0.2-0.4
	c0-0.2,0-0.3,0.1-0.5c0.1-0.1,0.2-0.3,0.3-0.3c0.1-0.1,0.3-0.1,0.4-0.1h0.9v-4.3c0-0.2,0.1-0.4,0.2-0.6c0.2-0.2,0.4-0.2,0.6-0.2h5.1
	c0.2,0,0.4,0.1,0.6,0.2c0.2,0.2,0.3,0.4,0.3,0.6v4.3h0.9c0.2,0,0.3,0,0.4,0.1c0.1,0.1,0.2,0.2,0.3,0.3c0.1,0.1,0.1,0.3,0.1,0.5
	c0,0.2-0.1,0.3-0.2,0.4l-4.3,6c-0.1,0.1-0.2,0.2-0.3,0.3C34.6,49.4,34.5,49.4,34.3,49.4z M31.7,43.5l2.6,3.7l2.6-3.7h-0.1
	c-0.2,0-0.4-0.1-0.6-0.2C36.1,43,36,42.8,36,42.6v-4.3h-3.4v4.3c0,0.2-0.1,0.4-0.3,0.6C32.2,43.4,32,43.5,31.7,43.5L31.7,43.5z"/>
</svg>
