<?xml version="1.0" encoding="utf-8"?>
<!-- Generator: Adobe Illustrator 28.0.0, SVG Export Plug-In . SVG Version: 6.00 Build 0)  -->
<svg version="1.1" id="Layer_1" xmlns="http://www.w3.org/2000/svg" xmlns:xlink="http://www.w3.org/1999/xlink" x="0px" y="0px"
	 viewBox="0 0 192 68" style="enable-background:new 0 0 192 68;" xml:space="preserve">
<style type="text/css">
	.st0{fill:#FAFAFA;fill-opacity:0.3;}
	.st1{clip-path:url(#SVGID_00000088836153296762283050000002063828624008903345_);}
	.st2{fill:#1EE981;}
	.st3{fill:#FFFFFF;}
</style>
<g>
	<g>
		<path shape-rendering="crispEdges" class="st0" d="M10,0h172c5.5,0,10,4.5,10,10v48c0,5.5-4.5,10-10,10H10C4.5,68,0,63.5,0,58V10
			C0,4.5,4.5,0,10,0z"/>
	</g>
	<g>
		<defs>
			<rect id="SVGID_1_" x="18" y="15" width="38" height="38"/>
		</defs>
		<clipPath id="SVGID_00000173130575836799042360000008322294703498051514_">
			<use xlink:href="#SVGID_1_"  style="overflow:visible;"/>
		</clipPath>
		<g style="clip-path:url(#SVGID_00000173130575836799042360000008322294703498051514_);">
			<path class="st2" d="M37.5,15c0.4,0.5,0.8,0.9,1.1,1.5c0.3,0.6,0.6,1.3,0.9,1.9c1,0.3,2,0.3,3,0.5c0.5,0.1,0.8,0.3,1,0.7v1.1
				c-0.8,0.8-1.7,1.6-2.5,2.3c0.2,1.2,0.4,2.3,0.6,3.4c-0.2,0.3-0.5,0.7-0.7,1h-1.1c-0.8-0.4-1.5-0.8-2.2-1.2
				c-0.4-0.2-0.8-0.2-1.2,0c-0.7,0.4-1.5,0.8-2.2,1.2h-1.1c-0.2-0.3-0.5-0.7-0.7-1c0.2-1.1,0.4-2.2,0.6-3.3
				c-0.8-0.8-1.7-1.6-2.5-2.4v-1.1c0.2-0.7,0.9-0.8,1.5-0.9c0.8-0.2,1.6-0.2,2.5-0.3c0.4-0.7,0.8-1.5,1.1-2.3
				c0.2-0.5,0.5-0.9,0.9-1.2H37.5L37.5,15z"/>
			<path class="st2" d="M18,23.1c0.2-0.2,0.3-0.4,0.5-0.6c1.1-0.2,2.3-0.4,3.5-0.6c0.7-1.1,0.9-2.5,2-3.3c0.6-0.3,1,0,1.5,0.3
				c0.5,1,1,2,1.5,3c1.1,0.2,2.3,0.4,3.5,0.6c0.2,0.3,0.5,0.7,0.8,1.1c-0.5,1.3-1.7,1.9-2.6,3.1c0.1,0.8,0.1,1.8,0.4,2.7
				c0.2,0.7,0,1.1-0.3,1.6c-0.3,0.1-0.6,0.2-1,0.3c-1-0.5-2.1-1.1-3.1-1.6c-1.1,0.6-2.2,1.1-3.4,1.7c-0.4-0.3-0.8-0.5-1.1-0.8
				c0.1-0.7-0.1-1.3,0.2-1.9c0.2-0.5,0.2-1.2,0.3-1.9c-0.8-0.8-1.7-1.6-2.5-2.4C18,23.9,18,23.5,18,23.1L18,23.1z"/>
			<path class="st2" d="M41,49.5c-1.1,1.1-2.2,2.3-3.3,3.4c-0.9,0.3-1.4-0.1-2-0.6c-0.9-0.9-1.8-1.9-2.8-2.8c-2.5,0-4.9,0-7.4,0
				c-1.5,0-2.8-0.5-3.6-1.9c-0.1-0.3-0.5-1.3-0.5-1.7c0-3.2,0-6.3,0-9.5c0-1.4,0.7-2.4,1.9-3.1c0.3-0.2,0.5-0.3,0.9-0.5h1.2
				c7.7,0,15.4,0,23.2,0c0.5,0,0.9,0,1.4,0.1c1.4,0.4,2.6,2,2.6,3.4c0,3.2,0,6.3,0,9.5c0,1.5-0.8,2.7-2.2,3.4
				c-0.5,0.2-1.2,0.3-1.8,0.3C46.1,49.5,43.6,49.5,41,49.5L41,49.5z M47.7,43.9c0-0.4,0-0.6,0-0.8c-0.3-0.3-0.5-0.5-0.8-0.7H27.1
				c-0.2,0.2-0.5,0.5-0.7,0.7v0.9c0.3,0.3,0.6,0.5,0.8,0.7h19.8C47.2,44.4,47.4,44.2,47.7,43.9L47.7,43.9z M26.3,38.7
				c0.2,0.4,0.4,0.7,0.6,1h20.3c0.2-0.3,0.3-0.7,0.5-1c-0.2-0.4-0.4-0.7-0.5-1H26.8C26.7,38.1,26.5,38.4,26.3,38.7L26.3,38.7z"/>
			<path class="st2" d="M42.8,23.5c0.3-0.4,0.5-0.7,0.7-1.1c1.2-0.2,2.3-0.4,3.5-0.6c0.5-1,1-2,1.5-3c0.3-0.1,0.5-0.3,0.8-0.5
				c0.6,0.1,1.1,0.4,1.4,1c0.4,0.8,0.8,1.6,1.2,2.5c1.1,0.2,2.3,0.4,3.5,0.6c0.6,0.4,0.6,1,0.5,1.9c-0.7,0.7-1.6,1.5-2.4,2.2
				c0.2,1.4,0.4,2.5,0.5,3.8c-0.4,0.3-0.8,0.6-1.2,0.9c-1.1-0.6-2.2-1.1-3.4-1.7c-1.1,0.5-2.2,1.1-3.1,1.6c-0.4-0.1-0.6-0.2-0.9-0.3
				C45,30.4,44.8,30,45,29.3c0.3-0.8,0.3-1.8,0.4-2.6C44.6,25.5,43.4,24.9,42.8,23.5z"/>
		</g>
	</g>
	<path class="st3" d="M68.7,42.2v-0.9h6.5v0.9h-2.7V50h-1.1v-7.8H68.7z M76.1,50v-6.5h1v1h0.1c0.1-0.3,0.3-0.6,0.6-0.8
		c0.3-0.2,0.7-0.3,1.1-0.3c0.1,0,0.2,0,0.3,0c0.1,0,0.2,0,0.3,0v1c0,0-0.1,0-0.2,0c-0.1,0-0.2,0-0.4,0c-0.3,0-0.6,0.1-0.9,0.2
		c-0.2,0.1-0.4,0.3-0.6,0.5c-0.1,0.2-0.2,0.5-0.2,0.8V50H76.1z M82.5,50.2c-0.4,0-0.8-0.1-1.1-0.2c-0.3-0.2-0.6-0.4-0.8-0.7
		c-0.2-0.3-0.3-0.7-0.3-1.1c0-0.4,0.1-0.7,0.2-0.9c0.1-0.2,0.3-0.4,0.6-0.6c0.2-0.1,0.5-0.2,0.8-0.3c0.3-0.1,0.6-0.1,0.9-0.2
		c0.4-0.1,0.7-0.1,1-0.1c0.2,0,0.4-0.1,0.5-0.1c0.1-0.1,0.2-0.2,0.2-0.3v0c0-0.4-0.1-0.7-0.3-1c-0.2-0.2-0.6-0.3-1-0.3
		c-0.5,0-0.9,0.1-1.1,0.3c-0.3,0.2-0.5,0.4-0.6,0.7l-1-0.3c0.2-0.4,0.4-0.7,0.7-0.9c0.3-0.2,0.6-0.4,0.9-0.5c0.3-0.1,0.7-0.1,1-0.1
		c0.2,0,0.5,0,0.7,0.1c0.3,0,0.5,0.1,0.8,0.3c0.3,0.2,0.5,0.4,0.6,0.7c0.2,0.3,0.3,0.7,0.3,1.2V50h-1v-0.9h-0.1
		c-0.1,0.1-0.2,0.3-0.3,0.5c-0.2,0.2-0.4,0.3-0.6,0.4C83.2,50.1,82.9,50.2,82.5,50.2z M82.7,49.2c0.4,0,0.7-0.1,1-0.2
		c0.3-0.2,0.5-0.4,0.6-0.6c0.1-0.2,0.2-0.5,0.2-0.8v-0.9c0,0.1-0.1,0.1-0.3,0.1c-0.1,0-0.3,0.1-0.5,0.1c-0.2,0-0.4,0.1-0.5,0.1
		c-0.2,0-0.3,0-0.4,0.1c-0.3,0-0.5,0.1-0.7,0.2c-0.2,0.1-0.4,0.2-0.5,0.3c-0.1,0.1-0.2,0.3-0.2,0.6c0,0.3,0.1,0.6,0.4,0.8
		C81.9,49.2,82.3,49.2,82.7,49.2z M89.8,50.1c-0.5,0-1-0.1-1.4-0.4c-0.4-0.3-0.7-0.7-1-1.2C87.1,48,87,47.4,87,46.7
		c0-0.7,0.1-1.3,0.4-1.8c0.2-0.5,0.6-0.9,1-1.2c0.4-0.3,0.9-0.4,1.5-0.4c0.4,0,0.8,0.1,1,0.2c0.2,0.1,0.4,0.3,0.6,0.5
		c0.1,0.2,0.2,0.3,0.3,0.4h0.1v-3.2h1V50h-1v-1h-0.1c-0.1,0.1-0.2,0.3-0.3,0.5c-0.1,0.2-0.3,0.3-0.6,0.5
		C90.6,50.1,90.2,50.1,89.8,50.1z M89.9,49.2c0.4,0,0.7-0.1,1-0.3c0.3-0.2,0.5-0.5,0.6-0.9c0.1-0.4,0.2-0.8,0.2-1.3
		c0-0.5-0.1-0.9-0.2-1.3c-0.1-0.4-0.4-0.7-0.6-0.9c-0.3-0.2-0.6-0.3-1-0.3c-0.4,0-0.8,0.1-1.1,0.3c-0.3,0.2-0.5,0.5-0.6,0.9
		c-0.1,0.4-0.2,0.8-0.2,1.2c0,0.5,0.1,0.9,0.2,1.3c0.1,0.4,0.4,0.7,0.6,0.9C89.2,49.1,89.5,49.2,89.9,49.2z M97.5,50.1
		c-0.6,0-1.2-0.1-1.6-0.4c-0.5-0.3-0.8-0.7-1.1-1.2c-0.2-0.5-0.4-1.1-0.4-1.8c0-0.7,0.1-1.3,0.4-1.8c0.2-0.5,0.6-0.9,1-1.2
		c0.4-0.3,1-0.4,1.6-0.4c0.3,0,0.7,0.1,1,0.2c0.3,0.1,0.6,0.3,0.9,0.6c0.3,0.3,0.5,0.6,0.7,1c0.2,0.4,0.2,0.9,0.2,1.5v0.4h-5v-0.9h4
		c0-0.4-0.1-0.7-0.2-1c-0.1-0.3-0.4-0.5-0.6-0.7c-0.3-0.2-0.6-0.3-0.9-0.3c-0.4,0-0.7,0.1-1,0.3c-0.3,0.2-0.5,0.5-0.7,0.8
		c-0.2,0.3-0.2,0.7-0.2,1v0.6c0,0.5,0.1,0.9,0.3,1.3c0.2,0.3,0.4,0.6,0.7,0.8c0.3,0.2,0.7,0.3,1.1,0.3c0.3,0,0.5,0,0.7-0.1
		c0.2-0.1,0.4-0.2,0.6-0.3c0.2-0.2,0.3-0.3,0.4-0.6l1,0.3c-0.1,0.3-0.3,0.6-0.5,0.9c-0.2,0.2-0.5,0.4-0.9,0.6
		C98.4,50.1,98,50.1,97.5,50.1z M101.8,50v-6.5h1v1h0.1c0.1-0.3,0.3-0.6,0.6-0.8c0.3-0.2,0.7-0.3,1.1-0.3c0.1,0,0.2,0,0.3,0
		c0.1,0,0.2,0,0.3,0v1c0,0-0.1,0-0.2,0c-0.1,0-0.2,0-0.4,0c-0.3,0-0.6,0.1-0.9,0.2c-0.2,0.1-0.4,0.3-0.6,0.5
		c-0.1,0.2-0.2,0.5-0.2,0.8V50H101.8z M110.9,44.9l-0.9,0.3c-0.1-0.2-0.1-0.3-0.3-0.4c-0.1-0.1-0.3-0.3-0.4-0.4
		c-0.2-0.1-0.4-0.1-0.7-0.1c-0.4,0-0.7,0.1-1,0.3c-0.3,0.2-0.4,0.4-0.4,0.7c0,0.2,0.1,0.4,0.3,0.6c0.2,0.1,0.5,0.3,0.9,0.4l1,0.2
		c0.6,0.1,1,0.4,1.3,0.7c0.3,0.3,0.4,0.7,0.4,1.1c0,0.4-0.1,0.7-0.3,1c-0.2,0.3-0.5,0.5-0.9,0.7c-0.4,0.2-0.8,0.3-1.3,0.3
		c-0.7,0-1.2-0.1-1.7-0.4c-0.4-0.3-0.7-0.7-0.8-1.3l1-0.2c0.1,0.4,0.3,0.6,0.5,0.8c0.3,0.2,0.6,0.3,1,0.3c0.5,0,0.8-0.1,1.1-0.3
		c0.3-0.2,0.4-0.4,0.4-0.7c0-0.2-0.1-0.4-0.2-0.6c-0.2-0.2-0.4-0.3-0.7-0.3l-1.1-0.3c-0.6-0.1-1-0.4-1.3-0.7
		c-0.3-0.3-0.4-0.7-0.4-1.1c0-0.4,0.1-0.7,0.3-1c0.2-0.3,0.5-0.5,0.9-0.7c0.4-0.2,0.8-0.2,1.2-0.2c0.6,0,1.2,0.1,1.5,0.4
		C110.5,44.1,110.7,44.5,110.9,44.9z M116,50v-8.7h2.9c0.7,0,1.2,0.1,1.7,0.3c0.4,0.2,0.8,0.5,1,1c0.2,0.4,0.3,0.9,0.3,1.4
		s-0.1,1-0.3,1.4c-0.2,0.4-0.5,0.7-1,0.9c-0.4,0.2-1,0.3-1.7,0.3h-2.4v-1h2.4c0.5,0,0.8-0.1,1.1-0.2c0.3-0.1,0.5-0.3,0.6-0.6
		c0.1-0.3,0.2-0.6,0.2-0.9c0-0.3-0.1-0.7-0.2-0.9c-0.1-0.3-0.3-0.5-0.6-0.6c-0.3-0.1-0.7-0.2-1.1-0.2h-1.9V50H116z M120.1,46.1
		l2.1,3.9H121l-2.1-3.9H120.1z M126.2,50.1c-0.6,0-1.2-0.1-1.6-0.4c-0.5-0.3-0.8-0.7-1.1-1.2c-0.2-0.5-0.4-1.1-0.4-1.8
		c0-0.7,0.1-1.3,0.4-1.8c0.2-0.5,0.6-0.9,1-1.2c0.4-0.3,1-0.4,1.6-0.4c0.3,0,0.7,0.1,1,0.2c0.3,0.1,0.6,0.3,0.9,0.6
		c0.3,0.3,0.5,0.6,0.7,1c0.2,0.4,0.2,0.9,0.2,1.5v0.4h-5v-0.9h4c0-0.4-0.1-0.7-0.2-1c-0.1-0.3-0.4-0.5-0.6-0.7
		c-0.3-0.2-0.6-0.3-0.9-0.3c-0.4,0-0.7,0.1-1,0.3c-0.3,0.2-0.5,0.5-0.7,0.8c-0.2,0.3-0.2,0.7-0.2,1v0.6c0,0.5,0.1,0.9,0.3,1.3
		c0.2,0.3,0.4,0.6,0.7,0.8c0.3,0.2,0.7,0.3,1.1,0.3c0.3,0,0.5,0,0.7-0.1c0.2-0.1,0.4-0.2,0.6-0.3c0.2-0.2,0.3-0.3,0.4-0.6l1,0.3
		c-0.1,0.3-0.3,0.6-0.5,0.9c-0.2,0.2-0.5,0.4-0.9,0.6C127.1,50.1,126.7,50.1,126.2,50.1z M135.6,43.5l-2.4,6.5h-1l-2.4-6.5h1.1
		l1.8,5.2h0.1l1.8-5.2H135.6z M137,50v-6.5h1V50H137z M137.5,42.4c-0.2,0-0.4-0.1-0.5-0.2c-0.1-0.1-0.2-0.3-0.2-0.5s0.1-0.3,0.2-0.5
		c0.1-0.1,0.3-0.2,0.5-0.2s0.4,0.1,0.5,0.2c0.1,0.1,0.2,0.3,0.2,0.5s-0.1,0.3-0.2,0.5C137.8,42.3,137.7,42.4,137.5,42.4z
		 M142.5,50.1c-0.6,0-1.2-0.1-1.6-0.4c-0.5-0.3-0.8-0.7-1.1-1.2c-0.2-0.5-0.4-1.1-0.4-1.8c0-0.7,0.1-1.3,0.4-1.8
		c0.2-0.5,0.6-0.9,1-1.2c0.4-0.3,1-0.4,1.6-0.4c0.3,0,0.7,0.1,1,0.2c0.3,0.1,0.6,0.3,0.9,0.6c0.3,0.3,0.5,0.6,0.7,1
		c0.2,0.4,0.2,0.9,0.2,1.5v0.4h-5v-0.9h4c0-0.4-0.1-0.7-0.2-1c-0.1-0.3-0.4-0.5-0.6-0.7c-0.3-0.2-0.6-0.3-0.9-0.3
		c-0.4,0-0.7,0.1-1,0.3c-0.3,0.2-0.5,0.5-0.7,0.8c-0.2,0.3-0.2,0.7-0.2,1v0.6c0,0.5,0.1,0.9,0.3,1.3c0.2,0.3,0.4,0.6,0.7,0.8
		c0.3,0.2,0.7,0.3,1.1,0.3c0.3,0,0.5,0,0.7-0.1c0.2-0.1,0.4-0.2,0.6-0.3c0.2-0.2,0.3-0.3,0.4-0.6l1,0.3c-0.1,0.3-0.3,0.6-0.5,0.9
		c-0.2,0.2-0.5,0.4-0.9,0.6C143.4,50.1,143,50.1,142.5,50.1z M148.3,50l-2-6.5h1.1l1.4,5h0.1l1.4-5h1.1l1.4,5h0.1l1.4-5h1.1l-2,6.5
		h-1l-1.4-5h-0.1l-1.4,5H148.3z M159.1,50.1c-0.6,0-1.2-0.1-1.6-0.4c-0.5-0.3-0.8-0.7-1.1-1.2c-0.2-0.5-0.4-1.1-0.4-1.8
		c0-0.7,0.1-1.3,0.4-1.8c0.2-0.5,0.6-0.9,1-1.2c0.4-0.3,1-0.4,1.6-0.4c0.3,0,0.7,0.1,1,0.2c0.3,0.1,0.6,0.3,0.9,0.6
		c0.3,0.3,0.5,0.6,0.7,1c0.2,0.4,0.2,0.9,0.2,1.5v0.4h-5v-0.9h4c0-0.4-0.1-0.7-0.2-1c-0.1-0.3-0.4-0.5-0.6-0.7
		c-0.3-0.2-0.6-0.3-0.9-0.3c-0.4,0-0.7,0.1-1,0.3c-0.3,0.2-0.5,0.5-0.7,0.8c-0.2,0.3-0.2,0.7-0.2,1v0.6c0,0.5,0.1,0.9,0.3,1.3
		c0.2,0.3,0.4,0.6,0.7,0.8c0.3,0.2,0.7,0.3,1.1,0.3c0.3,0,0.5,0,0.7-0.1c0.2-0.1,0.4-0.2,0.6-0.3c0.2-0.2,0.3-0.3,0.4-0.6l1,0.3
		c-0.1,0.3-0.3,0.6-0.5,0.9c-0.2,0.2-0.5,0.4-0.9,0.6C159.9,50.1,159.5,50.1,159.1,50.1z M165.8,50.1c-0.5,0-1-0.1-1.4-0.4
		c-0.4-0.3-0.7-0.7-1-1.2c-0.2-0.5-0.4-1.1-0.4-1.8c0-0.7,0.1-1.3,0.4-1.8c0.2-0.5,0.6-0.9,1-1.2c0.4-0.3,0.9-0.4,1.5-0.4
		c0.4,0,0.8,0.1,1,0.2c0.2,0.1,0.4,0.3,0.6,0.5c0.1,0.2,0.2,0.3,0.3,0.4h0.1v-3.2h1V50h-1v-1h-0.1c-0.1,0.1-0.2,0.3-0.3,0.5
		c-0.1,0.2-0.3,0.3-0.6,0.5C166.5,50.1,166.2,50.1,165.8,50.1z M165.9,49.2c0.4,0,0.7-0.1,1-0.3c0.3-0.2,0.5-0.5,0.6-0.9
		c0.1-0.4,0.2-0.8,0.2-1.3c0-0.5-0.1-0.9-0.2-1.3c-0.1-0.4-0.4-0.7-0.6-0.9c-0.3-0.2-0.6-0.3-1-0.3c-0.4,0-0.8,0.1-1.1,0.3
		c-0.3,0.2-0.5,0.5-0.6,0.9c-0.1,0.4-0.2,0.8-0.2,1.2c0,0.5,0.1,0.9,0.2,1.3c0.1,0.4,0.4,0.7,0.6,0.9
		C165.1,49.1,165.5,49.2,165.9,49.2z"/>
	<path class="st3" d="M72.8,28.1v-7.9h1.8v7.9H72.8z M69.7,25.1v-1.8h7.9v1.8H69.7z M79.7,30v-1.5l4-4c0.4-0.4,0.7-0.7,1-1
		c0.3-0.3,0.5-0.6,0.6-0.9c0.1-0.3,0.2-0.6,0.2-0.9c0-0.4-0.1-0.7-0.2-0.9c-0.2-0.3-0.4-0.5-0.7-0.6c-0.3-0.1-0.6-0.2-1-0.2
		c-0.4,0-0.7,0.1-1,0.2c-0.3,0.2-0.5,0.4-0.7,0.7c-0.2,0.3-0.2,0.6-0.2,1h-2c0-0.7,0.2-1.4,0.5-1.9c0.3-0.5,0.8-1,1.4-1.3
		c0.6-0.3,1.3-0.4,2-0.4c0.8,0,1.5,0.1,2.1,0.4c0.6,0.3,1,0.7,1.4,1.2c0.3,0.5,0.5,1.1,0.5,1.7c0,0.4-0.1,0.9-0.2,1.3
		c-0.2,0.4-0.5,0.9-0.9,1.4c-0.4,0.5-1,1.1-1.8,1.9l-2,2v0.1h5.1V30H79.7z M91.5,27.3l0-2.5h0.3l3.1-3.5h2.4l-3.9,4.3h-0.4
		L91.5,27.3z M89.7,30V18.4h2.1V30H89.7z M95.1,30l-2.8-4l1.4-1.4l3.9,5.4H95.1z"/>
</g>
</svg>
