<svg width="20" height="20" viewBox="0 0 13 13" fill="none" xmlns="http://www.w3.org/2000/svg">
                <path
                  d="M6.46391 4.52477C5.94961 4.52477 5.45631 4.72907 5.09271 5.09267C4.72901 5.45637 4.52471 5.94957 4.52471 6.46387C4.52471 6.97817 4.72901 7.47147 5.09271 7.83507C5.45631 8.19877 5.94961 8.40307 6.46391 8.40307C6.97821 8.40307 7.47141 8.19877 7.83511 7.83507C8.19871 7.47147 8.40301 6.97817 8.40301 6.46387C8.40301 5.94957 8.19871 5.45637 7.83511 5.09267C7.47141 4.72907 6.97821 4.52477 6.46391 4.52477ZM6.46391 3.23197C7.32101 3.23197 8.14311 3.57247 8.74921 4.17857C9.35531 4.78467 9.69581 5.60677 9.69581 6.46387C9.69581 7.32107 9.35531 8.14307 8.74921 8.74917C8.14311 9.35537 7.32101 9.69587 6.46391 9.69587C5.60671 9.69587 4.78471 9.35537 4.17851 8.74917C3.57241 8.14307 3.23191 7.32107 3.23191 6.46387C3.23191 5.60677 3.57241 4.78467 4.17851 4.17857C4.78471 3.57247 5.60671 3.23197 6.46391 3.23197ZM10.6654 3.07037C10.6654 3.28467 10.5803 3.49017 10.4288 3.64167C10.2772 3.79317 10.0717 3.87837 9.85741 3.87837C9.64311 3.87837 9.43761 3.79317 9.28611 3.64167C9.13461 3.49017 9.04941 3.28467 9.04941 3.07037C9.04941 2.85607 9.13461 2.65057 9.28611 2.49897C9.43761 2.34747 9.64311 2.26237 9.85741 2.26237C10.0717 2.26237 10.2772 2.34747 10.4288 2.49897C10.5803 2.65057 10.6654 2.85607 10.6654 3.07037ZM6.46391 1.29277C4.86471 1.29277 4.60361 1.29727 3.85961 1.33027C3.35281 1.35417 3.01281 1.42207 2.69741 1.54487C2.41681 1.65347 2.21451 1.78337 1.99931 1.99927C1.79701 2.19477 1.64141 2.43337 1.54421 2.69737C1.42141 3.01407 1.35351 3.35347 1.33031 3.85957C1.29661 4.57317 1.29281 4.82267 1.29281 6.46387C1.29281 8.06307 1.29731 8.32417 1.33031 9.06817C1.35421 9.57427 1.42201 9.91497 1.54421 10.2298C1.65411 10.511 1.78341 10.7133 1.99801 10.9279C2.21581 11.1451 2.41811 11.275 2.69611 11.3823C3.01541 11.5058 3.35541 11.5743 3.85961 11.5975C4.57321 11.6312 4.82271 11.635 6.46391 11.635C8.06301 11.635 8.32421 11.6305 9.06821 11.5975C9.57371 11.5736 9.91431 11.5058 10.2297 11.3836C10.5096 11.2743 10.7132 11.1444 10.9278 10.9298C11.1457 10.712 11.2756 10.5097 11.3829 10.2317C11.5057 9.91297 11.5742 9.57237 11.5975 9.06817C11.6311 8.35457 11.635 8.10507 11.635 6.46387C11.635 4.86477 11.6305 4.60357 11.5975 3.85957C11.5736 3.35407 11.5057 3.01277 11.3829 2.69737C11.2855 2.43367 11.1302 2.19507 10.9285 1.99927C10.7331 1.79687 10.4944 1.64127 10.2304 1.54427C9.91371 1.42137 9.57371 1.35357 9.06821 1.33027C8.35461 1.29667 8.10511 1.29277 6.46391 1.29277ZM6.46391 0C8.22011 0 8.43921 0.00646021 9.12831 0.0387802C9.81671 0.0711002 10.2853 0.17905 10.6977 0.33935C11.1243 0.50354 11.4837 0.72589 11.8431 1.08467C12.1718 1.40777 12.4261 1.79867 12.5884 2.23007C12.7481 2.64177 12.8567 3.11107 12.889 3.79947C12.9194 4.48857 12.9278 4.70767 12.9278 6.46387C12.9278 8.22017 12.9213 8.43927 12.889 9.12827C12.8567 9.81667 12.7481 10.2854 12.5884 10.6978C12.4266 11.1294 12.1722 11.5204 11.8431 11.8432C11.5199 12.1717 11.1291 12.426 10.6977 12.5885C10.286 12.7481 9.81671 12.8567 9.12831 12.889C8.43921 12.9194 8.22011 12.9278 6.46391 12.9278C4.70761 12.9278 4.48851 12.9213 3.79951 12.889C3.11111 12.8567 2.64241 12.7481 2.23001 12.5885C1.79851 12.4265 1.40751 12.1721 1.08461 11.8432C0.75591 11.5201 0.50151 11.1292 0.33935 10.6978C0.17905 10.286 0.0710993 9.81667 0.0387793 9.12827C0.00839926 8.43927 0 8.22017 0 6.46387C0 4.70767 0.00645926 4.48857 0.0387793 3.79947C0.0710993 3.11047 0.17905 2.64247 0.33935 2.23007C0.50111 1.79837 0.75551 1.40737 1.08461 1.08467C1.40761 0.75578 1.79851 0.50142 2.23001 0.33935C2.64241 0.17905 3.11041 0.0711002 3.79951 0.0387802C4.48851 0.00840021 4.70761 0 6.46391 0Z"
                  fill="white" />
              </svg>