<svg width="29" height="29" viewBox="0 0 20 20" fill="none" xmlns="http://www.w3.org/2000/svg">
                <path
                  d="M3.33398 7.22214H6.11176V16.6666H3.33398V7.22214ZM4.71454 6.11103H4.69898C3.8701 6.11103 3.33398 5.49325 3.33398 4.72159C3.33398 3.93325 3.88676 3.33325 4.73065 3.33325C5.57565 3.33325 6.09621 3.93325 6.11176 4.72159C6.11176 5.4927 5.57565 6.11103 4.71454 6.11103ZM16.6673 16.6666H13.8895V11.6116C13.8895 10.3905 13.209 9.55714 12.1162 9.55714C11.2823 9.55714 10.8312 10.1194 10.6123 10.6627C10.5323 10.8571 10.5562 11.3949 10.5562 11.6666V16.6666H7.77843V7.22214H10.5562V8.67547C10.9568 8.05547 11.584 7.22214 13.1884 7.22214C15.1762 7.22214 16.6668 8.47214 16.6668 11.2633L16.6673 16.6666Z"
                  fill="white" />
              </svg>