<?xml version="1.0" encoding="utf-8"?>
<!-- Generator: Adobe Illustrator 28.0.0, SVG Export Plug-In . SVG Version: 6.00 Build 0)  -->
<svg version="1.1" id="Layer_1" xmlns="http://www.w3.org/2000/svg" xmlns:xlink="http://www.w3.org/1999/xlink" x="0px" y="0px"
	 viewBox="0 0 20 20" style="enable-background:new 0 0 20 20;" xml:space="preserve">
<style type="text/css">
	.st0{fill:#FFFFFF;}
</style>
<path class="st0" d="M18.4,8.3c-1.7,0-3.3-0.5-4.6-1.5v6.7c0,3.4-2.7,6.1-6.1,6.1s-6.1-2.7-6.1-6.1s2.7-6.1,6.1-6.1
	c0.3,0,0.6,0,0.8,0.1v3.4C7,10.4,5.5,11.2,5,12.7s0.4,3.1,1.8,3.5c1.5,0.5,3.1-0.4,3.5-1.8c0.1-0.3,0.1-0.6,0.1-0.8V0.4h3.3
	c0,0.3,0,0.6,0.1,0.8l0,0c0.2,1.2,1,2.3,2,3C16.7,4.7,17.5,5,18.4,5V8.3z"/>
</svg>
