<?xml version="1.0" encoding="utf-8"?>
<!-- Generator: Adobe Illustrator 28.0.0, SVG Export Plug-In . SVG Version: 6.00 Build 0)  -->
<svg version="1.1" id="Layer_1" xmlns="http://www.w3.org/2000/svg" xmlns:xlink="http://www.w3.org/1999/xlink" x="0px" y="0px"
	 viewBox="0 0 20 20" style="enable-background:new 0 0 20 20;" xml:space="preserve">
<style type="text/css">
	.st0{fill:#FFFFFF;}
</style>
<path class="st0" d="M17.7,8.4c-1.5,0-3-0.5-4.2-1.3v6.1c0,3.1-2.5,5.6-5.6,5.6c-3.1,0-5.6-2.5-5.6-5.6c0-3.1,2.5-5.6,5.6-5.6
	c0.3,0,0.5,0,0.8,0.1v3.1c-1.3-0.4-2.8,0.3-3.2,1.7c-0.4,1.3,0.3,2.8,1.7,3.2s2.8-0.3,3.2-1.7c0.1-0.2,0.1-0.5,0.1-0.8v-12h3
	c0,0.3,0,0.5,0.1,0.8l0,0c0.2,1.1,0.9,2.1,1.8,2.7c0.7,0.5,1.5,0.7,2.3,0.7V8.4z"/>
</svg>
