<svg width="20" height="20" xmlns="http://www.w3.org/2000/svg" xmlns:xlink="http://www.w3.org/1999/xlink" version="1.1" id="Layer_1" x="0px" y="0px" viewBox="0 0 400 400" style="enable-background:new 0 0 400 400;" xml:space="preserve">
<style type="text/css">
	.st0{fill:#FFFFFF;}
</style>
<g>
	<path class="st0" d="M-516.5,195.1c0,4.4-3.3,6.6-5.5,7.7l-76.6,40.5c-1.1,0-1.1,1.1-2.2,1.1c-1.1,0-2.2,0-2.2-1.1   c-1.1-1.1-2.2-2.2-2.2-5.5v-83.1c0-2.2,1.1-3.3,2.2-5.5c1.1-2.2,3.3-1.1,6.6,0l76.5,40.5C-517.6,190.7-516.5,191.8-516.5,195.1z"/>
	<path class="st0" d="M-572.1,0c-110.5,0-200,89.5-200,200s89.5,200,200,200s200-89.5,200-200S-461.6,0-572.1,0z M-426.8,210.4   c0,24-2.2,47-2.2,48.1c0,2.2-4.4,23-13.1,32.8c-12,12-24.1,13.1-30.6,14.2h-1.1c-19.7,1.1-44.6,1.6-64.5,1.9c-20,0.3-35,0.3-35,0.3   c-2.2,0-72.2,0-95.1-2.2h-3.3c-7.7-1.1-20.8-3.3-30.6-14.2c-9.8-8.7-13.1-29.5-13.1-31.7c0-1.1-2.2-24-2.2-48.1v-21.9   c0-24,2.2-47,2.2-48.1c0-2.2,3.3-23,12-32.8c12-13.1,24.1-14.2,30.6-14.2h1.1c39.4-2.2,99.5-2.2,99.5-2.2c1.1,0,60.1,0,99.5,2.2   h1.1c6.6,0,19.7,1.1,30.6,14.2c9.8,8.7,13.1,29.5,13.1,31.7c0,1.1,2.2,26.2,1.1,48.1V210.4z"/>
</g>
<polygon class="st0" points="207.3,197 264.9,277.6 246.2,277.6 197.7,209.7 135.7,123 154.4,123 200.1,186.9 "/>
<path class="st0" d="M200,0C89.5,0,0,89.5,0,200c0,110.5,89.5,200,200,200c110.5,0,200-89.5,200-200C400,89.5,310.5,0,200,0z   M236,293.8l-48.8-69.4l-61,69.4h-22.6l73.6-83.7l-72.9-103.8h60.4l46.1,65.7l57.8-65.7h22.6l-70.3,80l75.5,107.6H236z"/>
</svg>