<?xml version="1.0" encoding="utf-8"?>
<!-- Generator: Adobe Illustrator 28.0.0, SVG Export Plug-In . SVG Version: 6.00 Build 0)  -->
<svg version="1.1" id="Layer_1" xmlns="http://www.w3.org/2000/svg" xmlns:xlink="http://www.w3.org/1999/xlink" x="0px" y="0px"
	 viewBox="0 0 63 63" style="enable-background:new 0 0 63 63;" xml:space="preserve">
<style type="text/css">
	.st0{fill:url(#SVGID_1_);}
	.st1{fill:#5285F7;fill-opacity:0.72;}
	.st2{fill:url(#SVGID_00000024712762194705425650000003440455508092912559_);fill-opacity:0.2;}
	.st3{fill:url(#SVGID_00000157276399399939638430000011488979053434280615_);fill-opacity:0.2;}
	.st4{fill:#FFFFFF;}
</style>
<g>
	
		<radialGradient id="SVGID_1_" cx="-264.0065" cy="655.5436" r="1" gradientTransform="matrix(22 76.5 53.6526 -15.4295 -29343.4863 30296.2422)" gradientUnits="userSpaceOnUse">
		<stop  offset="0" style="stop-color:#61CDFF"/>
		<stop  offset="1" style="stop-color:#305BF3"/>
	</radialGradient>
	<circle class="st0" cx="31.5" cy="31.5" r="31.5"/>
	<path class="st1" d="M29.7,33.2C16.2,44.9,4.3,36.3,0,30.6C0,19.1,18.5-7.1,40,1.8c17.2,7.1,21.2,22.1,21,28.7
		C56.2,26.5,43.3,21.5,29.7,33.2z"/>
	
		<linearGradient id="SVGID_00000174572392676156501060000011038811291455881398_" gradientUnits="userSpaceOnUse" x1="32.6246" y1="421.3086" x2="32.6246" y2="402.3586" gradientTransform="matrix(1 0 0 -1 0 464.3088)">
		<stop  offset="0" style="stop-color:#59B3FD"/>
		<stop  offset="1" style="stop-color:#59B3FD;stop-opacity:0"/>
	</linearGradient>
	<path style="fill:url(#SVGID_00000174572392676156501060000011038811291455881398_);fill-opacity:0.2;" d="M55.2,49.4
		c-6.8,11.2-20.8,13-27,12.5c-4.8,0.1-11.7-3.4-15-6c-3.2-1.7-7.3-7.5,5.5-11.5C31.5,40.4,48.4,46,55.2,49.4z"/>
	
		<linearGradient id="SVGID_00000130631682097843170600000009726971755185843123_" gradientUnits="userSpaceOnUse" x1="31" y1="445.8087" x2="31" y2="455.3087" gradientTransform="matrix(1 0 0 -1 0 464.3088)">
		<stop  offset="0" style="stop-color:#E7F5FC;stop-opacity:0"/>
		<stop  offset="1" style="stop-color:#39FEFE"/>
	</linearGradient>
	
		<ellipse style="fill:url(#SVGID_00000130631682097843170600000009726971755185843123_);fill-opacity:0.2;" cx="31" cy="13" rx="18" ry="12"/>
</g>
<g>
	<g>
		<path class="st4" d="M38.8,42c-0.1,0.2-0.3,0.4-0.5,0.6c-0.2,0.1-0.5,0.2-0.8,0.2H25.8c-0.3,0-0.5-0.1-0.8-0.2
			c-0.2-0.1-0.4-0.3-0.5-0.6c-0.1-0.2-0.2-0.5-0.2-0.7c0-0.2,0.1-0.5,0.2-0.7l5.8-8.6c0.1-0.2,0.3-0.4,0.5-0.5
			c0.2-0.1,0.4-0.2,0.7-0.2s0.5,0.1,0.7,0.2c0.2,0.1,0.4,0.3,0.5,0.5l5.9,8.6c0.2,0.2,0.2,0.4,0.3,0.7C38.9,41.6,38.9,41.8,38.8,42z
			"/>
	</g>
	<g>
		<path class="st4" d="M43.3,37.1h-2.9v-2.8h2.9V22.9H19.9v11.4h2.9v2.8h-2.9c-0.8,0-1.5-0.3-2.1-0.8c-0.5-0.5-0.9-1.3-0.9-2V22.9
			c0-0.8,0.3-1.5,0.9-2c0.5-0.5,1.3-0.8,2.1-0.8h23.4c0.8,0,1.5,0.3,2.1,0.8c0.5,0.5,0.9,1.3,0.9,2v11.4c0,0.8-0.3,1.5-0.9,2
			C44.8,36.8,44.1,37.1,43.3,37.1z"/>
	</g>
</g>
</svg>
