<?xml version="1.0" encoding="utf-8"?>
<!-- Generator: Adobe Illustrator 28.0.0, SVG Export Plug-In . SVG Version: 6.00 Build 0)  -->
<svg version="1.1" id="Layer_1" xmlns="http://www.w3.org/2000/svg" xmlns:xlink="http://www.w3.org/1999/xlink" x="0px" y="0px"
	 viewBox="0 0 32 32" style="enable-background:new 0 0 32 32;" xml:space="preserve">
<style type="text/css">
	.st0{fill:#3AB9DC;}
	.st1{fill:#63BE75;}
</style>
<g>
	<polygon class="st0" points="23.1,29.7 22.9,29.8 13.7,20.6 13.6,20.6 13.6,20.5 13.5,20.4 8.1,15.1 8,14.9 8.2,14.9 8.4,15.1 
		13.5,20.2 13.6,20.3 13.8,20.5 14,20.6 	"/>
	<polygon class="st0" points="23,30.2 7.2,14.6 8.3,14.6 23.5,29.7 	"/>
</g>
<polygon class="st0" points="26,27.7 14.9,27.7 3.7,16.5 3.7,16.5 14.8,16.5 15,16.7 15.1,16.9 "/>
<path class="st1" d="M26.2,10.8c0,3.1-2.5,5.5-5.5,5.5h-5.8L3.7,5.2h17C23.7,5.2,26.2,7.7,26.2,10.8z"/>
</svg>
