<svg id="logo-dark" xmlns="http://www.w3.org/2000/svg" width="81.043" height="89.989" viewBox="0 0 81.043 89.989">
  <path id="Path_1115" data-name="Path 1115" d="M69.772,87.866l-.42.426L36.143,55.418l-.27-.27-.336-.33-.264-.264L16.039,35.518l-.606-.6h.851l.6.6,18.383,18.2.6.593.516.51.606.6Z" fill="#3ab9dc"/>
  <path id="Path_1116" data-name="Path 1116" d="M69.364,89.989,12.519,33.72h4.257L71.469,87.854Z" fill="#3ab9dc"/>
  <path id="Path_1117" data-name="Path 1117" d="M80.257,80.689H40.519L0,40.584V40.47H39.871l.7.7.6.593Z" fill="#3ab8db"/>
  <path id="Path_1118" data-name="Path 1118" d="M81.043,19.935A19.957,19.957,0,0,1,61.108,39.871H40.117L.078,0h61.03A19.961,19.961,0,0,1,81.043,19.935Z" fill="#1fd176"/>
</svg>
