<?xml version="1.0" encoding="utf-8"?>
<!-- Generator: Adobe Illustrator 28.0.0, SVG Export Plug-In . SVG Version: 6.00 Build 0)  -->
<svg version="1.1" id="Layer_1" xmlns="http://www.w3.org/2000/svg" xmlns:xlink="http://www.w3.org/1999/xlink" x="0px" y="0px"
	 viewBox="0 0 63 63" style="enable-background:new 0 0 63 63;" xml:space="preserve">
<style type="text/css">
	.st0{fill:url(#SVGID_1_);}
	.st1{fill:#FFFFFF;}
	.st2{fill:url(#SVGID_00000026147087464591041210000008009396006003727292_);}
	.st3{fill:url(#SVGID_00000181073366390623652880000014439162658345234074_);}
	.st4{fill:url(#SVGID_00000122709147680620201010000002072895087823971483_);}
	.st5{fill:#3261F4;}
</style>
<radialGradient id="SVGID_1_" cx="-16.3215" cy="33.2788" r="74.0603" gradientUnits="userSpaceOnUse">
	<stop  offset="0" style="stop-color:#61CDFF"/>
	<stop  offset="1" style="stop-color:#305BF3"/>
</radialGradient>
<path class="st0" d="M63,31.5c0,12.5-7.3,23.3-17.9,28.4c-2.6,1.3-5.5,2.2-8.5,2.7c-1.6,0.3-3.2,0.4-4.8,0.4h-0.3
	c-2.8,0-5.5-0.4-8.1-1.1c-1.7-0.4-3.3-1-4.8-1.7c-3.1-1.4-6-3.3-8.5-5.6c-2-1.9-3.8-4-5.3-6.3c-0.4-0.6-0.7-1.2-1.1-1.8
	C1.4,42,0,36.9,0,31.5C0,14.1,14.1,0,31.5,0S63,14.1,63,31.5z"/>
<path class="st1" d="M42.7,12c-1.2-1.2-2.4-2.3-3.6-3.5c3.9,0,7.7,0,11.5,0c0,3.8,0,7.6,0,11.4c-1.3-1.3-2.5-2.6-3.8-3.9
	c-4.2,3.5-8.2,6.8-12.2,10.1c-2.4-2.3-4.7-4.5-7.1-6.8c-4.3,3-8.7,6.1-13.2,9.3c-1.1-1.6-2.2-3.1-3.3-4.6c5.7-4,11.5-8.1,17.1-12
	c2.3,2.2,4.5,4.3,6.8,6.5C37.5,16.4,40,14.2,42.7,12z"/>
<path class="st1" d="M50.7,23.7c0,8.1,0,16.1,0,24.2c0,0,0,0,0,0.1H49c0.1-0.7,0.1-1.4,0.1-2c0-6-3.2-11.2-8-14.1c0-2.5,0-5.1,0-7.7
	c0-0.3,0.2-0.6,0.3-0.8c1.7-1.4,3.4-2.8,5.1-4.2c0.1,0.1,0.3,0.2,0.4,0.3c1.2,1.2,2.3,2.3,3.5,3.5C50.5,23.2,50.7,23.4,50.7,23.7z"
	/>
<path class="st1" d="M35.6,28.3v1.6c-0.9-0.2-1.9-0.3-2.9-0.3c-2.4,0-4.6,0.5-6.6,1.4v-8.2c0.6,0,1.1,0,1.7,0c0.2,0,0.4,0.2,0.5,0.4
	c1.9,1.9,3.7,3.8,5.6,5.7c0.1,0.1,0.2,0.3,0.3,0.5C34.8,28.9,35.2,28.6,35.6,28.3z"/>
<path class="st1" d="M20.7,35c-2.6,2.9-4.2,6.8-4.2,11c0,0.7,0,1.4,0.1,2h-5.4V31h9.5V35z"/>
<path class="st1" d="M32.4,32c7.6,0,13.9,6.2,13.9,13.9c0,7.7-6.2,13.9-13.9,14c-7.7,0-13.9-6.2-14-13.9C18.5,38.3,24.7,32,32.4,32z
	 M27.4,49.5c0,0.9,0.4,1.6,1.1,2.1c0.6,0.5,1.4,0.7,2.1,0.9c0.1,0,0.2,0.1,0.3,0.2c0.2,1,1,1.6,2,1.6c0.9,0,1.7-0.7,1.8-1.7
	c0-0.2,0.1-0.3,0.3-0.3c1.1-0.3,1.9-0.9,2.5-1.9c1.2-2,0.6-4.1-1.4-5.1c-0.4-0.2-0.9-0.4-1.3-0.6c-0.9-0.3-1.7-0.5-2.6-0.8
	c-0.3-0.1-0.5-0.2-0.5-0.6c0-0.3,0.3-0.5,0.6-0.6c0.6-0.2,1.2-0.1,1.7,0.3c0.2,0.2,0.5,0.4,0.7,0.6c0.7,0.5,1.5,0.5,2.3,0.1
	c0.6-0.3,0.9-1,0.7-1.7c-0.4-1.3-1.3-2.1-2.5-2.6c-0.3-0.1-0.3-0.2-0.4-0.4c-0.2-0.9-1-1.5-1.9-1.5c-0.9,0-1.6,0.7-1.8,1.6
	c0,0.2-0.1,0.3-0.3,0.3c-0.1,0-0.2,0.1-0.3,0.1c-1.6,0.7-2.5,1.9-2.6,3.6c-0.1,1.6,0.7,2.7,2.1,3.4c0.6,0.3,1.3,0.5,2,0.7
	c0.6,0.2,1.2,0.3,1.8,0.6c0.2,0.1,0.4,0.3,0.4,0.4c0,0.2-0.2,0.4-0.3,0.6c-0.1,0.1-0.3,0.2-0.5,0.2c-0.9,0.2-1.8,0-2.5-0.6
	c-0.5-0.5-1.2-0.7-1.9-0.6C27.8,48.1,27.4,48.5,27.4,49.5z"/>
</svg>
