<?xml version="1.0" encoding="utf-8"?>
<!-- Generator: Adobe Illustrator 28.0.0, SVG Export Plug-In . SVG Version: 6.00 Build 0)  -->
<svg version="1.1" id="Layer_1" xmlns="http://www.w3.org/2000/svg" xmlns:xlink="http://www.w3.org/1999/xlink" x="0px" y="0px"
	 viewBox="0 0 63 63" style="enable-background:new 0 0 63 63;" xml:space="preserve">
<style type="text/css">
	.st0{fill:url(#SVGID_1_);}
	.st1{fill:#FFFFFF;}
	.st2{fill:url(#SVGID_00000110450780423379207110000016525497935183153569_);}
	.st3{fill:url(#SVGID_00000137106058223072116840000007734388562303593913_);}
	.st4{fill:url(#SVGID_00000029748629563636502150000012673831882576909213_);}
	.st5{fill:#3261F4;}
</style>
<g>
	<radialGradient id="SVGID_1_" cx="-16.1391" cy="33.272" r="73.7782" gradientUnits="userSpaceOnUse">
		<stop  offset="0" style="stop-color:#61CDFF"/>
		<stop  offset="1" style="stop-color:#305BF3"/>
	</radialGradient>
	<path class="st0" d="M62.9,31.5c0,10.1-4.8,19.1-12.2,24.9c-1.7,1.3-3.6,2.5-5.6,3.4c-1.3,0.6-2.6,1.1-4,1.6
		c-1.5,0.5-3,0.8-4.5,1.1c-0.3,0-0.6,0.1-0.9,0.1c-1.3,0.2-2.5,0.3-3.9,0.3h-0.3c-1.8,0-3.6-0.1-5.3-0.4c-0.9-0.2-1.9-0.4-2.8-0.6
		c-0.9-0.2-1.8-0.5-2.7-0.8c-0.7-0.3-1.4-0.6-2.1-0.9c-2.7-1.2-5.2-2.8-7.4-4.6c-0.4-0.3-0.7-0.6-1.1-1c-2-1.9-3.8-4-5.3-6.3
		c-0.4-0.6-0.7-1.2-1.1-1.8c-0.9-1.7-1.6-3.5-2.2-5.3v0c-0.6-1.9-1.1-4-1.3-6c-0.1-1.2-0.2-2.4-0.2-3.7c0-17.3,14-31.4,31.4-31.4
		C48.8,0.1,62.9,14.2,62.9,31.5z"/>
	<path class="st1" d="M50.7,50.5c0,0,0,2.6,0,5.8c-1.7,1.3-3.6,2.5-5.6,3.4c-1.3,0.6-2.6,1.1-4,1.6c0-5.1,0-11.1,0-11.2
		c0-7.7,0-15.4,0-23.2c0-0.2,0.2-0.6,0.3-0.8c1.7-1.4,3.3-2.8,5.1-4.2c0.1,0.1,0.3,0.2,0.4,0.3c1.2,1.2,2.3,2.3,3.5,3.5
		c0.2,0.2,0.3,0.4,0.3,0.6C50.7,34.5,50.7,42.5,50.7,50.5z"/>
	<path class="st1" d="M35.7,31v31.6c-1.3,0.2-2.5,0.3-3.9,0.3h-0.3c-1.8,0-3.6-0.1-5.3-0.4V25.6c0.6,0,1.1,0,1.7,0
		c0.2,0,0.4,0.2,0.5,0.4c1.9,1.9,3.7,3.8,5.5,5.7c0.1,0.1,0.2,0.3,0.3,0.5C34.8,31.7,35.2,31.4,35.7,31z"/>
	<path class="st1" d="M20.8,29.9V61c-0.7-0.3-1.4-0.6-2.1-0.9c-2.7-1.2-5.2-2.8-7.4-4.6V37.2L20.8,29.9z"/>
	<path class="st1" d="M40.5,14.7l-0.8,0.7c-0.1-0.3-0.1-0.7-0.1-1.1c0-0.2,0-0.3,0-0.5L40.5,14.7z"/>
	<path class="st1" d="M47.4,21.6c-0.2,0-0.4,0-0.6,0c-0.3,0-0.7,0-1-0.1l0.8-0.7L47.4,21.6z"/>
	<path class="st1" d="M52.1,19.4V9.8H41.2c1.3-1.7,3.4-2.7,5.7-2.7c4,0,7.3,3.2,7.3,7.3C54.1,16.3,53.4,18.1,52.1,19.4z"/>
	<path class="st1" d="M50.6,11.3v11.4c-1.2-1.3-2.5-2.6-3.8-3.9c-4.2,3.5-8.2,6.8-12.1,10.1c-2.3-2.3-4.7-4.5-7-6.8
		c-3,2.1-16.4,12-26,19c-0.6-1.9-1.1-4-1.3-6c10.4-7.6,24.2-17.8,28-20.4c2.2,2.2,4.5,4.3,6.8,6.5c2.5-2,5-4.2,7.7-6.4
		c-1.2-1.2-2.4-2.3-3.6-3.5H50.6z"/>
</g>
</svg>
