<?xml version="1.0" encoding="utf-8"?>
<!-- Generator: Adobe Illustrator 28.0.0, SVG Export Plug-In . SVG Version: 6.00 Build 0)  -->
<svg version="1.1" id="Layer_1" xmlns="http://www.w3.org/2000/svg" xmlns:xlink="http://www.w3.org/1999/xlink" x="0px" y="0px"
	 viewBox="0 0 63 63" style="enable-background:new 0 0 63 63;" xml:space="preserve">
<style type="text/css">
	.st0{fill:url(#SVGID_1_);}
	.st1{fill:#FFFFFF;}
	.st2{fill:url(#SVGID_00000179625724110168562860000004700469829646388137_);}
	.st3{fill:url(#SVGID_00000119112689921195278910000010256143974089132475_);}
	.st4{fill:url(#SVGID_00000117644862440789784210000015121352765424735115_);}
	.st5{fill:#3261F4;}
</style>
<radialGradient id="SVGID_1_" cx="-16.3215" cy="33.2788" r="74.0603" gradientUnits="userSpaceOnUse">
	<stop  offset="0" style="stop-color:#61CDFF"/>
	<stop  offset="1" style="stop-color:#305BF3"/>
</radialGradient>
<path class="st0" d="M63,31.5c0,12.5-7.3,23.3-17.9,28.4c-2.6,1.3-5.5,2.2-8.5,2.7c-1.6,0.3-3.2,0.4-4.8,0.4h-0.3
	c-2.8,0-5.5-0.4-8.1-1.1c-1.7-0.4-3.3-1-4.8-1.7c-3.1-1.4-6-3.3-8.5-5.6c-2-1.9-3.8-4-5.3-6.3c-0.4-0.6-0.7-1.2-1.1-1.8
	C1.4,42,0,36.9,0,31.5C0,14.1,14.1,0,31.5,0S63,14.1,63,31.5z"/>
<path class="st1" d="M51.7,24c1.1,2.2,1.1,2.2,2.1,4.4c-0.1,0.2-3.7-1.2-4.1-1.3c0.2,0.8,1.3,5.1,1.2,5.5c0,0.1,0,0.1-0.1,0.1
	c-2.2-1.6-2.2-1.6-4.3-3.1V18.9H34.8c0.4-0.2,0.8-0.3,0.8-0.4c-1.8-2-1.8-2-3.5-4.1c0.4,0,3.5,0.2,4.6,0.2c0.1,0,0.6,0.2,0.7,0
	c-0.3-1.2-0.8-4.8-1-5.5C39,11,39,11,41.6,13c0.8-3.1,0.8-3.1,1.6-6.2c0.9,1.6,1.7,3.3,2.7,4.8c0.1,0.1,0.3,0.7,0.4,0.7
	c1.5-1.8,1.5-1.8,2.9-3.5c0.2,1.6,0.2,3.1,0.4,4.7c0.1,0,0.2-0.1,0.2-0.2c1.6-0.6,3.4-1.7,4.9-2.5c-0.7,1.6-1.7,3.1-2.3,4.7
	c0,0-0.2,0.2-0.2,0.4c1.6,0.3,3.2,0.4,4.8,0.7c-1.4,1.1-2.8,2.3-4.2,3.5c2,0.6,4.2,1.1,6.1,1.9c-2.2,0.7-4.4,1.4-6.6,1.9
	C52.3,23.9,51.7,23.9,51.7,24z"/>
<path class="st1" d="M38.1,23.5c-1.1-1.1-2.1-2.1-3.2-3.1c3.4,0,6.8,0,10.2,0c0,3.4,0,6.7,0,10.1c-1.1-1.1-2.2-2.3-3.4-3.5
	c-3.7,3.1-7.3,6-10.8,8.9c-2.1-2-4.1-4-6.3-6c-3.8,2.7-7.7,5.4-11.7,8.2c-1-1.4-1.9-2.7-2.9-4.1c5.1-3.6,10.1-7.1,15.1-10.6
	c2,1.9,4,3.8,6,5.8C33.4,27.4,35.7,25.5,38.1,23.5z"/>
<path class="st1" d="M45.1,33.9c0,7.1,0,14.3,0,21.4c0,0,0,2.2,0,4.6c-2.6,1.3-5.5,2.2-8.5,2.7c0-3.1,0-7.5,0-7.6
	c0-6.9,0-13.7,0-20.6c0-0.2,0.1-0.5,0.3-0.7c1.5-1.3,3-2.5,4.5-3.8c0.1,0.1,0.2,0.2,0.3,0.3c1,1,2.1,2,3.1,3.1
	C45,33.5,45.1,33.7,45.1,33.9z"/>
<path class="st1" d="M31.8,37.9V63h-0.3c-2.8,0-5.5-0.4-8.1-1.1V33.1c0.5,0,1,0,1.5,0c0.2,0,0.3,0.2,0.5,0.3c1.7,1.7,3.3,3.3,4.9,5
	c0.1,0.1,0.2,0.3,0.3,0.4C31.1,38.5,31.4,38.3,31.8,37.9z"/>
<path class="st1" d="M18.6,40.4v19.9c-3.1-1.4-6-3.3-8.5-5.6c0-4.6,0-10.3,0-14.3H18.6z"/>
</svg>
