<svg width="39" height="39" viewBox="0 0 39 39" fill="none" xmlns="http://www.w3.org/2000/svg">
<g clip-path="url(#clip0_1078_1070)">
<path d="M27.6743 11.326C27.5143 11.1658 27.3129 11.0534 27.0925 11.0014C26.8722 10.9493 26.6418 10.9597 26.427 11.0314L15.4583 14.6877C15.2789 14.7476 15.1159 14.8484 14.9821 14.9821C14.8484 15.1159 14.7476 15.2789 14.6877 15.4583L11.0314 26.427C10.9597 26.6418 10.9493 26.8723 11.0013 27.0926C11.0533 27.313 11.1656 27.5145 11.3257 27.6746C11.4858 27.8347 11.6873 27.947 11.9077 27.999C12.128 28.051 12.3585 28.0405 12.5732 27.9689L23.542 24.3126C23.7214 24.2527 23.8844 24.1518 24.0181 24.0181C24.1519 23.8843 24.2527 23.7213 24.3126 23.5419L27.9689 12.5731C28.0404 12.3584 28.0507 12.128 27.9987 11.9077C27.9467 11.6874 27.8344 11.486 27.6743 11.326ZM14.1146 24.8857L16.8073 16.8073L22.1936 22.1935L14.1146 24.8857Z" fill="#1EE981"/>
<path d="M19.5 36.5625C16.1254 36.5625 12.8265 35.5618 10.0206 33.687C7.21468 31.8121 5.02773 29.1473 3.73631 26.0295C2.44489 22.9118 2.107 19.4811 2.76536 16.1713C3.42372 12.8615 5.04876 9.82123 7.435 7.435C9.82123 5.04876 12.8615 3.42372 16.1713 2.76536C19.4811 2.107 22.9118 2.44489 26.0295 3.73631C29.1473 5.02773 31.8121 7.21468 33.687 10.0206C35.5618 12.8265 36.5625 16.1254 36.5625 19.5C36.5574 24.0237 34.7581 28.3607 31.5594 31.5594C28.3607 34.7581 24.0237 36.5574 19.5 36.5625ZM19.5 4.87501C16.6075 4.87501 13.7799 5.73275 11.3748 7.33976C8.96972 8.94678 7.0952 11.2309 5.98827 13.9033C4.88134 16.5756 4.59171 19.5162 5.15602 22.3532C5.72033 25.1902 7.11323 27.7961 9.15857 29.8414C11.2039 31.8868 13.8098 33.2797 16.6468 33.844C19.4838 34.4083 22.4244 34.1187 25.0968 33.0117C27.7691 31.9048 30.0532 30.0303 31.6602 27.6252C33.2673 25.2202 34.125 22.3926 34.125 19.5C34.1206 15.6226 32.5783 11.9052 29.8366 9.16345C27.0948 6.42169 23.3774 4.87943 19.5 4.87501Z" fill="#1EE981"/>
</g>
<defs>
<clipPath id="clip0_1078_1070">
<rect width="39" height="39" fill="white"/>
</clipPath>
</defs>
</svg>
