<?xml version="1.0" encoding="utf-8"?>
<!-- Generator: Adobe Illustrator 28.0.0, SVG Export Plug-In . SVG Version: 6.00 Build 0)  -->
<svg version="1.1" id="Layer_1" xmlns="http://www.w3.org/2000/svg" xmlns:xlink="http://www.w3.org/1999/xlink" x="0px" y="0px"
	 viewBox="0 0 63 63" style="enable-background:new 0 0 63 63;" xml:space="preserve">
<style type="text/css">
	.st0{fill:url(#SVGID_1_);}
	.st1{fill:#5285F7;fill-opacity:0.72;}
	.st2{fill:url(#SVGID_00000087385606640175633490000014312861223844192641_);fill-opacity:0.2;}
	.st3{fill:url(#SVGID_00000180361616706161350970000000670606784061450137_);fill-opacity:0.2;}
	.st4{fill:#FFFFFF;}
	.st5{fill:#FFFFFF;filter:url(#Adobe_OpacityMaskFilter);}
	.st6{mask:url(#path-5-outside-1_1042_1592_00000160909163788450027930000004802385635403427498_);fill:none;stroke:#FFFFFF;}
</style>
<g>
	
		<radialGradient id="SVGID_1_" cx="-264.2392" cy="674.9149" r="1" gradientTransform="matrix(22 76.5 53.6526 -15.4295 -30377.6875 30612.9355)" gradientUnits="userSpaceOnUse">
		<stop  offset="0" style="stop-color:#61CDFF"/>
		<stop  offset="1" style="stop-color:#305BF3"/>
	</radialGradient>
	<circle class="st0" cx="31.5" cy="31.5" r="31.5"/>
	<path class="st1" d="M29.7,33.2C16.2,44.9,4.3,36.3,0,30.6C0,19.1,18.5-7.1,40,1.8c17.2,7.1,21.2,22.1,21,28.7
		C56.2,26.5,43.3,21.5,29.7,33.2z"/>
	
		<linearGradient id="SVGID_00000065772332205475008600000017533310079620814984_" gradientUnits="userSpaceOnUse" x1="32.6246" y1="459.8604" x2="32.6246" y2="440.9103" gradientTransform="matrix(1 0 0 -1 0 502.8605)">
		<stop  offset="0" style="stop-color:#59B3FD"/>
		<stop  offset="1" style="stop-color:#59B3FD;stop-opacity:0"/>
	</linearGradient>
	<path style="fill:url(#SVGID_00000065772332205475008600000017533310079620814984_);fill-opacity:0.2;" d="M55.2,49.4
		c-6.8,11.2-20.8,13-27,12.5c-4.8,0.1-11.7-3.4-15-6c-3.2-1.7-7.3-7.5,5.5-11.5C31.5,40.4,48.4,46,55.2,49.4z"/>
	
		<linearGradient id="SVGID_00000150081805709111116570000010706766925143517367_" gradientUnits="userSpaceOnUse" x1="31" y1="484.3605" x2="31" y2="493.8605" gradientTransform="matrix(1 0 0 -1 0 502.8605)">
		<stop  offset="0" style="stop-color:#E7F5FC;stop-opacity:0"/>
		<stop  offset="1" style="stop-color:#39FEFE"/>
	</linearGradient>
	
		<ellipse style="fill:url(#SVGID_00000150081805709111116570000010706766925143517367_);fill-opacity:0.2;" cx="31" cy="13" rx="18" ry="12"/>
	<path class="st4" d="M21.2,49.7l1.1-0.6c0.3-0.2,0.7-0.1,0.8,0.2c0.3,0.6,1.1,0.8,1.7,0.4l9-5.2c0.6-0.3,0.8-1.1,0.4-1.7
		c-0.2-0.3-0.1-0.7,0.2-0.8l1.1-0.6c0.6-0.3,0.8-1.1,0.4-1.7L25,20.6c-0.3-0.6-1.1-0.8-1.7-0.4l-1.1,0.6c-0.3,0.2-0.7,0.1-0.8-0.2
		c-0.3-0.6-1.1-0.8-1.7-0.4l-9,5.2c-0.6,0.3-0.8,1.1-0.4,1.7c0.2,0.3,0.1,0.7-0.2,0.8L9,28.5c-0.6,0.3-0.8,1.1-0.4,1.7l11,19.1
		C19.9,49.8,20.6,50,21.2,49.7z M20.9,20.9c0.3,0.6,1.1,0.8,1.7,0.4l1.1-0.6c0.3-0.2,0.7-0.1,0.8,0.2l11,19.1
		c0.2,0.3,0.1,0.7-0.2,0.8l-1.1,0.6c-0.6,0.3-0.8,1.1-0.4,1.7c0.2,0.3,0.1,0.7-0.2,0.8l-4.2,2.4l-0.8-1.3l2.3-1.3
		c0.6-0.4,0.8-1.2,0.5-1.8l-0.1-0.1c-0.4-0.6-1.2-0.8-1.8-0.5l-0.6,0.4c-0.3,0.2-0.8,0.1-1-0.3c-0.1-0.2-0.1-0.5,0-0.7
		c0.3-0.5,0.4-1,0.2-1.4c-0.2-0.4-0.7-0.6-1.3-0.6c-0.2,0-0.5-0.1-0.6-0.3L25.8,38c-0.1-0.2-0.1-0.5,0-0.7c0.9-1.4,1-3.1,0.1-4.5
		c-0.8-1.4-2.4-2.2-4-2.1c-0.2,0-0.5-0.1-0.6-0.3l-0.3-0.4c-0.1-0.2-0.1-0.5,0-0.7c0.3-0.6,0.4-1.1,0.2-1.4
		c-0.2-0.4-0.7-0.6-1.3-0.6c-0.2,0-0.5-0.1-0.6-0.3c-0.2-0.3-0.1-0.8,0.3-1l0.6-0.4c0.6-0.4,0.8-1.2,0.5-1.8l-0.1-0.1
		c-0.4-0.6-1.2-0.8-1.8-0.5l-2.3,1.3l-0.8-1.3l4.2-2.4C20.3,20.5,20.7,20.6,20.9,20.9z M24.5,42.1c-0.4,0-0.6-0.1-0.7-0.2
		c-0.1-0.2,0-0.4,0.2-0.8c0.3-0.4,0.3-0.9,0-1.4l-0.3-0.5c-0.2-0.4-0.7-0.7-1.2-0.7c-1.4,0.1-2.7-0.6-3.4-1.8
		c-0.7-1.2-0.6-2.7,0.1-3.9c0.3-0.4,0.3-0.9,0-1.4L19,31.1c-0.2-0.4-0.7-0.7-1.2-0.7c-0.4,0-0.6-0.1-0.7-0.2c-0.1-0.2,0-0.4,0.2-0.8
		c0.3-0.4,0.3-0.9,0-1.4c-0.4-0.6-1.2-0.8-1.8-0.5l-0.6,0.4c-0.3,0.2-0.8,0.1-1-0.3l-0.1-0.1c-0.2-0.3-0.1-0.8,0.3-1l5.1-3
		c0.3-0.2,0.8-0.1,1,0.3l0.1,0.1c0.2,0.3,0.1,0.8-0.3,1l-0.6,0.4c-0.6,0.4-0.8,1.2-0.5,1.8c0.2,0.4,0.7,0.7,1.2,0.7
		c0.4,0,0.6,0.1,0.7,0.2s0,0.4-0.2,0.8c-0.3,0.4-0.3,0.9,0,1.4l0.3,0.4c0.2,0.4,0.7,0.7,1.2,0.7c1.4-0.1,2.7,0.6,3.4,1.8
		c0.7,1.2,0.6,2.7-0.1,3.9c-0.3,0.4-0.3,0.9,0,1.4l0.3,0.5c0.2,0.4,0.7,0.7,1.2,0.7c0.4,0,0.6,0.1,0.7,0.2c0.1,0.2,0,0.4-0.2,0.8
		c-0.3,0.4-0.3,0.9,0,1.4c0.4,0.6,1.2,0.8,1.8,0.5l0.6-0.4c0.3-0.2,0.8-0.1,1,0.3l0.1,0.1c0.2,0.3,0.1,0.8-0.3,1l-5.1,3
		c-0.3,0.2-0.8,0.1-1-0.3l-0.1-0.1c-0.2-0.3-0.1-0.8,0.3-1l0.6-0.4c0.6-0.4,0.8-1.2,0.5-1.8C25.4,42.3,25,42,24.5,42.1z M9.1,29.8
		C8.9,29.5,9,29.2,9.3,29l1.1-0.6c0.6-0.3,0.8-1.1,0.4-1.7c-0.2-0.3-0.1-0.7,0.2-0.8l4.2-2.4l0.8,1.3l-2.3,1.3
		c-0.6,0.4-0.8,1.2-0.5,1.8l0.1,0.1c0.4,0.6,1.2,0.8,1.8,0.5l0.6-0.4c0.3-0.2,0.8-0.1,1,0.3c0.1,0.2,0.1,0.5,0,0.7
		c-0.3,0.5-0.4,1-0.2,1.4c0.2,0.4,0.7,0.6,1.3,0.6c0.2,0,0.5,0.1,0.6,0.3l0.3,0.4c0.1,0.2,0.1,0.5,0,0.7c-0.9,1.4-1,3.1-0.1,4.5
		c0.8,1.4,2.4,2.2,4,2.1c0.2,0,0.5,0.1,0.6,0.3l0.3,0.5c0.1,0.2,0.1,0.5,0,0.7c-0.3,0.6-0.4,1.1-0.2,1.4c0.2,0.4,0.7,0.6,1.3,0.6
		c0.2,0,0.5,0.1,0.6,0.3c0.2,0.3,0.1,0.8-0.3,1l-0.6,0.4c-0.6,0.4-0.8,1.2-0.5,1.8l0.1,0.1c0.4,0.6,1.2,0.8,1.8,0.5l2.3-1.3l0.8,1.3
		l-4.2,2.4c-0.3,0.2-0.7,0.1-0.8-0.2c-0.3-0.6-1.1-0.8-1.7-0.4l-1.1,0.6c-0.3,0.2-0.7,0.1-0.8-0.2L9.1,29.8z"/>
	<defs>
		<filter id="Adobe_OpacityMaskFilter" filterUnits="userSpaceOnUse" x="7.9" y="19.5" width="28.8" height="30.9">
			<feColorMatrix  type="matrix" values="1 0 0 0 0  0 1 0 0 0  0 0 1 0 0  0 0 0 1 0"/>
		</filter>
	</defs>
	
		<mask maskUnits="userSpaceOnUse" x="7.9" y="19.5" width="28.8" height="30.9" id="path-5-outside-1_1042_1592_00000160909163788450027930000004802385635403427498_">
		<rect x="5.7" y="16.8" class="st5" width="33.2" height="36.5"/>
		<path d="M21.2,49.7l1.1-0.6c0.3-0.2,0.7-0.1,0.8,0.2c0.3,0.6,1.1,0.8,1.7,0.4l9-5.2c0.6-0.3,0.8-1.1,0.4-1.7
			c-0.2-0.3-0.1-0.7,0.2-0.8l1.1-0.6c0.6-0.3,0.8-1.1,0.4-1.7L25,20.6c-0.3-0.6-1.1-0.8-1.7-0.4l-1.1,0.6c-0.3,0.2-0.7,0.1-0.8-0.2
			c-0.3-0.6-1.1-0.8-1.7-0.4l-9,5.2c-0.6,0.3-0.8,1.1-0.4,1.7c0.2,0.3,0.1,0.7-0.2,0.8L9,28.5c-0.6,0.3-0.8,1.1-0.4,1.7l11,19.1
			C19.9,49.8,20.6,50,21.2,49.7z M20.9,20.9c0.3,0.6,1.1,0.8,1.7,0.4l1.1-0.6c0.3-0.2,0.7-0.1,0.8,0.2l11,19.1
			c0.2,0.3,0.1,0.7-0.2,0.8l-1.1,0.6c-0.6,0.3-0.8,1.1-0.4,1.7c0.2,0.3,0.1,0.7-0.2,0.8l-4.2,2.4l-0.8-1.3l2.3-1.3
			c0.6-0.4,0.8-1.2,0.5-1.8l-0.1-0.1c-0.4-0.6-1.2-0.8-1.8-0.5l-0.6,0.4c-0.3,0.2-0.8,0.1-1-0.3c-0.1-0.2-0.1-0.5,0-0.7
			c0.3-0.5,0.4-1,0.2-1.4c-0.2-0.4-0.7-0.6-1.3-0.6c-0.2,0-0.5-0.1-0.6-0.3L25.8,38c-0.1-0.2-0.1-0.5,0-0.7c0.9-1.4,1-3.1,0.1-4.5
			c-0.8-1.4-2.4-2.2-4-2.1c-0.2,0-0.5-0.1-0.6-0.3l-0.3-0.4c-0.1-0.2-0.1-0.5,0-0.7c0.3-0.6,0.4-1.1,0.2-1.4
			c-0.2-0.4-0.7-0.6-1.3-0.6c-0.2,0-0.5-0.1-0.6-0.3c-0.2-0.3-0.1-0.8,0.3-1l0.6-0.4c0.6-0.4,0.8-1.2,0.5-1.8l-0.1-0.1
			c-0.4-0.6-1.2-0.8-1.8-0.5l-2.3,1.3l-0.8-1.3l4.2-2.4C20.3,20.5,20.7,20.6,20.9,20.9z M24.5,42.1c-0.4,0-0.6-0.1-0.7-0.2
			c-0.1-0.2,0-0.4,0.2-0.8c0.3-0.4,0.3-0.9,0-1.4l-0.3-0.5c-0.2-0.4-0.7-0.7-1.2-0.7c-1.4,0.1-2.7-0.6-3.4-1.8
			c-0.7-1.2-0.6-2.7,0.1-3.9c0.3-0.4,0.3-0.9,0-1.4L19,31.1c-0.2-0.4-0.7-0.7-1.2-0.7c-0.4,0-0.6-0.1-0.7-0.2
			c-0.1-0.2,0-0.4,0.2-0.8c0.3-0.4,0.3-0.9,0-1.4c-0.4-0.6-1.2-0.8-1.8-0.5l-0.6,0.4c-0.3,0.2-0.8,0.1-1-0.3l-0.1-0.1
			c-0.2-0.3-0.1-0.8,0.3-1l5.1-3c0.3-0.2,0.8-0.1,1,0.3l0.1,0.1c0.2,0.3,0.1,0.8-0.3,1l-0.6,0.4c-0.6,0.4-0.8,1.2-0.5,1.8
			c0.2,0.4,0.7,0.7,1.2,0.7c0.4,0,0.6,0.1,0.7,0.2s0,0.4-0.2,0.8c-0.3,0.4-0.3,0.9,0,1.4l0.3,0.4c0.2,0.4,0.7,0.7,1.2,0.7
			c1.4-0.1,2.7,0.6,3.4,1.8c0.7,1.2,0.6,2.7-0.1,3.9c-0.3,0.4-0.3,0.9,0,1.4l0.3,0.5c0.2,0.4,0.7,0.7,1.2,0.7c0.4,0,0.6,0.1,0.7,0.2
			c0.1,0.2,0,0.4-0.2,0.8c-0.3,0.4-0.3,0.9,0,1.4c0.4,0.6,1.2,0.8,1.8,0.5l0.6-0.4c0.3-0.2,0.8-0.1,1,0.3l0.1,0.1
			c0.2,0.3,0.1,0.8-0.3,1l-5.1,3c-0.3,0.2-0.8,0.1-1-0.3l-0.1-0.1c-0.2-0.3-0.1-0.8,0.3-1l0.6-0.4c0.6-0.4,0.8-1.2,0.5-1.8
			C25.4,42.3,25,42,24.5,42.1z M9.1,29.8C8.9,29.5,9,29.2,9.3,29l1.1-0.6c0.6-0.3,0.8-1.1,0.4-1.7c-0.2-0.3-0.1-0.7,0.2-0.8l4.2-2.4
			l0.8,1.3l-2.3,1.3c-0.6,0.4-0.8,1.2-0.5,1.8l0.1,0.1c0.4,0.6,1.2,0.8,1.8,0.5l0.6-0.4c0.3-0.2,0.8-0.1,1,0.3
			c0.1,0.2,0.1,0.5,0,0.7c-0.3,0.5-0.4,1-0.2,1.4c0.2,0.4,0.7,0.6,1.3,0.6c0.2,0,0.5,0.1,0.6,0.3l0.3,0.4c0.1,0.2,0.1,0.5,0,0.7
			c-0.9,1.4-1,3.1-0.1,4.5c0.8,1.4,2.4,2.2,4,2.1c0.2,0,0.5,0.1,0.6,0.3l0.3,0.5c0.1,0.2,0.1,0.5,0,0.7c-0.3,0.6-0.4,1.1-0.2,1.4
			c0.2,0.4,0.7,0.6,1.3,0.6c0.2,0,0.5,0.1,0.6,0.3c0.2,0.3,0.1,0.8-0.3,1l-0.6,0.4c-0.6,0.4-0.8,1.2-0.5,1.8l0.1,0.1
			c0.4,0.6,1.2,0.8,1.8,0.5l2.3-1.3l0.8,1.3l-4.2,2.4c-0.3,0.2-0.7,0.1-0.8-0.2c-0.3-0.6-1.1-0.8-1.7-0.4l-1.1,0.6
			c-0.3,0.2-0.7,0.1-0.8-0.2L9.1,29.8z"/>
	</mask>
	<path class="st6" d="M21.2,49.7l1.1-0.6c0.3-0.2,0.7-0.1,0.8,0.2c0.3,0.6,1.1,0.8,1.7,0.4l9-5.2c0.6-0.3,0.8-1.1,0.4-1.7
		c-0.2-0.3-0.1-0.7,0.2-0.8l1.1-0.6c0.6-0.3,0.8-1.1,0.4-1.7L25,20.6c-0.3-0.6-1.1-0.8-1.7-0.4l-1.1,0.6c-0.3,0.2-0.7,0.1-0.8-0.2
		c-0.3-0.6-1.1-0.8-1.7-0.4l-9,5.2c-0.6,0.3-0.8,1.1-0.4,1.7c0.2,0.3,0.1,0.7-0.2,0.8L9,28.5c-0.6,0.3-0.8,1.1-0.4,1.7l11,19.1
		C19.9,49.8,20.6,50,21.2,49.7z M20.9,20.9c0.3,0.6,1.1,0.8,1.7,0.4l1.1-0.6c0.3-0.2,0.7-0.1,0.8,0.2l11,19.1
		c0.2,0.3,0.1,0.7-0.2,0.8l-1.1,0.6c-0.6,0.3-0.8,1.1-0.4,1.7c0.2,0.3,0.1,0.7-0.2,0.8l-4.2,2.4l-0.8-1.3l2.3-1.3
		c0.6-0.4,0.8-1.2,0.5-1.8l-0.1-0.1c-0.4-0.6-1.2-0.8-1.8-0.5l-0.6,0.4c-0.3,0.2-0.8,0.1-1-0.3c-0.1-0.2-0.1-0.5,0-0.7
		c0.3-0.5,0.4-1,0.2-1.4c-0.2-0.4-0.7-0.6-1.3-0.6c-0.2,0-0.5-0.1-0.6-0.3L25.8,38c-0.1-0.2-0.1-0.5,0-0.7c0.9-1.4,1-3.1,0.1-4.5
		c-0.8-1.4-2.4-2.2-4-2.1c-0.2,0-0.5-0.1-0.6-0.3l-0.3-0.4c-0.1-0.2-0.1-0.5,0-0.7c0.3-0.6,0.4-1.1,0.2-1.4
		c-0.2-0.4-0.7-0.6-1.3-0.6c-0.2,0-0.5-0.1-0.6-0.3c-0.2-0.3-0.1-0.8,0.3-1l0.6-0.4c0.6-0.4,0.8-1.2,0.5-1.8l-0.1-0.1
		c-0.4-0.6-1.2-0.8-1.8-0.5l-2.3,1.3l-0.8-1.3l4.2-2.4C20.3,20.5,20.7,20.6,20.9,20.9z M24.5,42.1c-0.4,0-0.6-0.1-0.7-0.2
		c-0.1-0.2,0-0.4,0.2-0.8c0.3-0.4,0.3-0.9,0-1.4l-0.3-0.5c-0.2-0.4-0.7-0.7-1.2-0.7c-1.4,0.1-2.7-0.6-3.4-1.8
		c-0.7-1.2-0.6-2.7,0.1-3.9c0.3-0.4,0.3-0.9,0-1.4L19,31.1c-0.2-0.4-0.7-0.7-1.2-0.7c-0.4,0-0.6-0.1-0.7-0.2c-0.1-0.2,0-0.4,0.2-0.8
		c0.3-0.4,0.3-0.9,0-1.4c-0.4-0.6-1.2-0.8-1.8-0.5l-0.6,0.4c-0.3,0.2-0.8,0.1-1-0.3l-0.1-0.1c-0.2-0.3-0.1-0.8,0.3-1l5.1-3
		c0.3-0.2,0.8-0.1,1,0.3l0.1,0.1c0.2,0.3,0.1,0.8-0.3,1l-0.6,0.4c-0.6,0.4-0.8,1.2-0.5,1.8c0.2,0.4,0.7,0.7,1.2,0.7
		c0.4,0,0.6,0.1,0.7,0.2s0,0.4-0.2,0.8c-0.3,0.4-0.3,0.9,0,1.4l0.3,0.4c0.2,0.4,0.7,0.7,1.2,0.7c1.4-0.1,2.7,0.6,3.4,1.8
		c0.7,1.2,0.6,2.7-0.1,3.9c-0.3,0.4-0.3,0.9,0,1.4l0.3,0.5c0.2,0.4,0.7,0.7,1.2,0.7c0.4,0,0.6,0.1,0.7,0.2c0.1,0.2,0,0.4-0.2,0.8
		c-0.3,0.4-0.3,0.9,0,1.4c0.4,0.6,1.2,0.8,1.8,0.5l0.6-0.4c0.3-0.2,0.8-0.1,1,0.3l0.1,0.1c0.2,0.3,0.1,0.8-0.3,1l-5.1,3
		c-0.3,0.2-0.8,0.1-1-0.3l-0.1-0.1c-0.2-0.3-0.1-0.8,0.3-1l0.6-0.4c0.6-0.4,0.8-1.2,0.5-1.8C25.4,42.3,25,42,24.5,42.1z M9.1,29.8
		C8.9,29.5,9,29.2,9.3,29l1.1-0.6c0.6-0.3,0.8-1.1,0.4-1.7c-0.2-0.3-0.1-0.7,0.2-0.8l4.2-2.4l0.8,1.3l-2.3,1.3
		c-0.6,0.4-0.8,1.2-0.5,1.8l0.1,0.1c0.4,0.6,1.2,0.8,1.8,0.5l0.6-0.4c0.3-0.2,0.8-0.1,1,0.3c0.1,0.2,0.1,0.5,0,0.7
		c-0.3,0.5-0.4,1-0.2,1.4c0.2,0.4,0.7,0.6,1.3,0.6c0.2,0,0.5,0.1,0.6,0.3l0.3,0.4c0.1,0.2,0.1,0.5,0,0.7c-0.9,1.4-1,3.1-0.1,4.5
		c0.8,1.4,2.4,2.2,4,2.1c0.2,0,0.5,0.1,0.6,0.3l0.3,0.5c0.1,0.2,0.1,0.5,0,0.7c-0.3,0.6-0.4,1.1-0.2,1.4c0.2,0.4,0.7,0.6,1.3,0.6
		c0.2,0,0.5,0.1,0.6,0.3c0.2,0.3,0.1,0.8-0.3,1l-0.6,0.4c-0.6,0.4-0.8,1.2-0.5,1.8l0.1,0.1c0.4,0.6,1.2,0.8,1.8,0.5l2.3-1.3l0.8,1.3
		l-4.2,2.4c-0.3,0.2-0.7,0.1-0.8-0.2c-0.3-0.6-1.1-0.8-1.7-0.4l-1.1,0.6c-0.3,0.2-0.7,0.1-0.8-0.2L9.1,29.8z"/>
	<path class="st4" d="M55,23.7l-0.2-2l0-0.1l0,0l-0.1-0.8L54,20.9l-0.1,0l0,0.1L52,21.3l0.2,1.2l0.7-0.1l-4,5.6
		c-0.3-0.1-0.5-0.2-0.9-0.2c-0.3,0-0.8,0.2-1.1,0.4l-2.1-2.5c0.2-0.3,0.3-0.6,0.3-1c0-1.1-0.9-2.1-2-2.1s-2,0.9-2,2.1
		c0,1.1,0.3,1.2,0.7,1.6l-2.3,5.4c-0.1,0-0.1,0-0.2,0c-0.3,0-0.6,0.1-0.9,0.3l-2-1.9c0.1-0.3,0.2-0.6,0.2-0.9c0-1.1-0.9-2.1-2-2.1
		c-1.1,0-2,0.9-2,2.1s0.2,0.9,0.4,1.2l-1.9,2.8l0.9,0.7l1.9-2.8c0.2,0.1,0.4,0.1,0.6,0.1c0.4,0,0.7-0.1,1-0.3l1.9,1.9
		c-0.2,0.3-0.3,0.6-0.3,1c0,1.1,0.9,2.1,2,2.1c1.1,0,2-0.9,2-2.1c0-1.1-0.3-1.2-0.8-1.6l2.3-5.4c0.1,0,0.1,0,0.2,0
		c0.3,0,0.6-0.1,0.9-0.3l2.2,2.6c-0.1,0.2-0.1,0.5-0.1,0.7c0,1.1,0.9,2.1,2,2.1c1.1,0,2-0.9,2-2.1c0-1.1-0.1-0.7-0.3-1l4.1-5.7
		l0.1,0.8L55,23.7L55,23.7z M47.4,29.2L47.4,29.2c0.2-0.2,0.4-0.3,0.6-0.3c0.5,0,0.9,0.4,0.9,0.9c0,0.5-0.4,0.9-0.9,0.9
		c-0.5,0-0.9-0.4-0.9-0.9C47.2,29.3,47.3,29.3,47.4,29.2z M44,24.7c0,0.5-0.4,0.9-0.9,0.9c-0.5,0-0.9-0.4-0.9-0.9
		c0-0.5,0.4-0.9,0.9-0.9C43.6,23.8,44,24.2,44,24.7z M40.3,33.6c0,0.5-0.4,0.9-0.9,0.9c-0.5,0-0.9-0.4-0.9-0.9
		c0-0.5,0.4-0.9,0.9-0.9C39.9,32.7,40.3,33.1,40.3,33.6z M35.6,29c0,0.5-0.4,0.9-0.9,0.9c-0.5,0-0.9-0.4-0.9-0.9s0.4-0.9,0.9-0.9
		C35.2,28.1,35.6,28.5,35.6,29z"/>
</g>
</svg>
