<?xml version="1.0" encoding="utf-8"?>
<!-- Generator: Adobe Illustrator 28.0.0, SVG Export Plug-In . SVG Version: 6.00 Build 0)  -->
<svg version="1.1" id="Layer_1" xmlns="http://www.w3.org/2000/svg" xmlns:xlink="http://www.w3.org/1999/xlink" x="0px" y="0px"
	 viewBox="0 0 63 63" style="enable-background:new 0 0 63 63;" xml:space="preserve">
<style type="text/css">
	.st0{fill:url(#SVGID_1_);}
	.st1{fill:#5285F7;fill-opacity:0.72;}
	.st2{fill:url(#SVGID_00000148623648820162290120000006859508221329095867_);fill-opacity:0.2;}
	.st3{fill:url(#SVGID_00000133502929062926681290000014013048461554514589_);fill-opacity:0.2;}
	.st4{fill:#FFFFFF;}
	.st5{fill:#FFFFFF;stroke:#FFFFFF;stroke-width:0.35;}
</style>
<g>
	
		<radialGradient id="SVGID_1_" cx="-264.1784" cy="669.8578" r="1" gradientTransform="matrix(22 76.5 53.6526 -15.4295 -30107.6992 30530.2598)" gradientUnits="userSpaceOnUse">
		<stop  offset="0" style="stop-color:#61CDFF"/>
		<stop  offset="1" style="stop-color:#305BF3"/>
	</radialGradient>
	<circle class="st0" cx="31.5" cy="31.5" r="31.5"/>
	<path class="st1" d="M29.7,33.2c-5.8,5-11.2,6.3-15.9,5.7C3.1,37.6-0.1,24.2,6,15.4C13.2,5.1,25.9-4,40,1.8c1.1,0.5,2.2,1,3.2,1.5
		C55.5,9.7,40.2,24.1,29.7,33.2z"/>
	
		<linearGradient id="SVGID_00000132058123351425152270000008663136546215362186_" gradientUnits="userSpaceOnUse" x1="24.6303" y1="449.7962" x2="24.6303" y2="430.8462" gradientTransform="matrix(1 0 0 -1 0 492.7962)">
		<stop  offset="0" style="stop-color:#59B3FD"/>
		<stop  offset="1" style="stop-color:#59B3FD;stop-opacity:0"/>
	</linearGradient>
	<path style="fill:url(#SVGID_00000132058123351425152270000008663136546215362186_);fill-opacity:0.2;" d="M18.7,44.4
		c2-0.6,4.1-1,6.2-1.2c16.7-1.5,19.9,20.1,3.3,18.7c-3.4,0.1-7.9-1.7-11.4-3.7c-2.5-1.4-5.4-2.7-6.5-5.4C9.3,50.3,10.4,47,18.7,44.4
		z"/>
	
		<linearGradient id="SVGID_00000004512935807230258820000012884039620530691747_" gradientUnits="userSpaceOnUse" x1="31" y1="474.2962" x2="31" y2="483.7962" gradientTransform="matrix(1 0 0 -1 0 492.7962)">
		<stop  offset="0" style="stop-color:#E7F5FC;stop-opacity:0"/>
		<stop  offset="1" style="stop-color:#39FEFE"/>
	</linearGradient>
	
		<ellipse style="fill:url(#SVGID_00000004512935807230258820000012884039620530691747_);fill-opacity:0.2;" cx="31" cy="13" rx="18" ry="12"/>
	<path class="st4" d="M55.2,20.2L54.9,18l0-0.1l-0.1,0L54.8,17L54,17.2l-0.1,0l0,0.1l-2.2,0.4l0.2,1.3l0.8-0.2L48.2,25
		c-0.3-0.2-0.6-0.3-1-0.3s-0.9,0.2-1.3,0.5l-2.4-2.8c0.2-0.3,0.3-0.7,0.3-1.1c0-1.3-1-2.3-2.3-2.3s-2.3,1-2.3,2.3s0.3,1.3,0.8,1.8
		l-2.6,6c-0.1,0-0.1,0-0.2,0c-0.4,0-0.7,0.1-1.1,0.3L34,27.2c0.1-0.3,0.2-0.6,0.2-1c0-1.3-1-2.3-2.3-2.3c-1.3,0-2.3,1-2.3,2.3
		c0,1.3,0.2,1,0.5,1.4l-2.2,3.2l1.1,0.8l2.2-3.1c0.2,0.1,0.5,0.2,0.7,0.2c0.4,0,0.8-0.2,1.2-0.4l2.2,2.1c-0.2,0.3-0.3,0.7-0.3,1.1
		c0,1.3,1,2.3,2.3,2.3s2.3-1,2.3-2.3c0-1.3-0.4-1.4-0.9-1.8l2.6-6c0.1,0,0.2,0,0.2,0c0.4,0,0.7-0.1,1.1-0.3l2.5,2.9
		c-0.1,0.3-0.2,0.5-0.2,0.8c0,1.3,1,2.3,2.3,2.3c1.3,0,2.3-1,2.3-2.3c0-1.3-0.2-0.8-0.3-1.2l4.7-6.4l0.1,0.8L55.2,20.2L55.2,20.2z
		 M46.5,26.3L46.5,26.3c0.2-0.2,0.5-0.3,0.7-0.3c0.5,0,1,0.5,1,1c0,0.6-0.4,1-1,1s-1-0.4-1-1C46.2,26.5,46.3,26.5,46.5,26.3z
		 M42.5,21.3c0,0.6-0.4,1-1,1s-1-0.4-1-1c0-0.6,0.4-1,1-1S42.5,20.8,42.5,21.3z M38.3,31.3c0,0.6-0.4,1-1,1c-0.5,0-1-0.4-1-1
		c0-0.6,0.4-1,1-1C37.9,30.3,38.3,30.8,38.3,31.3z M32.9,26.2c0,0.6-0.4,1-1,1c-0.5,0-1-0.4-1-1c0-0.6,0.4-1,1-1
		C32.5,25.2,32.9,25.6,32.9,26.2z"/>
	<path class="st5" d="M37.6,39.8L37.6,39.8c0.9,0.8,1.5,2,1.5,3.2v0c0,2.1-1.5,3.8-3.6,4.2h0c-3.7,0.6-7.4,0.9-11.3,0.9
		c-3.9,0-7.8-0.3-11.8-1l0,0c-2.1-0.4-3.6-2.1-3.6-4.2c0-1.2,0.5-2.4,1.5-3.2c1-0.8,2.3-1.2,3.6-1c5.1,0.8,10.2,0.9,15.3,0.5l-0.8-1
		l0,0l0,0c-0.3-0.4-0.7-0.6-1.2-0.6c-0.3,0-0.6,0.1-0.9,0.3l0,0l0,0c-0.1,0.1-0.2,0.1-0.4,0.1c-0.1,0-0.2-0.1-0.3-0.2L37.6,39.8z
		 M37.6,39.8L37.6,39.8c-0.8-0.7-1.8-1-2.8-1.1L20.8,20l0,0l0,0c-0.7-0.9-2-1.1-3-0.4h0l0,0l-3.4,2.5l0,0l0,0c0,0,0,0,0,0
		c-0.1,0.1-0.2,0.2-0.2,0.3c0,0,0,0,0,0c0,0.1,0,0.2,0.1,0.3l11.3,15.1L37.6,39.8z M27.7,36.8L16.5,21.9l1.9-1.5
		c0.5-0.4,1.2-0.3,1.6,0.2v0l0,0l13.7,18.2c-1.1,0.2-2.2,0.3-3.3,0.4l-1.1-1.5c0,0,0,0,0,0C28.8,37.2,28.3,36.9,27.7,36.8z
		 M35.4,46.2L35.4,46.2c-7.3,1.3-14.9,1.3-22.7,0C11,45.9,9.8,44.6,9.8,43c0-0.9,0.4-1.8,1.1-2.4c0.6-0.5,1.4-0.8,2.2-0.8
		c0.2,0,0.3,0,0.5,0h0c5.4,0.8,11,1,16.4,0.5h0c1.4-0.1,2.7-0.3,4.1-0.5l0,0c1-0.2,2,0.1,2.8,0.8c0.7,0.6,1.1,1.5,1.1,2.4v0
		C38.1,44.6,37,46,35.4,46.2z M26.2,36.9L15.4,22.7l0.2-0.2l10.8,14.4C26.4,36.9,26.3,36.9,26.2,36.9z"/>
	<path class="st5" d="M34.9,40.3c-1.4,0-2.6,1.2-2.6,2.6c0,1.4,1.2,2.6,2.6,2.6c1.4,0,2.6-1.2,2.6-2.6
		C37.5,41.5,36.3,40.3,34.9,40.3z M34.9,44.6c-0.9,0-1.6-0.7-1.6-1.6c0-0.9,0.7-1.6,1.6-1.6c0.9,0,1.6,0.7,1.6,1.6
		C36.5,43.8,35.7,44.6,34.9,44.6z"/>
</g>
</svg>
