<?xml version="1.0" encoding="utf-8"?>
<!-- Generator: Adobe Illustrator 28.0.0, SVG Export Plug-In . SVG Version: 6.00 Build 0)  -->
<svg version="1.1" id="Layer_1" xmlns="http://www.w3.org/2000/svg" xmlns:xlink="http://www.w3.org/1999/xlink" x="0px" y="0px"
	 viewBox="0 0 63 63" style="enable-background:new 0 0 63 63;" xml:space="preserve">
<style type="text/css">
	.st0{fill:url(#SVGID_1_);}
	.st1{fill:#FFFFFF;}
</style>
<g>
	<radialGradient id="SVGID_1_" cx="-16.3215" cy="29.721" r="74.0603" gradientUnits="userSpaceOnUse">
		<stop  offset="0" style="stop-color:#61CDFF"/>
		<stop  offset="1" style="stop-color:#305BF3"/>
	</radialGradient>
	<path class="st0" d="M63,31.5C63,48.9,48.9,63,31.5,63c-11.2,0-21.1-5.9-26.7-14.7c-0.4-0.6-0.7-1.2-1.1-1.8C1.4,42,0,36.9,0,31.5
		C0,14.1,14.1,0,31.5,0S63,14.1,63,31.5z"/>
	<path class="st1" d="M59.2,20v-0.2L59,17.9l-1.7,0.2h-0.2v0.2l-4.5,0.7l0.5,2.8l1.7-0.2l-9.4,13.2c-0.7-0.2-1.2-0.5-2.1-0.5
		c-0.7,0-1.9,0.5-2.6,0.9l-5-5.9c0.5-0.7,0.7-1.4,0.7-2.4c0-2.6-2.1-4.9-4.7-4.9c-2.6,0-4.7,2.1-4.7,4.9c0,2.6,0.7,2.8,1.6,3.8
		l-5.4,12.7c-0.2,0-0.2,0-0.5,0c-0.7,0-1.4,0.2-2.1,0.7l-4.7-4.5c0.2-0.7,0.5-1.4,0.5-2.1c0-2.6-2.1-5-4.7-5c-2.6,0-4.7,2.1-4.7,5
		s0.5,2.1,0.9,2.8l-4,5.9c0.3,0.6,0.7,1.2,1.1,1.8l0.6,0.5l4.5-6.6c0.5,0.2,0.9,0.2,1.4,0.2c1,0,1.7-0.2,2.4-0.7l4.5,4.5
		c-0.5,0.7-0.7,1.4-0.7,2.4c0,2.6,2.1,5,4.7,5s4.7-2.1,4.7-5c0-2.6-0.7-2.8-1.9-3.8L30.4,32c0.2,0,0.2,0,0.5,0
		c0.7,0,1.4-0.2,2.1-0.7l5.2,6.1C38,37.9,38,38.6,38,39.1c0,2.6,2.1,4.9,4.7,4.9s4.7-2.1,4.7-4.9c0-2.6-0.2-1.7-0.7-2.4l9.7-13.4
		l0.2,1.9l3.1-0.5L59.2,20z M11.8,39.3c-1.2,0-2.1-0.9-2.1-2.1s1-2.1,2.1-2.1c1.2,0,2.1,0.9,2.1,2.1S13,39.3,11.8,39.3z M22.9,50.2
		c-1.2,0-2.1-0.9-2.1-2.1s0.9-2.1,2.1-2.1c1.2,0,2.1,0.9,2.1,2.1S24.1,50.2,22.9,50.2z M31.6,29.2c-1.2,0-2.1-0.9-2.1-2.1
		c0-1.2,0.9-2.1,2.1-2.1s2.1,0.9,2.1,2.1C33.7,28.3,32.8,29.2,31.6,29.2z M43.2,41.2c-1.2,0-2.1-1-2.1-2.1c0.2-1.2,0.5-1.2,0.7-1.4
		c0.5-0.5,0.9-0.7,1.4-0.7c1.2,0,2.1,0.9,2.1,2.1C45.3,40.3,44.3,41.2,43.2,41.2z"/>
</g>
</svg>
