<?xml version="1.0" encoding="utf-8"?>
<!-- Generator: Adobe Illustrator 28.0.0, SVG Export Plug-In . SVG Version: 6.00 Build 0)  -->
<svg version="1.1" id="Layer_1" xmlns="http://www.w3.org/2000/svg" xmlns:xlink="http://www.w3.org/1999/xlink" x="0px" y="0px"
	 viewBox="0 0 63 63" style="enable-background:new 0 0 63 63;" xml:space="preserve">
<style type="text/css">
	.st0{fill:url(#SVGID_1_);}
	.st1{fill:#5285F7;fill-opacity:0.72;}
	.st2{fill:url(#SVGID_00000113331599924370478510000002187879355751577485_);fill-opacity:0.2;}
	.st3{fill:url(#SVGID_00000031921278660350190950000000933781114435332023_);fill-opacity:0.2;}
	.st4{fill:#FFFFFF;}
</style>
<g>
	
		<radialGradient id="SVGID_1_" cx="-264.2817" cy="678.4501" r="1" gradientTransform="matrix(22 76.5 53.6526 -15.4295 -30566.4316 30670.7324)" gradientUnits="userSpaceOnUse">
		<stop  offset="0" style="stop-color:#61CDFF"/>
		<stop  offset="1" style="stop-color:#305BF3"/>
	</radialGradient>
	<circle class="st0" cx="31.5" cy="31.5" r="31.5"/>
	<path class="st1" d="M29.7,33.2C16.2,44.9,4.3,36.3,0,30.6C0,19.1,18.5-7.1,40,1.8c17.2,7.1,21.2,22.1,21,28.7
		C56.2,26.5,43.3,21.5,29.7,33.2z"/>
	
		<linearGradient id="SVGID_00000021082290369453726180000008325469145716508845_" gradientUnits="userSpaceOnUse" x1="32.6246" y1="466.8961" x2="32.6246" y2="447.946" gradientTransform="matrix(1 0 0 -1 0 509.8962)">
		<stop  offset="0" style="stop-color:#59B3FD"/>
		<stop  offset="1" style="stop-color:#59B3FD;stop-opacity:0"/>
	</linearGradient>
	<path style="fill:url(#SVGID_00000021082290369453726180000008325469145716508845_);fill-opacity:0.2;" d="M55.2,49.4
		c-6.8,11.2-20.8,13-27,12.5c-4.8,0.1-11.7-3.4-15-6c-3.2-1.7-7.3-7.5,5.5-11.5C31.5,40.4,48.4,46,55.2,49.4z"/>
	
		<linearGradient id="SVGID_00000013152749298238266790000004063246996028075910_" gradientUnits="userSpaceOnUse" x1="31" y1="491.3962" x2="31" y2="500.8962" gradientTransform="matrix(1 0 0 -1 0 509.8962)">
		<stop  offset="0" style="stop-color:#E7F5FC;stop-opacity:0"/>
		<stop  offset="1" style="stop-color:#39FEFE"/>
	</linearGradient>
	
		<ellipse style="fill:url(#SVGID_00000013152749298238266790000004063246996028075910_);fill-opacity:0.2;" cx="31" cy="13" rx="18" ry="12"/>
	<path class="st4" d="M13.9,36.7c0.5-2.2,1-4.4,1.5-6.6c1.6-6.7,3.2-13.5,4.7-20.2c0.2-0.8,0.7-1.1,1.5-0.9c0.8,0.2,1.7,0.4,2.5,0.6
		c3.4,1.2,5.4,4.7,4.6,8.2c-1.2,5-2.3,10-3.5,15.1c-0.2,0.9-0.6,1.1-1.5,0.9c-2-0.5-4-0.9-6-1.4c-0.2,0-0.3-0.1-0.6-0.1
		c-0.4,1.5-0.7,3.1-1.1,4.6c1.3,0.1,2.5,0.3,3.8,0.4c4.6,0.2,9.3,0.5,13.9,0.5c5.3,0,10.6-0.5,15.8-1.2c3.1-0.4,5.9,1.7,6.5,4.8
		c0.8,4-2.1,7.4-6.4,7.4c-9.1,0-18.3,0-27.4,0c-2.8,0-5.7,0-8.5,0c-3.4,0-5.9-2.1-6.5-5.3c-0.5-3,1.6-6.2,4.5-6.9
		C12.3,36.7,13.1,36.8,13.9,36.7z M31.5,47c6,0,12.1,0,18.1,0c2.9,0,4.8-2.3,4.2-5c-0.4-2-2.2-3.3-4.1-3.1
		c-4.4,0.4-8.8,0.9-13.2,1.1c-7.7,0.4-15.3,0-22.9-1.1c-2.8-0.4-5.1,1.9-4.5,4.7c0.4,2.1,2,3.4,4.3,3.4C19.5,47,25.5,47,31.5,47
		L31.5,47z M22,11.3c-1.5,6.4-3,12.7-4.5,19.2c1.9,0.4,3.8,0.9,5.7,1.3c0.1-0.1,0.1-0.1,0.1-0.2c1.1-4.7,2.2-9.4,3.3-14.1
		c0.2-0.7,0.1-1.5,0-2.2C26.3,13.1,24.1,11.3,22,11.3L22,11.3z"/>
	<path class="st4" d="M13.5,44.4c-0.9,0-1.6-0.7-1.6-1.6c0-0.9,0.7-1.6,1.6-1.6c0.9,0,1.6,0.8,1.6,1.6
		C15.1,43.8,14.4,44.4,13.5,44.4L13.5,44.4z"/>
	<g>
		<path class="st4" d="M54.4,20.6l-0.3-2.5l0.1-0.1L54.1,18L54,17l-1,0.2L53,17.1L53,17.2l-2.5,0.5l0.3,1.5l1-0.2l-5.3,7
			c-0.3-0.2-0.7-0.3-1.1-0.3c-0.4,0-1.1,0.2-1.5,0.5L41,23.1c0.2-0.4,0.4-0.8,0.4-1.2c0-1.4-1.2-2.6-2.6-2.6c-1.4,0-2.6,1.2-2.6,2.6
			c0,1.4,0.4,1.5,1,2l-3,6.8c-0.1,0-0.1,0-0.2,0c-0.4,0-0.8,0.1-1.2,0.3L30,28.5c0.2-0.3,0.3-0.7,0.3-1.1c0-1.4-1.2-2.6-2.6-2.6
			c-1.4,0-2.6,1.2-2.6,2.6c0,1.4,0.2,1.1,0.6,1.5L23,32.5l1.2,0.9l2.6-3.5c0.3,0.1,0.6,0.2,0.9,0.2c0.5,0,1-0.2,1.4-0.4l2.6,2.4
			c-0.2,0.4-0.4,0.8-0.4,1.2c0,1.4,1.2,2.6,2.6,2.6c1.4,0,2.6-1.2,2.6-2.6c0-1.4-0.4-1.5-1-2l3-6.8c0.1,0,0.2,0.1,0.3,0.1
			c0.4,0,0.8-0.1,1.2-0.3l2.8,3.2c-0.1,0.3-0.2,0.6-0.2,0.9c0,1.4,1.2,2.6,2.6,2.6s2.6-1.2,2.6-2.6c0-1.4-0.2-0.9-0.4-1.3l5.4-7.2
			l0.1,1L54.4,20.6L54.4,20.6z M44.4,27.5L44.4,27.5c0.3-0.2,0.5-0.4,0.8-0.4c0.6,0,1.1,0.5,1.1,1.1c0,0.6-0.5,1.1-1.1,1.1
			s-1.1-0.5-1.1-1.1C44.1,27.7,44.2,27.7,44.4,27.5z M39.9,21.9c0,0.6-0.5,1.1-1.1,1.1c-0.6,0-1.1-0.5-1.1-1.1
			c0-0.6,0.5-1.1,1.1-1.1C39.4,20.8,39.9,21.3,39.9,21.9z M35,33.2c0,0.6-0.5,1.1-1.1,1.1c-0.6,0-1.1-0.5-1.1-1.1
			c0-0.6,0.5-1.1,1.1-1.1S35,32.6,35,33.2z M28.8,27.4c0,0.6-0.5,1.1-1.1,1.1c-0.6,0-1.1-0.5-1.1-1.1c0-0.6,0.5-1.1,1.1-1.1
			S28.8,26.8,28.8,27.4z"/>
	</g>
</g>
</svg>
