<?xml version="1.0" encoding="utf-8"?>
<!-- Generator: Adobe Illustrator 28.0.0, SVG Export Plug-In . SVG Version: 6.00 Build 0)  -->
<svg version="1.1" id="Layer_1" xmlns="http://www.w3.org/2000/svg" xmlns:xlink="http://www.w3.org/1999/xlink" x="0px" y="0px"
	 viewBox="0 0 63 63" style="enable-background:new 0 0 63 63;" xml:space="preserve">
<style type="text/css">
	.st0{fill:#1FA2FF;}
	.st1{fill:#FFFFFF;}
</style>
<circle class="st0" cx="31.5" cy="31.5" r="31.5"/>
<g>
	<path class="st1" d="M51.2,38.2c0-7.4,0-14.8,0-22.2c-0.1,0-0.2,0-0.3,0c-6.6,0-13.1,0-19.7,0c-0.2,0-0.3,0-0.5-0.1
		c-0.5-0.1-0.7-0.6-0.7-1.1c0.1-0.5,0.5-0.8,1-0.8c0.6,0,1.3,0,1.9,0c6.4,0,12.8,0,19.2,0c0.8,0,1.2,0.4,1.2,1.2c0,8,0,16,0,23.9
		c0,0.8-0.4,1.2-1.2,1.2c-6.6,0-13.3,0-19.9,0c-0.7,0-1.1-0.4-1.2-0.9c0-0.6,0.4-1.1,1-1.1c1.7,0,3.5,0,5.2,0c4.6,0,9.1,0,13.7,0
		C51,38.2,51.1,38.2,51.2,38.2z"/>
	<path class="st1" d="M20.9,52.3c0-0.1,0-0.2,0-0.3c0-3.5,0-7.1,0-10.6c0-0.1,0-0.3,0-0.4c0.1-0.5,0.6-0.8,1.1-0.7s0.8,0.5,0.8,1
		c0,1.5,0,3.1,0,4.6c0,2.1,0,4.2,0,6.2c0,0.1,0,0.2,0,0.3h0.1c0.7,0,1.4,0,2.1,0c1.1-0.1,1.9-0.9,1.9-2.1c0-3.1,0-6.3,0-9.4
		c0-3.2,0-6.4,0-9.6c0-0.6,0.3-1,0.8-1.1c0.6-0.1,1.1,0.3,1.2,0.9c0,0.3,0,0.6,0,0.9c0,6.1,0,12.2,0,18.3c0,1.3-0.4,2.3-1.4,3.1
		c-0.7,0.6-1.5,1-2.5,1c-0.7,0-1.4,0-2.2,0c-1.4,0-2.7,0-4.1,0c-2,0-3.6-1.3-4-3.2c-0.1-0.3-0.1-0.6-0.1-0.9c0-6.4,0-12.7,0-19.1
		c0-0.6,0.3-1,0.9-1.1c0.5-0.1,1,0.2,1.1,0.7c0,0.2,0,0.3,0,0.5c0,6.3,0,12.6,0,18.8c0,0.7,0.2,1.3,0.8,1.8c0.3,0.2,0.6,0.4,1,0.4
		C19.4,52.3,20.1,52.3,20.9,52.3z"/>
	<path class="st1" d="M26.2,24c3.6,0,7.2,0,10.7,0c2,0,3.6,1.3,4.1,3.2c0.5,2.4-1.3,4.8-3.8,4.9c-1.7,0-3.5,0-5.2,0
		c-0.6,0-1-0.4-1-1s0.4-1,1-1c0.3,0,0.6,0,0.9,0c1.4,0,2.7,0,4.1,0c1,0,1.9-0.7,2-1.7c0.2-1.2-0.8-2.3-2-2.3c-2.1,0-4.3,0-6.4,0
		c-4.9,0-9.8,0-14.7,0c-2.6,0-4.7,1.7-5.1,4.3c0,0.3-0.1,0.5-0.1,0.8c0,1.3,0,2.6,0,3.9c0,1.9,0.8,3.4,2.4,4.4
		c0.5,0.3,0.7,0.7,0.5,1.2c-0.2,0.6-0.9,0.9-1.5,0.6c-1.5-0.9-2.5-2.2-3.1-3.9c-0.2-0.7-0.3-1.4-0.3-2.1c0-1.4,0-2.9,0-4.3
		c0.1-3.3,2.5-6.2,5.8-6.7c0.5-0.1,1-0.1,1.4-0.1C19.4,24,22.8,24,26.2,24z"/>
	<path class="st1" d="M15.8,17c0-3.3,2.7-6.1,6.1-6c3.4,0,6.1,2.7,6.1,6.1s-2.7,6.1-6.1,6S15.8,20.3,15.8,17z M21.9,12.9
		c-2.2,0-4,1.8-4,4s1.8,4.1,4,4.1s4-1.8,4-4C25.9,14.7,24.1,12.9,21.9,12.9z"/>
</g>
</svg>
