<?xml version="1.0" encoding="utf-8"?>
<!-- Generator: Adobe Illustrator 28.0.0, SVG Export Plug-In . SVG Version: 6.00 Build 0)  -->
<svg version="1.1" id="Layer_1" xmlns="http://www.w3.org/2000/svg" xmlns:xlink="http://www.w3.org/1999/xlink" x="0px" y="0px"
	 viewBox="0 0 184 74" style="enable-background:new 0 0 184 74;" xml:space="preserve">
<style type="text/css">
	.st0{fill:#FAFAFA;fill-opacity:0.3;}
	.st1{clip-path:url(#SVGID_00000057850613816507421450000003396196367537235640_);}
	.st2{fill:#1EE981;}
	.st3{fill:#FFFFFF;}
</style>
<g>
	<g>
		<path shape-rendering="crispEdges" class="st0" d="M10,0h164c5.5,0,10,4.5,10,10v54c0,5.5-4.5,10-10,10H10C4.5,74,0,69.5,0,64V10
			C0,4.5,4.5,0,10,0z"/>
	</g>
	<g>
		<defs>
			<rect id="SVGID_1_" x="13" y="18" width="39" height="39"/>
		</defs>
		<clipPath id="SVGID_00000001650852641689426600000009273640537374572447_">
			<use xlink:href="#SVGID_1_"  style="overflow:visible;"/>
		</clipPath>
		<g style="clip-path:url(#SVGID_00000001650852641689426600000009273640537374572447_);">
			<path class="st2" d="M40.7,29.3c-0.2-0.2-0.4-0.3-0.6-0.3c-0.2-0.1-0.5,0-0.7,0l-11,3.7c-0.2,0.1-0.3,0.2-0.5,0.3
				c-0.1,0.1-0.2,0.3-0.3,0.5l-3.7,11c-0.1,0.2-0.1,0.4,0,0.7c0.1,0.2,0.2,0.4,0.3,0.6c0.2,0.2,0.4,0.3,0.6,0.3c0.2,0.1,0.5,0,0.7,0
				l11-3.7c0.2-0.1,0.3-0.2,0.5-0.3c0.1-0.1,0.2-0.3,0.3-0.5l3.7-11c0.1-0.2,0.1-0.4,0-0.7C40.9,29.7,40.8,29.5,40.7,29.3z
				 M27.1,42.9l2.7-8.1l5.4,5.4L27.1,42.9z"/>
			<path class="st2" d="M32.5,54.6c-3.4,0-6.7-1-9.5-2.9c-2.8-1.9-5-4.5-6.3-7.7c-1.3-3.1-1.6-6.5-1-9.9c0.7-3.3,2.3-6.4,4.7-8.7
				s5.4-4,8.7-4.7c3.3-0.7,6.7-0.3,9.9,1c3.1,1.3,5.8,3.5,7.7,6.3c1.9,2.8,2.9,6.1,2.9,9.5c0,4.5-1.8,8.9-5,12.1S37,54.6,32.5,54.6z
				 M32.5,22.9c-2.9,0-5.7,0.9-8.1,2.5c-2.4,1.6-4.3,3.9-5.4,6.6c-1.1,2.7-1.4,5.6-0.8,8.4c0.6,2.8,2,5.4,4,7.5c2,2,4.7,3.4,7.5,4
				s5.8,0.3,8.5-0.8c2.7-1.1,5-3,6.6-5.4c1.6-2.4,2.5-5.2,2.5-8.1c0-3.9-1.5-7.6-4.3-10.3C40.1,24.4,36.4,22.9,32.5,22.9z"/>
		</g>
	</g>
	<path class="st3" d="M65.1,25V13.4h7.6v1.8h-5.5v3.2h5.1v1.8h-5.1v3.2h5.5V25H65.1z M76.5,16.3l1.8,3.2l1.8-3.2h2.2l-2.6,4.4
		l2.7,4.4h-2.2l-1.8-3.1L76.4,25h-2.2l2.7-4.4l-2.6-4.4H76.5z M83.8,28.3v-12h2v1.4h0.1c0.1-0.2,0.3-0.4,0.4-0.7
		c0.2-0.2,0.5-0.4,0.8-0.6c0.3-0.2,0.8-0.3,1.3-0.3c0.7,0,1.3,0.2,1.8,0.5c0.5,0.3,1,0.8,1.3,1.5c0.3,0.7,0.5,1.5,0.5,2.5
		c0,1-0.2,1.8-0.5,2.4c-0.3,0.7-0.7,1.2-1.3,1.5c-0.5,0.4-1.2,0.5-1.8,0.5c-0.5,0-0.9-0.1-1.2-0.2c-0.3-0.2-0.6-0.4-0.8-0.6
		c-0.2-0.2-0.4-0.5-0.5-0.7h-0.1v4.6H83.8z M85.8,20.6c0,0.6,0.1,1.1,0.2,1.5c0.2,0.4,0.4,0.8,0.7,1c0.3,0.2,0.7,0.4,1.1,0.4
		c0.5,0,0.8-0.1,1.1-0.4c0.3-0.2,0.5-0.6,0.7-1c0.2-0.4,0.2-0.9,0.2-1.5c0-0.5-0.1-1-0.2-1.4c-0.2-0.4-0.4-0.8-0.7-1
		c-0.3-0.2-0.7-0.4-1.1-0.4c-0.4,0-0.8,0.1-1.1,0.3c-0.3,0.2-0.5,0.6-0.7,1C85.9,19.6,85.8,20.1,85.8,20.6z M95.8,13.4V25h-2.1V13.4
		H95.8z M101.8,25.2c-0.9,0-1.6-0.2-2.2-0.6s-1.1-0.9-1.5-1.6c-0.3-0.7-0.5-1.5-0.5-2.4c0-0.9,0.2-1.7,0.5-2.4
		c0.3-0.7,0.8-1.2,1.5-1.6s1.4-0.6,2.2-0.6c0.9,0,1.6,0.2,2.2,0.6s1.1,0.9,1.4,1.6c0.3,0.7,0.5,1.5,0.5,2.4c0,0.9-0.2,1.7-0.5,2.4
		c-0.3,0.7-0.8,1.2-1.4,1.6S102.6,25.2,101.8,25.2z M101.8,23.5c0.5,0,0.8-0.1,1.2-0.4c0.3-0.3,0.5-0.6,0.7-1
		c0.2-0.4,0.2-0.9,0.2-1.4c0-0.5-0.1-1-0.2-1.4c-0.2-0.4-0.4-0.8-0.7-1c-0.3-0.3-0.7-0.4-1.2-0.4c-0.5,0-0.9,0.1-1.2,0.4
		c-0.3,0.3-0.5,0.6-0.7,1c-0.2,0.4-0.2,0.9-0.2,1.4c0,0.5,0.1,1,0.2,1.4c0.2,0.4,0.4,0.8,0.7,1C100.9,23.4,101.3,23.5,101.8,23.5z
		 M107.7,25v-8.7h2v1.5h0.1c0.2-0.5,0.4-0.9,0.8-1.2c0.4-0.3,0.8-0.4,1.3-0.4c0.1,0,0.2,0,0.4,0c0.1,0,0.3,0,0.4,0v1.9
		c-0.1,0-0.2-0.1-0.4-0.1c-0.2,0-0.4,0-0.5,0c-0.4,0-0.7,0.1-1,0.2c-0.3,0.2-0.5,0.4-0.7,0.7c-0.2,0.3-0.3,0.6-0.3,1V25H107.7z
		 M117.5,25.2c-0.9,0-1.6-0.2-2.3-0.5c-0.6-0.4-1.1-0.9-1.5-1.6c-0.3-0.7-0.5-1.5-0.5-2.4c0-0.9,0.2-1.7,0.5-2.4
		c0.3-0.7,0.8-1.2,1.4-1.6c0.6-0.4,1.3-0.6,2.2-0.6c0.5,0,1,0.1,1.5,0.3c0.5,0.2,0.9,0.4,1.3,0.8c0.4,0.4,0.7,0.8,0.9,1.4
		c0.2,0.6,0.3,1.2,0.3,2v0.6h-7.2v-1.4h5.2c0-0.4-0.1-0.7-0.3-1.1c-0.2-0.3-0.4-0.6-0.7-0.7c-0.3-0.2-0.6-0.3-1-0.3
		c-0.4,0-0.8,0.1-1.1,0.3c-0.3,0.2-0.6,0.5-0.7,0.8c-0.2,0.3-0.3,0.7-0.3,1.1v1.2c0,0.5,0.1,0.9,0.3,1.3c0.2,0.4,0.4,0.6,0.8,0.8
		c0.3,0.2,0.7,0.3,1.2,0.3c0.3,0,0.6,0,0.8-0.1c0.2-0.1,0.5-0.2,0.6-0.4c0.2-0.2,0.3-0.4,0.4-0.6l1.9,0.2c-0.1,0.5-0.4,1-0.7,1.3
		c-0.3,0.4-0.8,0.7-1.3,0.9C118.8,25.1,118.2,25.2,117.5,25.2z"/>
	<path class="st3" d="M69.8,38.5c-0.1-0.4-0.3-0.8-0.6-1c-0.4-0.2-0.8-0.4-1.3-0.4c-0.4,0-0.7,0.1-1,0.2c-0.3,0.1-0.5,0.3-0.7,0.5
		c-0.2,0.2-0.2,0.5-0.2,0.7c0,0.2,0.1,0.4,0.2,0.6c0.1,0.2,0.3,0.3,0.4,0.4c0.2,0.1,0.4,0.2,0.6,0.3c0.2,0.1,0.4,0.1,0.5,0.2
		l0.9,0.2c0.2,0.1,0.5,0.1,0.8,0.2c0.3,0.1,0.5,0.2,0.8,0.4c0.3,0.2,0.5,0.4,0.6,0.7c0.2,0.3,0.3,0.6,0.3,1c0,0.5-0.1,0.9-0.4,1.3
		c-0.2,0.4-0.6,0.7-1.1,0.9c-0.5,0.2-1,0.3-1.7,0.3c-0.6,0-1.2-0.1-1.6-0.3c-0.5-0.2-0.8-0.5-1.1-0.8c-0.3-0.4-0.4-0.8-0.4-1.3h1.1
		c0,0.3,0.1,0.6,0.3,0.8c0.2,0.2,0.4,0.4,0.7,0.5c0.3,0.1,0.6,0.2,1,0.2c0.4,0,0.8-0.1,1.1-0.2c0.3-0.1,0.6-0.3,0.8-0.6
		c0.2-0.2,0.3-0.5,0.3-0.8c0-0.3-0.1-0.5-0.2-0.7c-0.2-0.2-0.4-0.3-0.6-0.4c-0.3-0.1-0.6-0.2-0.9-0.3l-1.1-0.3
		c-0.7-0.2-1.2-0.5-1.6-0.8c-0.4-0.4-0.6-0.8-0.6-1.4c0-0.5,0.1-0.9,0.4-1.3c0.3-0.4,0.6-0.7,1.1-0.9c0.5-0.2,1-0.3,1.5-0.3
		c0.6,0,1.1,0.1,1.5,0.3c0.4,0.2,0.8,0.5,1,0.8c0.3,0.3,0.4,0.7,0.4,1.2H69.8z M75.3,45.1c-0.6,0-1.2-0.1-1.6-0.4
		c-0.5-0.3-0.8-0.7-1.1-1.2c-0.2-0.5-0.4-1.1-0.4-1.8c0-0.7,0.1-1.3,0.4-1.8c0.2-0.5,0.6-0.9,1-1.2c0.4-0.3,1-0.4,1.6-0.4
		c0.3,0,0.7,0.1,1,0.2c0.3,0.1,0.6,0.3,0.9,0.6c0.3,0.3,0.5,0.6,0.7,1c0.2,0.4,0.2,0.9,0.2,1.5v0.4h-5v-0.9h4c0-0.4-0.1-0.7-0.2-1
		c-0.1-0.3-0.4-0.5-0.6-0.7c-0.3-0.2-0.6-0.3-0.9-0.3c-0.4,0-0.7,0.1-1,0.3c-0.3,0.2-0.5,0.5-0.7,0.8c-0.2,0.3-0.2,0.7-0.2,1v0.6
		c0,0.5,0.1,0.9,0.3,1.3c0.2,0.3,0.4,0.6,0.7,0.8c0.3,0.2,0.7,0.3,1.1,0.3c0.3,0,0.5,0,0.7-0.1c0.2-0.1,0.4-0.2,0.6-0.3
		c0.2-0.2,0.3-0.3,0.4-0.6l1,0.3c-0.1,0.3-0.3,0.6-0.5,0.9c-0.2,0.2-0.5,0.4-0.9,0.6C76.2,45.1,75.8,45.1,75.3,45.1z M81.5,45.2
		c-0.4,0-0.8-0.1-1.1-0.2c-0.3-0.2-0.6-0.4-0.8-0.7c-0.2-0.3-0.3-0.7-0.3-1.1c0-0.4,0.1-0.7,0.2-0.9c0.1-0.2,0.3-0.4,0.6-0.6
		c0.2-0.1,0.5-0.2,0.8-0.3c0.3-0.1,0.6-0.1,0.9-0.2c0.4-0.1,0.7-0.1,1-0.1c0.2,0,0.4-0.1,0.5-0.1c0.1-0.1,0.2-0.2,0.2-0.3v0
		c0-0.4-0.1-0.7-0.3-1c-0.2-0.2-0.6-0.3-1-0.3c-0.5,0-0.9,0.1-1.1,0.3c-0.3,0.2-0.5,0.4-0.6,0.7l-1-0.3c0.2-0.4,0.4-0.7,0.7-0.9
		c0.3-0.2,0.6-0.4,0.9-0.5c0.3-0.1,0.7-0.1,1-0.1c0.2,0,0.5,0,0.7,0.1c0.3,0,0.5,0.1,0.8,0.3c0.3,0.2,0.5,0.4,0.6,0.7
		c0.2,0.3,0.3,0.7,0.3,1.2V45h-1v-0.9h-0.1c-0.1,0.1-0.2,0.3-0.3,0.5c-0.2,0.2-0.4,0.3-0.6,0.4C82.2,45.1,81.9,45.2,81.5,45.2z
		 M81.6,44.2c0.4,0,0.7-0.1,1-0.2c0.3-0.2,0.5-0.4,0.6-0.6c0.1-0.2,0.2-0.5,0.2-0.8v-0.9c0,0.1-0.1,0.1-0.3,0.1
		c-0.1,0-0.3,0.1-0.5,0.1c-0.2,0-0.4,0.1-0.5,0.1c-0.2,0-0.3,0-0.4,0.1c-0.3,0-0.5,0.1-0.7,0.2c-0.2,0.1-0.4,0.2-0.5,0.3
		c-0.1,0.1-0.2,0.3-0.2,0.6c0,0.3,0.1,0.6,0.4,0.8C80.9,44.2,81.2,44.2,81.6,44.2z M86.3,45v-6.5h1v1h0.1c0.1-0.3,0.4-0.6,0.7-0.8
		c0.3-0.2,0.7-0.3,1.1-0.3c0.4,0,0.8,0.1,1.1,0.3c0.3,0.2,0.5,0.5,0.7,0.8H91c0.2-0.3,0.4-0.6,0.8-0.8c0.3-0.2,0.7-0.3,1.2-0.3
		c0.6,0,1.1,0.2,1.4,0.5c0.4,0.4,0.6,0.9,0.6,1.7V45h-1v-4.4c0-0.5-0.1-0.8-0.4-1s-0.6-0.3-0.9-0.3c-0.5,0-0.8,0.1-1.1,0.4
		c-0.3,0.3-0.4,0.6-0.4,1V45h-1v-4.5c0-0.4-0.1-0.7-0.4-0.9c-0.2-0.2-0.6-0.3-0.9-0.3c-0.3,0-0.5,0.1-0.7,0.2
		c-0.2,0.1-0.4,0.3-0.5,0.6c-0.1,0.2-0.2,0.5-0.2,0.8V45H86.3z M97.8,36.3V45h-1v-8.7H97.8z M102.3,45.1c-0.6,0-1.2-0.1-1.6-0.4
		c-0.5-0.3-0.8-0.7-1.1-1.2c-0.2-0.5-0.4-1.1-0.4-1.8c0-0.7,0.1-1.3,0.4-1.8c0.2-0.5,0.6-0.9,1-1.2c0.4-0.3,1-0.4,1.6-0.4
		c0.3,0,0.7,0.1,1,0.2c0.3,0.1,0.6,0.3,0.9,0.6c0.3,0.3,0.5,0.6,0.7,1c0.2,0.4,0.2,0.9,0.2,1.5v0.4h-5v-0.9h4c0-0.4-0.1-0.7-0.2-1
		c-0.1-0.3-0.4-0.5-0.6-0.7c-0.3-0.2-0.6-0.3-0.9-0.3c-0.4,0-0.7,0.1-1,0.3c-0.3,0.2-0.5,0.5-0.7,0.8c-0.2,0.3-0.2,0.7-0.2,1v0.6
		c0,0.5,0.1,0.9,0.3,1.3c0.2,0.3,0.4,0.6,0.7,0.8c0.3,0.2,0.7,0.3,1.1,0.3c0.3,0,0.5,0,0.7-0.1c0.2-0.1,0.4-0.2,0.6-0.3
		c0.2-0.2,0.3-0.3,0.4-0.6l1,0.3c-0.1,0.3-0.3,0.6-0.5,0.9c-0.2,0.2-0.5,0.4-0.9,0.6C103.2,45.1,102.8,45.1,102.3,45.1z M111.2,39.9
		l-0.9,0.3c-0.1-0.2-0.1-0.3-0.3-0.4c-0.1-0.1-0.3-0.3-0.4-0.4c-0.2-0.1-0.4-0.1-0.7-0.1c-0.4,0-0.7,0.1-1,0.3
		c-0.3,0.2-0.4,0.4-0.4,0.7c0,0.2,0.1,0.4,0.3,0.6c0.2,0.1,0.5,0.3,0.9,0.4l1,0.2c0.6,0.1,1,0.4,1.3,0.7c0.3,0.3,0.4,0.7,0.4,1.1
		c0,0.4-0.1,0.7-0.3,1c-0.2,0.3-0.5,0.5-0.9,0.7c-0.4,0.2-0.8,0.3-1.3,0.3c-0.7,0-1.2-0.1-1.7-0.4c-0.4-0.3-0.7-0.7-0.8-1.3l1-0.2
		c0.1,0.4,0.3,0.6,0.5,0.8c0.3,0.2,0.6,0.3,1,0.3c0.5,0,0.8-0.1,1.1-0.3c0.3-0.2,0.4-0.4,0.4-0.7c0-0.2-0.1-0.4-0.2-0.6
		c-0.2-0.2-0.4-0.3-0.7-0.3l-1.1-0.3c-0.6-0.1-1-0.4-1.3-0.7c-0.3-0.3-0.4-0.7-0.4-1.1c0-0.4,0.1-0.7,0.3-1c0.2-0.3,0.5-0.5,0.9-0.7
		c0.4-0.2,0.8-0.2,1.2-0.2c0.6,0,1.2,0.1,1.5,0.4C110.8,39.1,111.1,39.5,111.2,39.9z M117.5,39.9l-0.9,0.3c-0.1-0.2-0.1-0.3-0.3-0.4
		c-0.1-0.1-0.3-0.3-0.4-0.4c-0.2-0.1-0.4-0.1-0.7-0.1c-0.4,0-0.7,0.1-1,0.3c-0.3,0.2-0.4,0.4-0.4,0.7c0,0.2,0.1,0.4,0.3,0.6
		c0.2,0.1,0.5,0.3,0.9,0.4l1,0.2c0.6,0.1,1,0.4,1.3,0.7c0.3,0.3,0.4,0.7,0.4,1.1c0,0.4-0.1,0.7-0.3,1c-0.2,0.3-0.5,0.5-0.9,0.7
		c-0.4,0.2-0.8,0.3-1.3,0.3c-0.7,0-1.2-0.1-1.7-0.4c-0.4-0.3-0.7-0.7-0.8-1.3l1-0.2c0.1,0.4,0.3,0.6,0.5,0.8c0.3,0.2,0.6,0.3,1,0.3
		c0.5,0,0.8-0.1,1.1-0.3c0.3-0.2,0.4-0.4,0.4-0.7c0-0.2-0.1-0.4-0.2-0.6c-0.2-0.2-0.4-0.3-0.7-0.3l-1.1-0.3c-0.6-0.1-1-0.4-1.3-0.7
		c-0.3-0.3-0.4-0.7-0.4-1.1c0-0.4,0.1-0.7,0.3-1c0.2-0.3,0.5-0.5,0.9-0.7c0.4-0.2,0.8-0.2,1.2-0.2c0.6,0,1.2,0.1,1.5,0.4
		C117.1,39.1,117.3,39.5,117.5,39.9z M125.3,38.5v0.9h-3.4v-0.9H125.3z M122.9,36.9h1v6.2c0,0.3,0,0.5,0.1,0.6
		c0.1,0.1,0.2,0.2,0.3,0.3c0.1,0,0.3,0.1,0.4,0.1c0.1,0,0.2,0,0.3,0c0.1,0,0.1,0,0.2,0l0.2,0.9c-0.1,0-0.2,0.1-0.3,0.1
		c-0.1,0-0.3,0-0.5,0c-0.3,0-0.6-0.1-0.8-0.2c-0.3-0.1-0.5-0.3-0.7-0.6c-0.2-0.2-0.3-0.6-0.3-0.9V36.9z M126.9,45v-6.5h1v1h0.1
		c0.1-0.3,0.3-0.6,0.6-0.8c0.3-0.2,0.7-0.3,1.1-0.3c0.1,0,0.2,0,0.3,0c0.1,0,0.2,0,0.3,0v1c0,0-0.1,0-0.2,0c-0.1,0-0.2,0-0.4,0
		c-0.3,0-0.6,0.1-0.9,0.2c-0.2,0.1-0.4,0.3-0.6,0.5c-0.1,0.2-0.2,0.5-0.2,0.8V45H126.9z M133.2,45.2c-0.4,0-0.8-0.1-1.1-0.2
		c-0.3-0.2-0.6-0.4-0.8-0.7c-0.2-0.3-0.3-0.7-0.3-1.1c0-0.4,0.1-0.7,0.2-0.9c0.1-0.2,0.3-0.4,0.6-0.6c0.2-0.1,0.5-0.2,0.8-0.3
		c0.3-0.1,0.6-0.1,0.9-0.2c0.4-0.1,0.7-0.1,1-0.1c0.2,0,0.4-0.1,0.5-0.1c0.1-0.1,0.2-0.2,0.2-0.3v0c0-0.4-0.1-0.7-0.3-1
		c-0.2-0.2-0.6-0.3-1-0.3c-0.5,0-0.9,0.1-1.1,0.3c-0.3,0.2-0.5,0.4-0.6,0.7l-1-0.3c0.2-0.4,0.4-0.7,0.7-0.9c0.3-0.2,0.6-0.4,0.9-0.5
		c0.3-0.1,0.7-0.1,1-0.1c0.2,0,0.5,0,0.7,0.1c0.3,0,0.5,0.1,0.8,0.3c0.3,0.2,0.5,0.4,0.6,0.7c0.2,0.3,0.3,0.7,0.3,1.2V45h-1v-0.9
		h-0.1c-0.1,0.1-0.2,0.3-0.3,0.5c-0.2,0.2-0.4,0.3-0.6,0.4C133.9,45.1,133.6,45.2,133.2,45.2z M133.4,44.2c0.4,0,0.7-0.1,1-0.2
		c0.3-0.2,0.5-0.4,0.6-0.6c0.1-0.2,0.2-0.5,0.2-0.8v-0.9c0,0.1-0.1,0.1-0.3,0.1c-0.1,0-0.3,0.1-0.5,0.1c-0.2,0-0.4,0.1-0.5,0.1
		c-0.2,0-0.3,0-0.4,0.1c-0.3,0-0.5,0.1-0.7,0.2c-0.2,0.1-0.4,0.2-0.5,0.3c-0.1,0.1-0.2,0.3-0.2,0.6c0,0.3,0.1,0.6,0.4,0.8
		C132.7,44.2,133,44.2,133.4,44.2z M140.6,45.1c-0.5,0-1-0.1-1.4-0.4c-0.4-0.3-0.7-0.7-1-1.2c-0.2-0.5-0.4-1.1-0.4-1.8
		c0-0.7,0.1-1.3,0.4-1.8c0.2-0.5,0.6-0.9,1-1.2c0.4-0.3,0.9-0.4,1.5-0.4c0.4,0,0.8,0.1,1,0.2c0.2,0.1,0.4,0.3,0.6,0.5
		c0.1,0.2,0.2,0.3,0.3,0.4h0.1v-3.2h1V45h-1v-1h-0.1c-0.1,0.1-0.2,0.3-0.3,0.5c-0.1,0.2-0.3,0.3-0.6,0.5
		C141.3,45.1,141,45.1,140.6,45.1z M140.7,44.2c0.4,0,0.7-0.1,1-0.3c0.3-0.2,0.5-0.5,0.6-0.9c0.1-0.4,0.2-0.8,0.2-1.3
		c0-0.5-0.1-0.9-0.2-1.3c-0.1-0.4-0.4-0.7-0.6-0.9c-0.3-0.2-0.6-0.3-1-0.3c-0.4,0-0.8,0.1-1.1,0.3c-0.3,0.2-0.5,0.5-0.6,0.9
		c-0.1,0.4-0.2,0.8-0.2,1.2c0,0.5,0.1,0.9,0.2,1.3c0.1,0.4,0.4,0.7,0.6,0.9C139.9,44.1,140.3,44.2,140.7,44.2z M145.5,45v-6.5h1V45
		H145.5z M146,37.4c-0.2,0-0.4-0.1-0.5-0.2c-0.1-0.1-0.2-0.3-0.2-0.5s0.1-0.3,0.2-0.5c0.1-0.1,0.3-0.2,0.5-0.2s0.4,0.1,0.5,0.2
		c0.1,0.1,0.2,0.3,0.2,0.5s-0.1,0.3-0.2,0.5C146.4,37.3,146.2,37.4,146,37.4z M149.4,41.1V45h-1v-6.5h1v1h0.1
		c0.2-0.3,0.4-0.6,0.7-0.8c0.3-0.2,0.7-0.3,1.2-0.3c0.4,0,0.8,0.1,1.2,0.3c0.3,0.2,0.6,0.5,0.8,0.8c0.2,0.4,0.3,0.8,0.3,1.4V45h-1
		v-4.1c0-0.5-0.1-0.9-0.4-1.2c-0.3-0.3-0.6-0.4-1.1-0.4c-0.3,0-0.6,0.1-0.9,0.2c-0.2,0.1-0.4,0.3-0.6,0.6
		C149.5,40.4,149.4,40.7,149.4,41.1z M158,47.6c-0.5,0-0.9-0.1-1.3-0.2c-0.3-0.1-0.6-0.3-0.9-0.5c-0.2-0.2-0.4-0.4-0.6-0.6l0.8-0.6
		c0.1,0.1,0.2,0.3,0.3,0.4c0.1,0.2,0.3,0.3,0.6,0.4c0.2,0.1,0.6,0.2,1,0.2c0.5,0,1-0.1,1.3-0.4c0.3-0.3,0.5-0.7,0.5-1.2v-1.3h-0.1
		c-0.1,0.1-0.2,0.3-0.3,0.4c-0.1,0.2-0.3,0.3-0.6,0.5c-0.2,0.1-0.6,0.2-1,0.2c-0.5,0-1-0.1-1.4-0.4c-0.4-0.2-0.7-0.6-1-1.1
		c-0.2-0.5-0.4-1.1-0.4-1.7c0-0.7,0.1-1.3,0.4-1.8c0.2-0.5,0.6-0.9,1-1.2c0.4-0.3,0.9-0.4,1.5-0.4c0.4,0,0.8,0.1,1,0.2
		c0.3,0.1,0.4,0.3,0.6,0.5c0.1,0.2,0.2,0.3,0.3,0.4h0.1v-1h1v6.7c0,0.6-0.1,1-0.4,1.4c-0.3,0.4-0.6,0.6-1,0.8
		C159,47.5,158.6,47.6,158,47.6z M158,44c0.4,0,0.7-0.1,1-0.3c0.3-0.2,0.5-0.5,0.6-0.8c0.1-0.3,0.2-0.8,0.2-1.2
		c0-0.5-0.1-0.9-0.2-1.2c-0.1-0.4-0.4-0.6-0.6-0.8c-0.3-0.2-0.6-0.3-1-0.3c-0.4,0-0.8,0.1-1.1,0.3c-0.3,0.2-0.5,0.5-0.6,0.9
		c-0.1,0.4-0.2,0.8-0.2,1.2c0,0.5,0.1,0.9,0.2,1.2c0.1,0.3,0.4,0.6,0.6,0.8C157.2,43.9,157.6,44,158,44z M69.6,55.9l-0.9,0.3
		c-0.1-0.2-0.1-0.3-0.3-0.4c-0.1-0.1-0.3-0.3-0.4-0.4c-0.2-0.1-0.4-0.1-0.7-0.1c-0.4,0-0.7,0.1-1,0.3c-0.3,0.2-0.4,0.4-0.4,0.7
		c0,0.2,0.1,0.4,0.3,0.6c0.2,0.1,0.5,0.3,0.9,0.4l1,0.2c0.6,0.1,1,0.4,1.3,0.7c0.3,0.3,0.4,0.7,0.4,1.1c0,0.4-0.1,0.7-0.3,1
		c-0.2,0.3-0.5,0.5-0.9,0.7c-0.4,0.2-0.8,0.3-1.3,0.3c-0.7,0-1.2-0.1-1.7-0.4c-0.4-0.3-0.7-0.7-0.8-1.3l1-0.2
		c0.1,0.4,0.3,0.6,0.5,0.8c0.3,0.2,0.6,0.3,1,0.3c0.5,0,0.8-0.1,1.1-0.3c0.3-0.2,0.4-0.4,0.4-0.7c0-0.2-0.1-0.4-0.2-0.6
		c-0.2-0.2-0.4-0.3-0.7-0.3l-1.1-0.3c-0.6-0.1-1-0.4-1.3-0.7c-0.3-0.3-0.4-0.7-0.4-1.1c0-0.4,0.1-0.7,0.3-1c0.2-0.3,0.5-0.5,0.9-0.7
		c0.4-0.2,0.8-0.2,1.2-0.2c0.6,0,1.2,0.1,1.5,0.4C69.1,55.1,69.4,55.5,69.6,55.9z M71.8,63.5c-0.2,0-0.3,0-0.5,0
		c-0.1,0-0.2-0.1-0.3-0.1l0.3-0.9c0.2,0.1,0.5,0.1,0.6,0.1c0.2,0,0.4-0.1,0.5-0.3c0.1-0.1,0.3-0.4,0.4-0.7l0.2-0.5l-2.4-6.6h1.1
		l1.8,5.2h0.1l1.8-5.2h1.1L73.8,62c-0.1,0.3-0.3,0.6-0.5,0.8c-0.2,0.2-0.4,0.4-0.6,0.5C72.4,63.4,72.1,63.5,71.8,63.5z M82.5,55.9
		l-0.9,0.3c-0.1-0.2-0.1-0.3-0.3-0.4c-0.1-0.1-0.3-0.3-0.4-0.4c-0.2-0.1-0.4-0.1-0.7-0.1c-0.4,0-0.7,0.1-1,0.3
		c-0.3,0.2-0.4,0.4-0.4,0.7c0,0.2,0.1,0.4,0.3,0.6c0.2,0.1,0.5,0.3,0.9,0.4l1,0.2c0.6,0.1,1,0.4,1.3,0.7c0.3,0.3,0.4,0.7,0.4,1.1
		c0,0.4-0.1,0.7-0.3,1c-0.2,0.3-0.5,0.5-0.9,0.7c-0.4,0.2-0.8,0.3-1.3,0.3c-0.7,0-1.2-0.1-1.7-0.4c-0.4-0.3-0.7-0.7-0.8-1.3l1-0.2
		c0.1,0.4,0.3,0.6,0.5,0.8c0.3,0.2,0.6,0.3,1,0.3c0.5,0,0.8-0.1,1.1-0.3c0.3-0.2,0.4-0.4,0.4-0.7c0-0.2-0.1-0.4-0.2-0.6
		c-0.2-0.2-0.4-0.3-0.7-0.3l-1.1-0.3c-0.6-0.1-1-0.4-1.3-0.7c-0.3-0.3-0.4-0.7-0.4-1.1c0-0.4,0.1-0.7,0.3-1c0.2-0.3,0.5-0.5,0.9-0.7
		c0.4-0.2,0.8-0.2,1.2-0.2c0.6,0,1.2,0.1,1.5,0.4C82.1,55.1,82.3,55.5,82.5,55.9z M87,54.5v0.9h-3.4v-0.9H87z M84.6,52.9h1v6.2
		c0,0.3,0,0.5,0.1,0.6c0.1,0.1,0.2,0.2,0.3,0.3c0.1,0,0.3,0.1,0.4,0.1c0.1,0,0.2,0,0.3,0c0.1,0,0.1,0,0.2,0l0.2,0.9
		C87,61,86.9,61,86.8,61c-0.1,0-0.3,0-0.5,0c-0.3,0-0.6-0.1-0.8-0.2c-0.3-0.1-0.5-0.3-0.7-0.6c-0.2-0.2-0.3-0.6-0.3-0.9V52.9z
		 M91.2,61.1c-0.6,0-1.2-0.1-1.6-0.4c-0.5-0.3-0.8-0.7-1.1-1.2c-0.2-0.5-0.4-1.1-0.4-1.8c0-0.7,0.1-1.3,0.4-1.8
		c0.2-0.5,0.6-0.9,1-1.2c0.4-0.3,1-0.4,1.6-0.4c0.3,0,0.7,0.1,1,0.2c0.3,0.1,0.6,0.3,0.9,0.6c0.3,0.3,0.5,0.6,0.7,1
		c0.2,0.4,0.2,0.9,0.2,1.5v0.4h-5v-0.9h4c0-0.4-0.1-0.7-0.2-1c-0.1-0.3-0.4-0.5-0.6-0.7c-0.3-0.2-0.6-0.3-0.9-0.3
		c-0.4,0-0.7,0.1-1,0.3c-0.3,0.2-0.5,0.5-0.7,0.8c-0.2,0.3-0.2,0.7-0.2,1v0.6c0,0.5,0.1,0.9,0.3,1.3c0.2,0.3,0.4,0.6,0.7,0.8
		c0.3,0.2,0.7,0.3,1.1,0.3c0.3,0,0.5,0,0.7-0.1c0.2-0.1,0.4-0.2,0.6-0.3c0.2-0.2,0.3-0.3,0.4-0.6l1,0.3c-0.1,0.3-0.3,0.6-0.5,0.9
		c-0.2,0.2-0.5,0.4-0.9,0.6C92,61.1,91.6,61.1,91.2,61.1z M95.4,61v-6.5h1v1h0.1c0.1-0.3,0.4-0.6,0.7-0.8c0.3-0.2,0.7-0.3,1.1-0.3
		c0.4,0,0.8,0.1,1.1,0.3c0.3,0.2,0.5,0.5,0.7,0.8h0.1c0.2-0.3,0.4-0.6,0.8-0.8c0.3-0.2,0.7-0.3,1.2-0.3c0.6,0,1.1,0.2,1.4,0.5
		c0.4,0.4,0.6,0.9,0.6,1.7V61h-1v-4.4c0-0.5-0.1-0.8-0.4-1c-0.3-0.2-0.6-0.3-0.9-0.3c-0.5,0-0.8,0.1-1.1,0.4c-0.3,0.3-0.4,0.6-0.4,1
		V61h-1v-4.5c0-0.4-0.1-0.7-0.4-0.9c-0.2-0.2-0.6-0.3-0.9-0.3c-0.3,0-0.5,0.1-0.7,0.2c-0.2,0.1-0.4,0.3-0.5,0.6
		c-0.1,0.2-0.2,0.5-0.2,0.8V61H95.4z"/>
</g>
</svg>
