<?xml version="1.0" encoding="utf-8"?>
<!-- Generator: Adobe Illustrator 28.0.0, SVG Export Plug-In . SVG Version: 6.00 Build 0)  -->
<svg version="1.1" id="Layer_1" xmlns="http://www.w3.org/2000/svg" xmlns:xlink="http://www.w3.org/1999/xlink" x="0px" y="0px"
	 viewBox="0 0 63 63" style="enable-background:new 0 0 63 63;" xml:space="preserve">
<style type="text/css">
	.st0{fill:url(#SVGID_1_);}
	.st1{fill:#5285F7;fill-opacity:0.72;}
	.st2{fill:url(#SVGID_00000180358809152035307800000015974343344429077378_);fill-opacity:0.2;}
	.st3{fill:url(#SVGID_00000026151674699641358770000016811255235280087487_);fill-opacity:0.2;}
	.st4{clip-path:url(#SVGID_00000155826658814185373030000008848708203973585828_);}
	.st5{fill:#FFFFFF;}
</style>
<g>
	
		<radialGradient id="SVGID_1_" cx="-264.1925" cy="671.0256" r="1" gradientTransform="matrix(22 76.5 53.6526 -15.4295 -30170.0449 30549.3516)" gradientUnits="userSpaceOnUse">
		<stop  offset="0" style="stop-color:#61CDFF"/>
		<stop  offset="1" style="stop-color:#305BF3"/>
	</radialGradient>
	<circle class="st0" cx="31.5" cy="31.5" r="31.5"/>
	<path class="st1" d="M29.7,33.2C16.2,44.9,4.3,36.3,0,30.6C0,19.1,18.5-7.1,40,1.8c17.2,7.1,21.2,22.1,21,28.7
		C56.2,26.5,43.3,21.5,29.7,33.2z"/>
	
		<linearGradient id="SVGID_00000147220206062514351690000013231613285992660659_" gradientUnits="userSpaceOnUse" x1="32.6246" y1="452.1201" x2="32.6246" y2="433.17" gradientTransform="matrix(1 0 0 -1 0 495.1202)">
		<stop  offset="0" style="stop-color:#59B3FD"/>
		<stop  offset="1" style="stop-color:#59B3FD;stop-opacity:0"/>
	</linearGradient>
	<path style="fill:url(#SVGID_00000147220206062514351690000013231613285992660659_);fill-opacity:0.2;" d="M55.2,49.4
		c-6.8,11.2-20.8,13-27,12.5c-4.8,0.1-11.7-3.4-15-6c-3.2-1.7-7.3-7.5,5.5-11.5C31.5,40.4,48.4,46,55.2,49.4z"/>
	
		<linearGradient id="SVGID_00000070801517769837688070000015690066075178679943_" gradientUnits="userSpaceOnUse" x1="31" y1="476.6202" x2="31" y2="486.1202" gradientTransform="matrix(1 0 0 -1 0 495.1202)">
		<stop  offset="0" style="stop-color:#E7F5FC;stop-opacity:0"/>
		<stop  offset="1" style="stop-color:#39FEFE"/>
	</linearGradient>
	
		<ellipse style="fill:url(#SVGID_00000070801517769837688070000015690066075178679943_);fill-opacity:0.2;" cx="31" cy="13" rx="18" ry="12"/>
	<g>
		<defs>
			<rect id="SVGID_00000181797298560152036440000004726035521125133200_" x="6" y="7" width="52" height="49"/>
		</defs>
		<clipPath id="SVGID_00000050654127187761031140000014294301895371881913_">
			<use xlink:href="#SVGID_00000181797298560152036440000004726035521125133200_"  style="overflow:visible;"/>
		</clipPath>
		<g style="clip-path:url(#SVGID_00000050654127187761031140000014294301895371881913_);">
			<g>
				<path class="st5" d="M44.8,23.4c0,0.2,0,0.4,0,0.6c0,4.5-2.3,8.6-5.7,11c-0.8,0.6-1.7,1.1-2.5,1.4c0,0,0,0,0,0v8H25.8v-5.4v-2.7
					c-0.9-0.4-1.8-0.9-2.5-1.5c-1.9-1.3-3.4-3.1-4.4-5.2c-0.1-0.2-0.2-0.4-0.3-0.7c-0.7-1.6-1-3.3-1-5.2c0-7.5,6.1-13.5,13.6-13.5
					c7.5,0,11.1,3.9,12.9,9.2l1.8-2.4C43.4,11.9,37.7,8,31.2,8C24.7,8,15,15.2,15,24c0,8.8,3.3,11.2,8.3,14v9h15.8v-9
					c5-2.7,8.3-8,8.3-14c0-6-0.1-2.4-0.4-3.5L44.8,23.4L44.8,23.4z"/>
			</g>
			<g>
				<path class="st5" d="M39.1,49H23.3v3.3h15.8V49z"/>
			</g>
			<g>
				<path class="st5" d="M50.7,17.4l-0.3-2.5l0.1-0.1l-0.1-0.1l-0.1-1l-1,0.2L49.3,14L49.2,14l-2.5,0.5l0.3,1.5l1-0.2l-5.3,7
					c-0.3-0.2-0.7-0.3-1.1-0.3c-0.4,0-1.1,0.2-1.5,0.5l-2.7-3.1c0.2-0.4,0.4-0.8,0.4-1.2c0-1.4-1.2-2.6-2.6-2.6s-2.6,1.2-2.6,2.6
					c0,1.4,0.4,1.5,1,2l-3,6.8c-0.1,0-0.1,0-0.2,0c-0.4,0-0.8,0.1-1.2,0.3l-2.6-2.4c0.2-0.3,0.3-0.7,0.3-1.1c0-1.4-1.2-2.6-2.6-2.6
					c-1.5,0-2.6,1.2-2.6,2.6c0,1.4,0.2,1.1,0.6,1.5l-2.6,3.6l1.2,0.9l2.6-3.5c0.3,0.1,0.6,0.2,0.9,0.2c0.5,0,1-0.2,1.4-0.4l2.6,2.4
					c-0.2,0.4-0.4,0.8-0.4,1.2c0,1.4,1.2,2.6,2.6,2.6c1.5,0,2.6-1.2,2.6-2.6s-0.4-1.5-1-2l3-6.8c0.1,0,0.2,0.1,0.3,0.1
					c0.4,0,0.8-0.1,1.2-0.3l2.8,3.2c-0.1,0.3-0.2,0.6-0.2,0.9c0,1.4,1.2,2.6,2.6,2.6s2.6-1.2,2.6-2.6c0-1.4-0.2-0.9-0.4-1.3l5.4-7.2
					l0.1,1L50.7,17.4L50.7,17.4z M40.7,24.4L40.7,24.4c0.3-0.2,0.5-0.4,0.8-0.4c0.6,0,1.1,0.5,1.1,1.1c0,0.6-0.5,1.1-1.1,1.1
					s-1.1-0.5-1.1-1.1C40.3,24.5,40.5,24.6,40.7,24.4z M36.1,18.7c0,0.6-0.5,1.1-1.1,1.1c-0.6,0-1.1-0.5-1.1-1.1
					c0-0.6,0.5-1.1,1.1-1.1C35.6,17.6,36.1,18.1,36.1,18.7z M31.2,30c0,0.6-0.5,1.1-1.1,1.1s-1.1-0.5-1.1-1.1c0-0.6,0.5-1.1,1.1-1.1
					S31.2,29.4,31.2,30z M25,24.2c0,0.6-0.5,1.1-1.1,1.1s-1.1-0.5-1.1-1.1c0-0.6,0.5-1.1,1.1-1.1C24.5,23.1,25,23.6,25,24.2z"/>
			</g>
		</g>
	</g>
</g>
</svg>
