<svg width="38" height="38" viewBox="0 0 38 38" fill="none" xmlns="http://www.w3.org/2000/svg">
<g clip-path="url(#clip0_1078_1081)">
<path d="M19.4664 0C19.894 0.457978 20.3155 0.915957 20.5842 1.48996C20.8836 2.13723 21.2073 2.7723 21.4944 3.35851C22.5267 3.6333 23.5101 3.6394 24.463 3.87144C24.9151 3.98136 25.2205 4.18898 25.4892 4.56147V5.68504C24.6524 6.46666 23.7484 7.29712 22.9665 8.02989C23.1925 9.26948 23.3819 10.2954 23.6018 11.4739C23.4124 11.7548 23.1436 12.1578 22.9054 12.512H21.8242C21.0363 12.0967 20.291 11.7304 19.5825 11.309C19.1671 11.0648 18.8312 11.0648 18.4219 11.3151C17.7133 11.7426 16.9681 12.109 16.2351 12.5059H15.1234C14.8852 12.17 14.6225 11.8036 14.4026 11.4922C14.6164 10.3564 14.8119 9.29391 15.0257 8.15202C14.2194 7.3704 13.3581 6.53993 12.5273 5.74V4.61032C12.7534 3.93251 13.4192 3.85313 13.9811 3.731C14.7508 3.56613 15.5571 3.53559 16.455 3.43789C16.8276 2.71734 17.243 1.96625 17.6034 1.18464C17.8233 0.702234 18.0859 0.280893 18.5441 0H19.4725L19.4664 0Z" fill="#1EE981"/>
<path d="M0 8.10925C0.164925 7.91385 0.323742 7.71844 0.525317 7.4803C1.66758 7.28489 2.8526 7.08949 4.05594 6.88798C4.77062 5.82547 4.99662 4.42711 6.02893 3.57832C6.62144 3.30353 7.02459 3.62106 7.49494 3.88974C7.9836 4.86066 8.49671 5.86821 9.01591 6.89408C10.1582 7.08338 11.2699 7.26047 12.4855 7.46198C12.7054 7.7673 12.9619 8.13368 13.2368 8.52449C12.7176 9.81293 11.4898 10.4602 10.6102 11.6204C10.714 12.4265 10.7201 13.3974 10.995 14.2828C11.1966 14.9484 10.9767 15.3697 10.7018 15.8766C10.4086 15.9743 10.1276 16.0659 9.74892 16.1941C8.76547 15.6812 7.69651 15.1316 6.60312 14.5637C5.47918 15.1255 4.36747 15.6751 3.18245 16.2674C2.80984 16.0048 2.4189 15.7239 2.0524 15.4552C2.15624 14.7652 1.99743 14.1668 2.24176 13.55C2.45555 13.0066 2.42501 12.3654 2.52275 11.6448C1.72866 10.8815 0.867385 10.0755 0 9.26336C0 8.87866 0 8.49395 0 8.10315V8.10925Z" fill="#1EE981"/>
<path d="M23.0098 34.5194C21.892 35.6674 20.762 36.8276 19.7052 37.9145C18.8317 38.1649 18.2636 37.8534 17.7505 37.3283C16.8343 36.3879 15.9058 35.4659 14.9651 34.5194C12.4852 34.5194 10.0174 34.5316 7.54961 34.5194C6.01642 34.5072 4.73367 33.982 3.93958 32.5714C3.79909 32.3211 3.47535 31.2219 3.47535 30.8494C3.47535 27.6863 3.45702 24.5232 3.48146 21.354C3.49367 19.9862 4.22667 19.0031 5.35061 18.2886C5.60716 18.1298 5.88814 18.0138 6.26075 17.8245H7.42134C15.1423 17.8245 22.8632 17.8245 30.5842 17.8245C31.0362 17.8245 31.5126 17.8245 31.9463 17.9405C33.3635 18.3252 34.5302 19.9495 34.5302 21.3357C34.5302 24.4988 34.5729 27.668 34.5118 30.825C34.4813 32.3211 33.7422 33.5362 32.3556 34.1896C31.8303 34.4339 31.1828 34.4949 30.5903 34.501C28.0859 34.5316 25.5753 34.5133 23.0159 34.5133L23.0098 34.5194ZM29.6618 28.9015C29.6435 28.5229 29.6374 28.297 29.6252 28.1016C29.332 27.8207 29.0815 27.5825 28.8494 27.3627H9.0767C8.84458 27.5886 8.5697 27.8512 8.38035 28.0405V28.8954C8.66133 29.158 8.9362 29.4144 9.15611 29.622H28.9288C29.167 29.39 29.4114 29.1519 29.6618 28.9076V28.9015ZM8.26429 23.7294C8.48419 24.1263 8.66744 24.4438 8.83847 24.7492H29.1854C29.3625 24.4011 29.5335 24.0713 29.7168 23.7233C29.5152 23.3691 29.3381 23.0455 29.167 22.7463H8.84458C8.66133 23.0638 8.4903 23.3508 8.26429 23.7355V23.7294Z" fill="#1EE981"/>
<path d="M24.7695 8.53669C25.02 8.15809 25.246 7.81614 25.4781 7.46197C26.6631 7.26656 27.8054 7.07727 28.9904 6.88186C29.4852 5.90484 29.9738 4.92782 30.493 3.90195C30.7435 3.76761 31.0367 3.60274 31.3299 3.44397C31.9285 3.59052 32.4111 3.83478 32.6859 4.40267C33.083 5.21482 33.4922 6.02086 33.9198 6.87576C35.0621 7.06505 36.2471 7.26656 37.4505 7.46197C38.0002 7.86499 38.0857 8.4512 37.9513 9.37326C37.2183 10.045 36.3082 10.8693 35.5019 11.6021C35.6912 12.9577 35.8623 14.1485 36.0333 15.3697C35.6057 15.6812 35.2392 15.9498 34.8361 16.2429C33.7244 15.6873 32.6126 15.1377 31.446 14.5576C30.377 15.1072 29.2836 15.675 28.3002 16.1819C27.9092 16.0598 27.6588 15.9804 27.3717 15.8888C27.0113 15.4186 26.7853 14.9728 27.0113 14.2645C27.2801 13.4157 27.2862 12.4814 27.4022 11.6265C26.602 10.5091 25.3681 9.86788 24.7695 8.53669Z" fill="#1EE981"/>
</g>
<defs>
<clipPath id="clip0_1078_1081">
<rect width="38" height="38" fill="white"/>
</clipPath>
</defs>
</svg>
