<svg width="247" height="309" viewBox="0 0 247 309" fill="none" xmlns="http://www.w3.org/2000/svg">
<path d="M100.344 200.85H146.656L137.78 151.024C142.926 148.449 146.978 144.715 149.937 139.822C152.896 134.93 154.375 129.522 154.375 123.6C154.375 115.102 151.352 107.828 145.305 101.777C139.259 95.7256 131.991 92.7 123.5 92.7C115.009 92.7 107.741 95.7256 101.695 101.777C95.6482 107.828 92.625 115.102 92.625 123.6C92.625 129.522 94.1044 134.93 97.0633 139.822C100.022 144.715 104.074 148.449 109.22 151.024L100.344 200.85ZM123.5 309C87.7365 299.987 58.2122 279.452 34.9273 247.393C11.6424 215.334 0 179.735 0 140.595V46.35L123.5 0L247 46.35V140.595C247 179.735 235.358 215.334 212.073 247.393C188.788 279.452 159.264 299.987 123.5 309ZM123.5 276.555C150.258 268.057 172.385 251.062 189.881 225.57C207.377 200.077 216.125 171.752 216.125 140.595V67.5938L123.5 32.8312L30.875 67.5938V140.595C30.875 171.752 39.6229 200.077 57.1188 225.57C74.6146 251.062 96.7417 268.057 123.5 276.555Z" fill="url(#paint0_linear_756_2541)"/>
<defs>
<linearGradient id="paint0_linear_756_2541" x1="122.205" y1="-49.0509" x2="123.502" y2="343.134" gradientUnits="userSpaceOnUse">
<stop stop-color="#FAFAFA" stop-opacity="0.7"/>
<stop offset="1" stop-color="#4674A5"/>
</linearGradient>
</defs>
</svg>
