<?xml version="1.0" encoding="utf-8"?>
<!-- Generator: Adobe Illustrator 28.0.0, SVG Export Plug-In . SVG Version: 6.00 Build 0)  -->
<svg version="1.1" id="Layer_1" xmlns="http://www.w3.org/2000/svg" xmlns:xlink="http://www.w3.org/1999/xlink" x="0px" y="0px"
	 viewBox="0 0 63 63" style="enable-background:new 0 0 63 63;" xml:space="preserve">
<style type="text/css">
	.st0{fill:url(#SVGID_1_);}
	.st1{fill:#5285F7;fill-opacity:0.72;}
	.st2{fill:url(#SVGID_00000117636324984531752030000005790037398584659350_);fill-opacity:0.2;}
	.st3{fill:url(#SVGID_00000115485690869446345920000014089129827084218001_);fill-opacity:0.2;}
	.st4{fill:#FFFFFF;}
</style>
<g>
	
		<radialGradient id="SVGID_1_" cx="-264.1925" cy="671.0256" r="1" gradientTransform="matrix(22 76.5 53.6526 -15.4295 -30170.0449 30549.3516)" gradientUnits="userSpaceOnUse">
		<stop  offset="0" style="stop-color:#61CDFF"/>
		<stop  offset="1" style="stop-color:#305BF3"/>
	</radialGradient>
	<circle class="st0" cx="31.5" cy="31.5" r="31.5"/>
	<path class="st1" d="M29.7,33.2C16.2,44.9,4.3,36.3,0,30.6C0,19.1,18.5-7.1,40,1.8c17.2,7.1,21.2,22.1,21,28.7
		C56.2,26.5,43.3,21.5,29.7,33.2z"/>
	
		<linearGradient id="SVGID_00000181077319224697160810000001958394949092345738_" gradientUnits="userSpaceOnUse" x1="32.6246" y1="452.1201" x2="32.6246" y2="433.17" gradientTransform="matrix(1 0 0 -1 0 495.1202)">
		<stop  offset="0" style="stop-color:#59B3FD"/>
		<stop  offset="1" style="stop-color:#59B3FD;stop-opacity:0"/>
	</linearGradient>
	<path style="fill:url(#SVGID_00000181077319224697160810000001958394949092345738_);fill-opacity:0.2;" d="M55.2,49.4
		c-6.8,11.2-20.8,13-27,12.5c-4.8,0.1-11.7-3.4-15-6c-3.2-1.7-7.3-7.5,5.5-11.5C31.5,40.4,48.4,46,55.2,49.4z"/>
	
		<linearGradient id="SVGID_00000098205802914253778180000002308814324190044054_" gradientUnits="userSpaceOnUse" x1="31" y1="476.6202" x2="31" y2="486.1202" gradientTransform="matrix(1 0 0 -1 0 495.1202)">
		<stop  offset="0" style="stop-color:#E7F5FC;stop-opacity:0"/>
		<stop  offset="1" style="stop-color:#39FEFE"/>
	</linearGradient>
	
		<ellipse style="fill:url(#SVGID_00000098205802914253778180000002308814324190044054_);fill-opacity:0.2;" cx="31" cy="13" rx="18" ry="12"/>
</g>
<g>
	<path class="st4" d="M41,36.4c0.9,0.9,1.8,1.8,2.8,2.8c0.2-0.2,0.5-0.5,0.7-0.7c0.4-0.4,0.7-0.4,1.1,0c2.3,2.3,4.6,4.6,6.9,6.9
		c1.5,1.5,1.6,3.8,0.2,5.4c-1.5,1.7-4.1,1.8-5.7,0.3c-1.6-1.6-3.2-3.2-4.8-4.8c-0.7-0.7-1.5-1.5-2.2-2.2c-0.3-0.4-0.3-0.7,0-1.1
		c0.3-0.3,0.5-0.5,0.8-0.8c-0.1-0.1-0.1-0.1-0.2-0.2c-0.8-0.8-1.7-1.7-2.5-2.5c-0.1-0.1-0.2-0.1-0.3,0c-2.4,1.5-5,2.1-7.7,2.1
		c-5.9-0.1-11.1-4.4-12.5-10.1c-1.6-6.6,2-13.2,8.3-15.6c7.2-2.7,15.4,1.5,17.4,9c1.1,4.1,0.3,8-2.2,11.5C41.1,36.3,41,36.3,41,36.4
		z M42.8,40.1c-0.4-0.4-0.7-0.7-1.1-1.1c-0.7-0.7-1.3-1.3-2-2c-0.3-0.3-0.3-0.7-0.1-1c0,0,0.1-0.1,0.1-0.1c2.4-3.1,3.2-6.5,2.4-10.3
		c-1.6-6.9-8.7-10.8-15.4-8.6c-5.7,1.9-9.1,7.8-7.9,13.7c1.1,5.4,5.7,9.3,11.2,9.5c2.8,0.1,5.3-0.6,7.6-2.2c0.4-0.3,0.7-0.3,1,0.1
		c1,1,2,2,3,3c0.1,0.1,0.1,0.1,0.2,0.2C42.1,40.8,42.4,40.5,42.8,40.1z M41.4,43.4C41.4,43.5,41.4,43.5,41.4,43.4
		c2.2,2.2,4.4,4.4,6.5,6.5c0.7,0.6,1.5,0.9,2.4,0.7c1-0.2,1.7-0.9,1.9-1.8c0.3-1,0-1.9-0.7-2.6c-2.1-2.2-4.3-4.3-6.4-6.4
		c0,0-0.1-0.1-0.1-0.1C43.9,41,42.6,42.2,41.4,43.4z"/>
	<path class="st4" d="M25.2,10.9c0,0.5,0,0.9,0,1.3c-3.7,0-7.5,0-11.2,0c0,3.8,0,7.5,0,11.3c-0.5,0-0.9,0-1.3,0c0-0.1,0-0.2,0-0.2
		c0-3.9,0-7.7,0-11.6c0-0.6,0.2-0.8,0.8-0.8c3.9,0,7.7,0,11.6,0C25,10.9,25.1,10.9,25.2,10.9z"/>
	<path class="st4" d="M34.5,12.3c0-0.5,0-0.9,0-1.3c0.1,0,0.1,0,0.2,0c3.9,0,7.7,0,11.6,0c0.6,0,0.8,0.2,0.8,0.8c0,3.8,0,7.7,0,11.5
		c0,0.1,0,0.2,0,0.3c-0.4,0-0.9,0-1.3,0c0-3.7,0-7.5,0-11.2C42,12.3,38.2,12.3,34.5,12.3z"/>
	<path class="st4" d="M12.6,32.8c0.4,0,0.9,0,1.3,0c0,3.8,0,7.5,0,11.3c3.8,0,7.5,0,11.3,0c0,0.4,0,0.9,0,1.3c-0.1,0-0.1,0-0.2,0
		c-3.9,0-7.7,0-11.6,0c-0.5,0-0.7-0.3-0.7-0.7c0-3.9,0-7.9,0-11.8C12.6,32.9,12.6,32.9,12.6,32.8z"/>
	<path class="st4" d="M30.5,38.8c-5.9,0-10.6-4.8-10.6-10.7c0-5.8,4.8-10.6,10.6-10.6c5.9,0,10.6,4.8,10.6,10.7
		C41.1,34.1,36.3,38.8,30.5,38.8z M21.2,28.2c0,5.1,4.2,9.3,9.3,9.3c5.1,0,9.3-4.2,9.3-9.3c0-5.1-4.2-9.3-9.3-9.3
		C25.4,18.9,21.2,23.1,21.2,28.2z"/>
	<path class="st4" d="M30.4,31.5c-2.3-0.1-4.4-0.7-6.2-1.9c-0.4-0.3-0.9-0.6-1.3-0.8c-0.4-0.3-0.5-0.8,0-1.1
		c0.9-0.6,1.8-1.2,2.7-1.6c3.6-1.7,7.1-1.5,10.6,0.3c0.7,0.4,1.3,0.8,2,1.2c0.4,0.3,0.4,0.8,0,1.1c-1.3,0.9-2.6,1.7-4.1,2.2
		C32.9,31.3,31.6,31.5,30.4,31.5z M28.5,28.2c0,1.1,0.9,2,2,2c1.1,0,2-0.9,2-2c0-1.1-0.9-2-2-2C29.4,26.2,28.5,27.1,28.5,28.2z
		 M27.6,26.6c-1.2,0.4-2.2,0.9-3.1,1.5c1,0.7,2,1.2,3.1,1.5C27,28.7,27.1,27.7,27.6,26.6z M36.5,28.2c-1-0.7-2-1.2-3.1-1.5
		c0.3,0.5,0.4,1,0.4,1.5c0,0.5-0.1,1-0.4,1.5C34.6,29.4,35.6,28.8,36.5,28.2z"/>
</g>
</svg>
