<?xml version="1.0" encoding="utf-8"?>
<!-- Generator: Adobe Illustrator 28.0.0, SVG Export Plug-In . SVG Version: 6.00 Build 0)  -->
<svg version="1.1" id="Layer_1" xmlns="http://www.w3.org/2000/svg" xmlns:xlink="http://www.w3.org/1999/xlink" x="0px" y="0px"
	 viewBox="0 0 63 63" style="enable-background:new 0 0 63 63;" xml:space="preserve">
<style type="text/css">
	.st0{fill:#1FA2FF;}
	.st1{fill:url(#SVGID_1_);fill-opacity:0.2;}
	.st2{fill:#FFFFFF;}
</style>
<circle class="st0" cx="31.5" cy="31.5" r="31.5"/>
<linearGradient id="SVGID_1_" gradientUnits="userSpaceOnUse" x1="32.5692" y1="389.7848" x2="32.5692" y2="408.7438" gradientTransform="matrix(1 0 0 1 0 -346.7696)">
	<stop  offset="0" style="stop-color:#59B3FD"/>
	<stop  offset="1" style="stop-color:#59B3FD;stop-opacity:0"/>
</linearGradient>
<path class="st1" d="M55.2,49.4c-6.8,11.2-20.8,13-27,12.5c-4.8,0.1-11.7-3.4-15-6c-3.2-1.7-7.3-7.5,5.5-11.5S48.4,46,55.2,49.4z"/>
<g>
	<path class="st2" d="M41,36.4c0.9,0.9,1.8,1.8,2.8,2.8c0.2-0.2,0.5-0.5,0.7-0.7c0.4-0.4,0.7-0.4,1.1,0c2.3,2.3,4.6,4.6,6.9,6.9
		c1.5,1.5,1.6,3.8,0.2,5.4c-1.5,1.7-4.1,1.8-5.7,0.3c-1.6-1.6-3.2-3.2-4.8-4.8c-0.7-0.7-1.5-1.5-2.2-2.2c-0.3-0.4-0.3-0.7,0-1.1
		c0.3-0.3,0.5-0.5,0.8-0.8c-0.1-0.1-0.1-0.1-0.2-0.2c-0.8-0.8-1.7-1.7-2.5-2.5c-0.1-0.1-0.2-0.1-0.3,0c-2.4,1.5-5,2.1-7.7,2.1
		c-5.9-0.1-11.1-4.4-12.5-10.1c-1.6-6.6,2-13.2,8.3-15.6c7.2-2.7,15.4,1.5,17.4,9C44.4,29,43.6,32.9,41,36.4
		C41.1,36.3,41,36.3,41,36.4z M42.8,40.1c-0.4-0.4-0.7-0.7-1.1-1.1c-0.7-0.7-1.3-1.3-2-2c-0.3-0.3-0.3-0.7-0.1-1l0.1-0.1
		c2.4-3.1,3.2-6.5,2.4-10.3c-1.6-6.9-8.7-10.8-15.4-8.6c-5.7,1.9-9.1,7.8-7.9,13.7c1.1,5.4,5.7,9.3,11.2,9.5
		c2.8,0.1,5.3-0.6,7.6-2.2c0.4-0.3,0.7-0.3,1,0.1c1,1,2,2,3,3c0.1,0.1,0.1,0.1,0.2,0.2C42.1,40.8,42.4,40.5,42.8,40.1z M41.4,43.4
		C41.4,43.5,41.4,43.5,41.4,43.4c2.2,2.2,4.4,4.4,6.5,6.5c0.7,0.6,1.5,0.9,2.4,0.7c1-0.2,1.7-0.9,1.9-1.8c0.3-1,0-1.9-0.7-2.6
		c-2.1-2.2-4.3-4.3-6.4-6.4L45,39.7C43.9,41,42.6,42.2,41.4,43.4z"/>
	<path class="st2" d="M25.2,10.9c0,0.5,0,0.9,0,1.3c-3.7,0-7.5,0-11.2,0c0,3.8,0,7.5,0,11.3c-0.5,0-0.9,0-1.3,0c0-0.1,0-0.2,0-0.2
		c0-3.9,0-7.7,0-11.6c0-0.6,0.2-0.8,0.8-0.8C17.4,10.9,21.2,10.9,25.2,10.9C25,10.9,25.1,10.9,25.2,10.9z"/>
	<path class="st2" d="M34.5,12.3c0-0.5,0-0.9,0-1.3c0.1,0,0.1,0,0.2,0c3.9,0,7.7,0,11.6,0c0.6,0,0.8,0.2,0.8,0.8c0,3.8,0,7.7,0,11.5
		c0,0.1,0,0.2,0,0.3c-0.4,0-0.9,0-1.3,0c0-3.7,0-7.5,0-11.2C42,12.3,38.2,12.3,34.5,12.3z"/>
	<path class="st2" d="M12.6,32.8c0.4,0,0.9,0,1.3,0c0,3.8,0,7.5,0,11.3c3.8,0,7.5,0,11.3,0c0,0.4,0,0.9,0,1.3c-0.1,0-0.1,0-0.2,0
		c-3.9,0-7.7,0-11.6,0c-0.5,0-0.7-0.3-0.7-0.7C12.7,40.8,12.7,36.8,12.6,32.8C12.6,32.9,12.6,32.9,12.6,32.8z"/>
	<path class="st2" d="M30.5,38.8c-5.9,0-10.6-4.8-10.6-10.7c0-5.8,4.8-10.6,10.6-10.6c5.9,0,10.6,4.8,10.6,10.7S36.3,38.8,30.5,38.8
		z M21.2,28.2c0,5.1,4.2,9.3,9.3,9.3s9.3-4.2,9.3-9.3s-4.2-9.3-9.3-9.3C25.4,18.9,21.2,23.1,21.2,28.2z"/>
	<path class="st2" d="M30.4,31.5c-2.3-0.1-4.4-0.7-6.2-1.9c-0.4-0.3-0.9-0.6-1.3-0.8c-0.4-0.3-0.5-0.8,0-1.1
		c0.9-0.6,1.8-1.2,2.7-1.6c3.6-1.7,7.1-1.5,10.6,0.3c0.7,0.4,1.3,0.8,2,1.2c0.4,0.3,0.4,0.8,0,1.1c-1.3,0.9-2.6,1.7-4.1,2.2
		C32.9,31.3,31.6,31.5,30.4,31.5z M28.5,28.2c0,1.1,0.9,2,2,2s2-0.9,2-2s-0.9-2-2-2S28.5,27.1,28.5,28.2z M27.6,26.6
		c-1.2,0.4-2.2,0.9-3.1,1.5c1,0.7,2,1.2,3.1,1.5C27,28.7,27.1,27.7,27.6,26.6z M36.5,28.2c-1-0.7-2-1.2-3.1-1.5
		c0.3,0.5,0.4,1,0.4,1.5s-0.1,1-0.4,1.5C34.6,29.4,35.6,28.8,36.5,28.2z"/>
</g>
</svg>
